<?xml version="1.0" encoding="UTF-8"?><svg xmlns="http://www.w3.org/2000/svg" width="100%" height="100%"><defs><font id="web" horiz-adv-x="620"><!--



NOTICE: This font software is the valuable property 
of Webtype LLC, The Font Bureau, Webtype and/or its 
suppliers and its use by you is covered under the terms 
of the Web Font license agreement between you and Webtype 
LLC. You may ONLY use this font software with the licensed 
web site. Except as specifically permitted by the license, 
you may not copy this font software. If you have any 
questions, please contact Webtype.com. 

For more information, please visit http://www.webtype.com/store/license/?id=23

Licensed to: stamped.com|localhost

Serial number: SH-915
--><font-face font-family="" units-per-em="2048" panose-1="2 0 5 8 3 0 0 2 0 4" ascent="2118" descent="-432" alphabetic="0"/><missing-glyph horiz-adv-x="291"/><glyph unicode=" " horiz-adv-x="291"/><glyph unicode="!" horiz-adv-x="307" d="M209 1634L199 342H109L100 1634H209ZM211 0H98V225H211V0Z"/><glyph unicode="&quot;" horiz-adv-x="412" d="M365 1634L360 1063H264L260 1634H365ZM150 1634L143 1063H51L45 1634H150Z"/><glyph unicode="#" horiz-adv-x="651" d="M631 963L627 874H481Q479 867 476 839T470 779Q466 742 463 698H612L606 612H453L393 -10H315L375 612H238L180 -10H100L160 612H16L20 698H168Q172 742 176 779Q179 811 182 839T188 874H37L41 963H195Q196 967 198 992T205 1056T213 1143T223 1241Q234 1357 248 1503H328L274 963H412Q413 967 415 992T422 1056T430 1143T440 1241Q451 1357 465 1503H543Q530 1357 519 1241Q514 1191 510 1143T502 1057T496 993T492 963H631ZM401 874H266L246 698H383Q386 742 390 779Q393 811 396 839T401 874Z"/><glyph unicode="$" horiz-adv-x="598" d="M338 1604Q438 1594 491 1528T553 1333Q555 1305 555 1266T555 1176H455Q455 1233 455 1271T453 1335Q450 1417 420 1455T338 1503V901Q399 833 441 777T511 662T550 531T563 362Q563 277 547 215T502 111T431 47T338 18V-78H266V18Q221 23 181 39T110 85T59 159T35 262Q32 290 32 333T31 424H133Q133 408 133 387T132 345T132 305T135 272Q141 209 170 166T266 115V834Q203 904 160 961T90 1073T51 1188T39 1321Q39 1381 52 1430T93 1517T164 1576T266 1604V1645H338V1604ZM266 1505Q229 1500 205 1486T166 1448T145 1393T139 1323Q139 1280 145 1240T165 1160T203 1076T266 985V1505ZM338 117Q396 130 428 186T461 362Q461 423 457 472T439 566T402 655T338 750V117Z"/><glyph unicode="%" horiz-adv-x="961" d="M444 1077Q444 950 393 883T238 815Q184 815 146 834T85 887T50 970T39 1077V1403Q39 1522 87 1586T242 1651Q299 1651 338 1633T400 1581T434 1503T444 1403V1077ZM762 1561L244 0H170L688 1561H762ZM922 233Q922 105 872 47T715 -12Q660 -12 622 4T560 51T525 127T514 233V573Q514 690 563 756T717 823Q774 823 813 804T876 752T911 673T922 573V233ZM358 1075V1425Q358 1498 327 1530T242 1563Q185 1563 154 1533T123 1427V1075Q123 985 154 943T242 901Q300 901 329 942T358 1075ZM836 229V600Q836 668 805 701T717 735Q658 735 629 704T600 600V233Q600 189 608 159T631 109T667 82T717 74Q748 74 770 81T807 107T829 155T836 229Z"/><glyph unicode="&amp;" horiz-adv-x="745" d="M309 870Q349 770 404 653T532 393Q548 471 558 559T571 752H668Q666 591 649 471T602 266Q634 201 670 135T743 0H618Q598 35 580 70T543 137Q518 91 489 62T429 17T363 -6T295 -12Q233 -12 184 5T99 63T44 171T23 336V426Q23 482 36 539T72 654T127 768T195 877Q100 1113 100 1274V1403Q102 1515 154 1578T311 1642Q357 1642 392 1625T450 1577T486 1507T500 1419V1317Q498 1255 481 1199T438 1089T377 980T309 870ZM264 983Q292 1025 316 1066T360 1149T390 1233T401 1319V1415Q401 1474 376 1504T305 1534Q256 1534 229 1502T199 1405V1282Q200 1243 204 1209T215 1139T235 1066T264 983ZM244 764Q219 723 197 680T159 588T133 488T123 379Q123 290 135 234T169 144T222 99T293 86Q316 86 341 90T390 111T439 161T485 250Q407 402 347 529T244 764Z"/><glyph unicode="'" horiz-adv-x="283" d="M195 1634L188 1057H90L86 1634H195Z"/><glyph unicode="(" horiz-adv-x="322" d="M313 -143H209Q180 -75 149 22T93 235T51 482T35 748Q35 882 52 1014T96 1263T153 1476T209 1634H313Q286 1565 255 1464T199 1245T156 997T139 743Q139 617 154 490T195 247T251 31T313 -143Z"/><glyph unicode=")" horiz-adv-x="322" d="M297 748Q297 613 281 483T240 236T183 22T123 -143H18Q48 -70 79 30T135 247T177 490T193 743Q193 868 176 997T133 1244T77 1464T18 1634H123Q148 1572 178 1476T235 1263T279 1014T297 748Z"/><glyph unicode="*" horiz-adv-x="655" d="M362 1405L549 1497L582 1421L383 1327L539 1163L475 1106L326 1274L178 1106L115 1163L268 1327L70 1421L100 1497L287 1405L285 1636H365L362 1405Z"/><glyph unicode="+" horiz-adv-x="573" d="M549 764H334V520H240V764H25V854H240V1092H334V854H549V764Z"/><glyph unicode="," horiz-adv-x="352" d="M244 -4L156 -172L86 -160L152 -8L147 0H104V229H244V-4Z"/><glyph unicode="-" horiz-adv-x="471" d="M455 760H16V870H455V760Z"/><glyph unicode="." horiz-adv-x="352" d="M248 0H100V229H248V0Z"/><glyph unicode="/" horiz-adv-x="324" d="M336 1636L29 -328H-45L262 1636H336Z"/><glyph unicode="0" horiz-adv-x="621" d="M311 1645Q374 1645 420 1625T496 1570T542 1486T561 1378Q564 1316 565 1240T568 1086T569 939T569 819Q569 770 569 699T570 551T569 403T565 279Q560 201 541 147T490 57T412 6T309 -10Q251 -10 207 5T131 54T82 144T59 279Q57 302 56 341T54 427T53 528T52 634T51 734T51 819Q51 879 51 953T51 1103T53 1251T59 1378Q63 1438 80 1487T127 1571T203 1626T311 1645ZM465 827Q465 903 465 987T463 1148T460 1288T457 1384Q452 1459 415 1501T309 1544Q272 1544 246 1532T203 1499T176 1448T164 1382Q162 1358 161 1318T159 1226T158 1119T157 1008T156 905T156 821Q156 763 156 691T156 540T159 382T166 231Q171 163 208 125T311 86Q379 86 415 124T457 231Q461 295 462 373T464 531T465 688T465 827Z"/><glyph unicode="1" horiz-adv-x="434" d="M344 0H238V1452L29 1436V1518Q84 1527 125 1537T195 1560T243 1592T276 1636H344V0Z"/><glyph unicode="2" horiz-adv-x="586" d="M549 0H35V96Q60 180 99 263T182 432T270 606T351 788T412 980T438 1186Q438 1198 438 1225T439 1283T439 1339T438 1374Q436 1425 425 1458T395 1510T350 1536T293 1544Q263 1544 237 1536T192 1510T160 1461T145 1386V1167H43V1386Q44 1441 60 1488T108 1571T188 1625T301 1645Q367 1645 412 1626T485 1572T527 1490T543 1389Q544 1380 544 1350T544 1284T544 1218T543 1174Q541 1067 518 969T460 779T380 599T292 427T208 261T141 98H549V0Z"/><glyph unicode="3" horiz-adv-x="582" d="M338 881Q428 871 480 818T543 662Q547 620 549 560T551 439T550 322T545 231Q534 108 467 49T287 -10Q163 -10 101 41T31 195Q28 235 27 280T25 365T25 433T25 467H127Q127 462 127 434T129 366T131 285T135 209Q138 143 179 114T285 84Q353 84 394 123T438 240Q440 300 441 361T442 476T440 572T436 637Q432 673 421 704T389 759T336 798T258 819Q257 819 242 819T207 821Q185 822 158 823V924Q183 925 203 926Q220 927 234 927T250 928Q335 940 373 983T414 1108Q415 1154 417 1192T420 1266T421 1341T416 1425Q411 1485 378 1514T287 1544Q224 1544 191 1510T154 1413Q152 1393 152 1358T151 1287T150 1224T150 1192H49Q49 1196 49 1225T49 1291T50 1364T53 1419Q56 1470 73 1511T120 1582T192 1628T287 1645Q347 1645 389 1628T459 1581T501 1510T518 1421Q521 1376 521 1339T521 1266T518 1193T514 1110Q512 1065 500 1025T465 955T410 905T338 881Z"/><glyph unicode="4" horiz-adv-x="618" d="M610 414H483V0H383V414H20V528L358 1636H483V512H610V414ZM383 512V1403L115 512H383Z"/><glyph unicode="5" horiz-adv-x="588" d="M547 223Q544 171 527 128T478 55T399 7T291 -10Q233 -10 188 7T111 56T62 132T43 231Q42 256 42 274T41 313T41 359T41 426H145Q145 417 145 392T146 340T146 287T147 252Q151 164 186 125T291 86Q366 86 401 126T438 254Q438 272 438 312T439 404T440 514T440 627T438 728T436 803Q431 877 397 913T303 950Q283 950 261 943T219 918T183 874T160 807H59V1632H516V1532H156V954Q176 1002 222 1028T334 1055Q430 1055 484 997T545 836Q547 799 548 750T551 644T552 529T553 414T551 309T547 223Z"/><glyph unicode="6" horiz-adv-x="604" d="M551 205Q543 160 527 121T482 52T413 7T313 -10Q259 -10 216 2T141 42T92 118T68 236Q64 287 61 362T57 520T54 681T53 819Q53 856 53 904T53 1004T53 1108T54 1205T56 1286T59 1341Q64 1413 80 1469T125 1565T200 1624T307 1645Q368 1645 411 1629T483 1583T527 1516T547 1434Q549 1416 550 1392T551 1342T551 1296T551 1262H451Q451 1274 451 1291T451 1326T451 1359T449 1382Q446 1420 439 1450T416 1501T374 1533T307 1544Q230 1544 198 1496T160 1348Q159 1327 159 1288T158 1200T157 1099T156 1001T156 921T156 874Q166 902 185 924T231 960T289 981T356 989Q400 989 434 976T493 941T533 889T555 829Q558 793 560 739T562 624T563 498T561 377T557 274T551 205ZM451 225Q453 242 454 285T457 385T459 503T460 622T458 720T455 780Q453 801 445 821T423 856T385 881T330 891Q252 891 208 852T154 748Q154 723 155 680T157 585T159 479T162 376T165 292T168 242Q170 199 181 169T211 120T255 93T311 84Q341 84 365 91T407 114T436 158T451 225Z"/><glyph unicode="7" horiz-adv-x="514" d="M506 1542L197 0H84L406 1532H8V1634H506V1542Z"/><glyph unicode="8" horiz-adv-x="602" d="M553 217Q533 103 473 47T299 -10Q240 -10 196 6T120 53T70 124T47 217Q42 268 40 336T37 476T40 612T49 723Q53 761 68 790T102 841T141 875T178 893Q160 900 144 910T113 940T90 990T76 1067Q74 1098 71 1148T67 1253T68 1361T76 1450Q83 1493 99 1529T143 1590T209 1630T299 1645Q353 1645 394 1631T463 1592T507 1532T526 1454Q528 1420 529 1372T530 1270T527 1164T522 1069Q519 1027 510 997T487 946T457 913T422 893Q443 888 464 874T503 839T534 788T553 721Q556 698 558 657T561 565T562 460T561 358T558 272T553 217ZM424 1036Q427 1081 428 1137T430 1251T428 1358T422 1440Q416 1491 384 1519T301 1548Q242 1548 213 1518T176 1440Q171 1406 169 1355T166 1248T168 1135T176 1036Q181 990 216 964T299 938Q322 938 344 944T383 964T411 995T424 1036ZM449 209Q451 243 452 289T454 387T455 490T453 586T451 664T449 713Q446 744 434 768T401 810T355 835T299 844Q240 844 196 808T145 702Q143 684 143 650T141 573T140 482T140 387T142 300T145 231Q147 193 159 165T192 119T239 93T297 84Q328 84 354 91T401 115T433 154T449 209Z"/><glyph unicode="9" horiz-adv-x="608" d="M549 258Q540 122 477 55T299 -12Q248 -12 206 -1T132 34T83 96T61 188Q59 214 59 241T58 292T58 337T59 369H162V238Q164 153 198 121T297 88Q362 88 401 128T446 250Q447 270 448 310T449 401T450 505T451 606T451 688T451 735Q429 689 377 665T262 641Q222 641 186 652T122 685T75 741T53 821Q50 856 48 905T46 1010T45 1125T46 1241T50 1345T55 1427Q59 1472 77 1512T127 1581T202 1628T301 1645Q404 1645 467 1589T541 1430Q546 1371 549 1297T554 1146T556 994T557 862Q557 825 557 771T557 656T556 533T554 416T552 319T549 258ZM451 862Q451 887 451 928T451 1019T452 1123T451 1229T449 1324T444 1397Q438 1465 401 1504T299 1544Q236 1544 199 1507T156 1401Q155 1385 155 1344T154 1249T153 1133T153 1018T154 922T156 866Q159 801 190 770T285 739Q322 739 351 750T400 778T433 818T451 862Z"/><glyph unicode=":" horiz-adv-x="334" d="M244 799H106V1020H244V799ZM244 0H106V221H244V0Z"/><glyph unicode=";" horiz-adv-x="334" d="M244 799H106V1020H244V799ZM244 -4L154 -172L90 -156L154 -6L150 0H106V221H244V-4Z"/><glyph unicode="&lt;" horiz-adv-x="743" d="M690 604V500L43 745V846L690 1090V981L152 797L690 604Z"/><glyph unicode="=" horiz-adv-x="575" d="M545 883H33V979H545V883ZM545 635H33V733H545V635Z"/><glyph unicode="&gt;" horiz-adv-x="743" d="M45 498V602L573 795L45 981V1090L692 844V743L45 498Z"/><glyph unicode="?" horiz-adv-x="555" d="M512 1219Q509 1149 492 1091T449 977T396 861T344 727T306 560T293 342H203Q199 476 212 573T247 744T295 877T346 990T387 1106T406 1243Q407 1261 407 1282T407 1325T407 1365T406 1397Q404 1469 373 1508T268 1548Q203 1548 170 1511T131 1409Q130 1399 130 1376T129 1328T128 1280T127 1249H29Q29 1273 29 1300T31 1353T33 1400T35 1432Q41 1534 102 1588T279 1642Q394 1642 450 1587T512 1411Q513 1390 513 1364T514 1312T514 1262T512 1219ZM309 0H195V225H309V0Z"/><glyph unicode="@" horiz-adv-x="772" d="M590 291Q559 291 534 300T494 344Q484 323 469 309T435 288T398 277T362 274Q291 274 245 309T193 424Q191 443 190 474T189 541T189 610T193 668Q200 736 226 786T291 871T375 930T469 967V1266Q469 1301 448 1321T395 1341Q364 1341 341 1322T317 1260V989H225V1253Q225 1296 238 1329T275 1384T330 1418T397 1430Q473 1430 517 1385T561 1260Q561 1227 561 1185T561 1097T560 1002T560 909T559 826T559 760V446Q559 404 567 389T598 373Q618 373 627 385T639 434Q640 449 640 491T641 588T641 706T641 823Q641 853 641 902T641 1010T641 1130T641 1246T640 1341T639 1399Q638 1433 621 1461T574 1509T501 1540T406 1552Q347 1552 300 1540T220 1507T168 1458T143 1397Q140 1380 139 1339T137 1243T136 1126T135 1005T135 896T135 815Q135 783 135 733T135 624T135 506T136 392T138 297T143 238Q146 210 166 182T220 132T299 95T399 80Q441 80 488 87T569 117L625 41Q577 13 515 2T393 -10Q319 -10 257 9T150 66T78 157T49 279Q48 288 48 321T48 403T47 509T46 624T45 734T45 823Q45 860 45 914T45 1029T45 1150T46 1261T47 1345T49 1386Q58 1451 88 1499T165 1580T272 1629T403 1645Q474 1645 533 1632T636 1587T704 1507T729 1386Q729 1367 729 1329T729 1241T730 1134T730 1021T731 912T731 821Q731 756 731 706T731 614T731 533T729 453Q727 365 689 328T590 291ZM469 758V879Q388 853 347 797T295 637Q293 623 293 597T293 541T293 487T295 449Q300 395 323 378T377 360Q392 360 408 367T438 388T460 424T469 479V758Z"/><glyph unicode="A" horiz-adv-x="621" d="M168 401L106 0H2L262 1634H395L618 0H514L461 401H168ZM449 496Q421 694 398 853Q388 921 379 987T362 1108T349 1198T342 1243Q340 1253 339 1270T336 1309T333 1354T330 1401Q326 1456 324 1518Q320 1454 316 1399Q313 1351 310 1306T303 1241Q302 1233 296 1197T281 1106T261 986T239 852Q213 693 180 496H449Z"/><glyph unicode="B" horiz-adv-x="690" d="M600 123Q589 96 574 74T536 35T481 9T406 0H88V1634H377Q419 1634 451 1626T508 1603T548 1569T575 1528Q595 1486 602 1407T610 1231Q610 1199 609 1160T604 1082T598 1011T590 956Q572 858 500 836Q543 828 570 801T612 727Q620 705 624 670T631 596T634 516T635 444Q635 407 634 363T629 275T618 191T600 123ZM502 1217Q502 1351 483 1442Q474 1485 446 1510T375 1536H190V883H410Q420 883 432 888T454 903T472 925T483 952Q493 996 497 1067T502 1217ZM506 170Q513 188 517 224T523 302T525 384T526 451Q526 478 525 512T522 581T517 649T508 707Q499 747 474 764T418 782H190V98H401Q443 98 468 117T506 170Z"/><glyph unicode="C" horiz-adv-x="676" d="M639 520Q639 374 623 273T574 108T488 17T362 -12Q317 -12 278 -3T205 28T147 89T104 188Q91 235 82 296T68 436T60 612T57 829Q57 947 59 1043T66 1217T79 1355T102 1462Q117 1514 140 1549T193 1604T263 1633T350 1642Q436 1642 491 1614T579 1523T623 1359T635 1110H524Q524 1228 519 1309T495 1440T442 1512T348 1534Q309 1534 281 1522T232 1480T200 1399T180 1269T171 1081T168 827Q168 676 171 563T183 368T206 233T241 149T290 105T356 92Q404 92 437 109T492 172T522 302T532 520H639Z"/><glyph unicode="D" horiz-adv-x="676" d="M592 162Q582 129 566 100T523 48T455 13T352 0H88V1634H344Q450 1634 509 1591T594 1466Q616 1398 622 1245T629 850Q629 804 629 743T627 615T623 478T616 348T606 238T592 162ZM496 193Q500 210 503 253T509 356T514 484T517 620T519 748T520 852Q520 949 519 1035T515 1191T508 1315T498 1399Q485 1464 446 1499T350 1534H193V98H367Q425 98 455 125T496 193Z"/><glyph unicode="E" horiz-adv-x="586" d="M561 0H88V1634H557V1532H193V877H526V776H193V100H561V0Z"/><glyph unicode="F" horiz-adv-x="573" d="M563 1532H193V877H537V776H193V0H88V1634H563V1532Z"/><glyph unicode="G" horiz-adv-x="651" d="M606 0H532L514 76Q509 62 495 47T459 18T407 -3T340 -12Q243 -12 181 30T94 172Q82 222 75 295T63 455T58 635T57 819Q57 900 58 990T64 1163T73 1314T86 1423Q105 1526 168 1585T338 1645Q394 1645 435 1630T505 1588T551 1529T578 1458Q585 1425 589 1381T595 1292T599 1204T600 1133H496Q496 1154 495 1188T490 1261T483 1341T473 1413Q462 1476 428 1506T340 1536Q284 1536 247 1504T195 1403Q190 1379 186 1337T179 1243T174 1132T170 1016T167 906T166 815Q166 776 167 721T171 605T176 481T183 363T191 266T199 205Q213 145 246 112T340 78Q412 78 453 121T502 236Q503 248 504 289T505 386T505 501T505 613T505 699T504 735H301V836H606V379V0Z"/><glyph unicode="H" horiz-adv-x="705" d="M616 0H512V774H193V0H88V1634H193V877H512V1634H616V0Z"/><glyph unicode="I" horiz-adv-x="281" d="M195 0H88V1634H195V0Z"/><glyph unicode="J" horiz-adv-x="473" d="M395 254Q395 119 337 58T162 -4Q70 -4 12 8V109Q38 105 67 102T139 98Q181 98 210 108T256 139T281 189T289 256V1634H395V254Z"/><glyph unicode="K" horiz-adv-x="645" d="M649 0H532L252 793L193 678V0H88V1634H193V879L528 1634H639L326 922L649 0Z"/><glyph unicode="L" horiz-adv-x="565" d="M549 0H88V1634H195V102H549V0Z"/><glyph unicode="M" horiz-adv-x="897" d="M811 0H713V936L715 1288L494 0H391L182 1288L184 936V0H88V1634H223L446 260L678 1634H811V0Z"/><glyph unicode="N" horiz-adv-x="700" d="M614 0H498L184 1319V0H88V1634H209L516 328V1634H614V0Z"/><glyph unicode="O" horiz-adv-x="698" d="M350 1642Q420 1642 468 1624T550 1564T601 1459T629 1302T640 1089T643 813Q643 643 638 516T619 296T584 145T530 50T453 0T350 -14Q292 -14 248 -1T171 45T116 137T81 288T63 509T57 813Q57 1040 65 1198T102 1454T190 1597T350 1642ZM350 82Q410 82 446 114T502 228T528 451T535 813Q535 959 533 1070T525 1262T506 1396T474 1482T423 1527T350 1540Q310 1540 281 1528T232 1484T198 1399T178 1265T169 1073T166 813Q166 664 168 552T178 359T198 224T231 140T281 95T350 82Z"/><glyph unicode="P" horiz-adv-x="645" d="M604 1155Q604 1082 602 1024T594 921T578 842T553 784Q522 738 477 713T365 682Q352 681 324 681T267 680H193V0H88V1634H369Q440 1634 483 1608T555 1532Q577 1494 590 1399T604 1155ZM494 1153Q494 1283 484 1358T465 1460Q451 1494 416 1512T338 1530H193V782H334Q390 782 420 802T467 856Q479 885 486 956T494 1153Z"/><glyph unicode="Q" horiz-adv-x="698" d="M348 -14Q245 -14 178 42T90 221Q85 250 81 293T74 387T67 496T62 610T58 721T57 821Q57 888 57 959T59 1104T67 1252T86 1399Q106 1517 171 1579T348 1642Q463 1642 528 1582T614 1401Q626 1335 632 1263T640 1117T643 968T643 821Q643 745 642 662T636 498T625 347T608 225Q599 177 584 142T550 82T513 42T479 20Q490 9 505 -6T543 -39Q567 -61 589 -76T631 -98L565 -180Q540 -166 515 -148T457 -102Q442 -90 429 -77T404 -51T384 -27T371 -10Q366 -12 361 -13T348 -14ZM352 80Q416 80 453 119T504 217Q514 264 520 340T531 503T536 673T537 821Q537 875 537 947T536 1097T527 1253T508 1397Q494 1466 458 1503T350 1540Q282 1540 246 1503T197 1399Q184 1330 178 1258T169 1111T166 963T166 813Q166 774 167 722T170 612T174 495T181 382T189 285T199 215Q211 153 247 117T352 80Z"/><glyph unicode="R" horiz-adv-x="662" d="M590 1196Q590 1099 582 1029T559 926Q542 885 517 854T461 815L643 0H526L358 786L193 784V0H88V1634H360Q408 1634 444 1621T505 1583T547 1523T571 1444Q576 1418 579 1394T585 1340T589 1276T590 1196ZM479 1180Q479 1213 478 1250T475 1321T471 1380T467 1413Q458 1466 430 1498T354 1530H193V883H274Q305 883 332 883T367 885Q404 888 424 909T455 958Q460 973 464 1000T472 1058T477 1122T479 1180Z"/><glyph unicode="S" horiz-adv-x="629" d="M588 324Q588 235 570 171T516 66T430 6T315 -14Q191 -14 119 46T41 244Q40 263 40 288T39 340T38 389T37 428H141Q141 419 141 401T140 361T140 315T143 268Q147 211 160 176T195 120T246 93T313 86Q355 86 386 98T438 136T469 206T479 311Q479 385 471 441T445 548T397 646T324 754Q304 782 276 820T219 893Q175 947 141 999T84 1105T48 1216T35 1337Q35 1486 105 1565T309 1645Q373 1645 419 1627T496 1575T545 1490T569 1376Q570 1362 571 1340T573 1292T574 1241T575 1196H471Q471 1208 471 1229T470 1275T468 1324T465 1364Q457 1446 422 1493T307 1540Q222 1540 183 1491T143 1335Q143 1282 151 1238T179 1149T230 1058T309 954Q319 942 334 923T364 882T393 843T414 815Q454 762 486 709T541 598T576 472T588 324Z"/><glyph unicode="T" horiz-adv-x="565" d="M561 1532H336V0H229V1532H4V1634H561V1532Z"/><glyph unicode="U" horiz-adv-x="686" d="M606 258Q606 131 539 60T346 -12Q220 -12 147 56T74 260V1634H180V279Q180 178 221 133T344 88Q419 88 460 133T502 276V1634H606V258Z"/><glyph unicode="V" horiz-adv-x="641" d="M639 1634L383 0H254L0 1634H106L319 197L535 1634H639Z"/><glyph unicode="W" horiz-adv-x="983" d="M981 1634L776 0H651Q606 352 571 645Q556 770 542 894T517 1124T499 1307T492 1417Q491 1385 484 1308T466 1124T439 894T409 645Q373 352 328 0H201L0 1634H109Q153 1276 188 979Q198 894 208 810T226 646T243 495T256 365T265 265T268 203Q268 223 271 265T280 365T293 494T310 645T330 810T350 979Q386 1276 432 1634H549Q595 1275 631 978Q646 851 661 726T687 494T706 310T713 203Q713 233 720 310T738 493T765 725T796 978Q832 1275 879 1634H981Z"/><glyph unicode="X" horiz-adv-x="627" d="M313 690L111 0H2L264 864L27 1634H137L319 1018L508 1634H610L367 844L625 0H516L313 690Z"/><glyph unicode="Y" horiz-adv-x="659" d="M659 1634L381 594V0H266V588L2 1634H106Q168 1401 216 1212Q237 1131 256 1053T292 909T318 800T328 743Q328 756 337 801T363 911T399 1055T441 1214Q491 1402 555 1634H659Z"/><glyph unicode="Z" horiz-adv-x="563" d="M551 0H18V84L422 1532H41V1634H539V1561L133 100H551V0Z"/><glyph unicode="[" horiz-adv-x="340" d="M313 -334H59V1634H313V1538H160V-244H313V-334Z"/><glyph unicode="\" horiz-adv-x="324" d="M-4 1636H70L377 -328H303L-4 1636Z"/><glyph unicode="]" horiz-adv-x="344" d="M29 -334V-244H180V1540H29V1634H283V-334H29Z"/><glyph unicode="^" horiz-adv-x="715" d="M354 1550L100 1210L33 1274L297 1628H418L680 1274L612 1210L354 1550Z"/><glyph unicode="_" horiz-adv-x="516" d="M514 -223H0V-129H514V-223Z"/><glyph unicode="`" horiz-adv-x="539" d="M387 1198H283L145 1425H262L387 1198Z"/><glyph unicode="a" horiz-adv-x="541" d="M496 0H406Q405 0 403 9T400 32T397 60T397 86Q374 43 333 18T219 -8Q180 -8 147 2T90 33T51 87T35 166Q33 212 33 265T35 369Q36 421 49 465T88 544T154 604T250 643Q271 648 288 652T322 660T356 666T393 670Q393 692 393 731T392 808Q391 852 391 901Q391 943 386 971T368 1017T334 1042T279 1049Q240 1049 217 1032T181 976T164 876T160 727H66Q66 826 72 902T101 1031T167 1111T285 1139Q387 1139 438 1087T489 920Q489 907 489 869T489 777T489 658T488 525T488 392T487 274T487 183T487 133Q487 113 488 93T490 55T492 23T496 0ZM393 580Q375 580 347 575T285 561Q248 550 220 538T174 504T145 445T133 348Q133 333 133 311T134 264T134 216T135 176Q137 128 166 104T244 80Q268 80 290 86T331 107T364 144T385 199Q389 220 390 248T392 310T392 379T393 449V580Z"/><glyph unicode="b" horiz-adv-x="573" d="M328 1139Q394 1139 439 1104T502 995Q509 965 514 923T522 828T526 714T528 586Q528 494 528 424T524 299T514 199T492 117Q478 82 460 59T419 21T370 2T315 -4Q264 -4 222 17T162 78L147 0H66V1636H162V1036Q174 1080 218 1109T328 1139ZM299 1042Q233 1042 201 1003T166 903Q164 861 163 822T162 744T162 663T162 573Q162 475 162 416T163 319T165 259T168 209Q173 152 205 118T287 84Q335 84 359 101T397 145Q407 166 413 198T423 280T428 404T430 580Q430 630 429 682T425 784T418 878T408 954Q400 993 374 1017T299 1042Z"/><glyph unicode="c" horiz-adv-x="535" d="M494 743H397Q397 756 397 778T395 826T393 876T389 920Q381 983 357 1013T281 1044Q254 1044 235 1038T204 1017T183 978T168 918Q163 887 159 843T151 749T147 651T145 563Q145 528 145 477T147 372T152 268T162 186Q173 128 200 105T276 82Q326 82 352 112T387 188Q390 206 392 233T395 287T398 337T399 373H494Q494 358 494 333T491 279T485 216T475 152Q460 74 410 32T274 -10Q238 -10 208 -4T152 18T108 63T76 137Q63 179 54 282T45 563Q45 644 47 705T53 814T62 898T74 965Q89 1048 138 1093T274 1139Q364 1139 414 1095T479 975Q484 949 487 913T491 842T493 780T494 743Z"/><glyph unicode="d" horiz-adv-x="565" d="M258 1135Q312 1135 352 1114T410 1051V1634H508V109Q508 91 508 72T511 36Q512 18 514 0H428L412 76Q398 41 360 17T252 -8Q190 -8 144 23T80 127Q72 159 66 204T56 304T49 420T47 547Q47 617 49 682T54 804T64 908T78 991Q95 1063 142 1099T258 1135ZM279 1038Q234 1038 207 1017T168 942Q163 918 159 873T151 773T147 659T145 547Q145 496 146 439T149 330T156 233T168 162Q179 120 205 98T281 76Q305 76 326 85T364 112T391 151T403 199Q406 248 407 290T409 372T410 454T410 545Q410 642 410 707T409 816T407 891T403 950Q391 992 360 1015T279 1038Z"/><glyph unicode="e" horiz-adv-x="535" d="M500 330Q500 321 499 299T496 250T489 192T477 137Q459 66 411 28T279 -10Q247 -10 215 -4T153 19T103 62T72 131Q63 173 58 224T49 330T46 441T45 549Q45 630 47 700T53 826T61 922T72 983Q90 1055 143 1097T279 1139Q320 1139 354 1128T413 1098T455 1054T479 999Q485 975 490 941T498 852T502 716T502 514H143Q143 443 143 392T146 301T152 229T164 162Q173 120 204 99T274 78Q324 78 351 96T389 156Q396 181 400 208T405 260T407 303T408 330H500ZM406 602Q406 615 406 642T405 703T403 777T399 852T393 919T385 967Q373 1010 347 1029T276 1049Q238 1049 206 1028T162 967Q148 919 146 830T143 602H406Z"/><glyph unicode="f" horiz-adv-x="356" d="M352 1034H211V0H111V1034H10V1126H111V1448Q111 1541 152 1593T272 1645Q310 1645 331 1642T369 1636V1546Q353 1548 332 1549T291 1550Q251 1550 231 1524T211 1458V1126H352V1034Z"/><glyph unicode="g" horiz-adv-x="545" d="M264 1143Q330 1143 368 1125T426 1085Q451 1108 487 1120T567 1130V1049Q564 1049 547 1049T511 1047T475 1044T455 1038Q462 1026 468 1006T478 963T484 915T487 868Q487 858 487 835T488 782T488 719T487 655T486 597T485 555Q482 446 428 388T266 330Q228 330 198 338T152 358Q102 347 102 297Q102 278 111 264T143 240T202 222T295 207Q369 198 419 178T500 127T544 54T557 -41Q557 -159 486 -215T274 -272Q208 -272 157 -260T71 -221T18 -152T0 -51Q0 -8 11 25T39 82T78 123T121 150Q65 164 42 199T18 279Q18 324 41 354T96 399Q85 408 77 423T63 459T52 504T45 553Q43 569 42 598T41 662T40 737T40 813T41 880T43 928Q45 971 58 1010T99 1079T166 1125T264 1143ZM266 1053Q204 1053 175 1019T141 915Q140 901 140 874T139 811T138 738T138 663T139 598T141 551Q142 520 149 495T171 452T209 424T264 414Q298 414 321 423T358 451T380 494T389 551Q404 739 389 918Q383 984 356 1018T266 1053ZM272 -188Q467 -188 467 -43Q467 -7 458 20T427 66T370 97T283 115Q251 118 231 121T199 127Q177 115 157 100T122 65T97 20T88 -39Q88 -111 132 -149T272 -188Z"/><glyph unicode="h" horiz-adv-x="553" d="M498 0H399Q398 0 398 6T398 40T397 126T397 288T397 550T397 936Q397 982 375 1011T291 1040Q265 1040 242 1031T201 1001T174 951T164 877V0H66V1636H164V1032Q178 1085 222 1112T326 1139Q411 1139 453 1093T496 961Q496 726 496 564T496 295T496 129T496 41T497 6T498 0Z"/><glyph unicode="i" horiz-adv-x="240" d="M174 1206H66V1376H174V1206ZM176 0H78Q75 0 73 19T70 68V1126H170V70Q170 36 172 18T176 0Z"/><glyph unicode="j" horiz-adv-x="242" d="M176 1206H68V1376H176V1206ZM172 -178Q172 -223 160 -255T126 -307T73 -337T4 -346Q-10 -346 -31 -345T-61 -340V-250Q-52 -252 -40 -252T-14 -252Q28 -252 51 -233T74 -162V1126H172V-178Z"/><glyph unicode="k" horiz-adv-x="520" d="M518 0H414L240 596L164 457V0H66V1636H164V627L408 1126H508L309 707L518 0Z"/><glyph unicode="l" horiz-adv-x="225" d="M168 0H72Q69 5 68 21T66 59V1542Q66 1554 66 1569T65 1599T64 1624T63 1638H162Q162 1635 163 1615T164 1571V90Q164 50 165 28T168 0Z"/><glyph unicode="m" horiz-adv-x="836" d="M680 0Q679 0 679 5T679 36T678 120T678 280T678 543T678 934Q678 953 675 972T661 1007T632 1032T586 1042Q558 1042 537 1031T501 1000T479 958T471 909V0H377Q376 0 376 5T376 38T375 123T375 285T375 550T375 942Q375 987 354 1014T281 1042Q254 1042 233 1030T196 997T172 950T164 895V0H66V1126H160V1026Q172 1080 215 1109T317 1139Q371 1139 407 1113T457 1032Q464 1061 479 1081T515 1114T560 1133T612 1139Q657 1139 687 1125T736 1086T763 1028T772 956Q772 778 772 642T772 406T772 236T772 122T772 52T773 16T773 2T774 0H680Z"/><glyph unicode="n" horiz-adv-x="553" d="M496 0H399Q398 0 398 32T397 118T396 244T396 394T395 554T395 707T395 840T395 938Q395 988 370 1014T293 1040Q267 1040 244 1032T203 1005T175 956T164 883V0H66V1126H162V1026Q169 1059 186 1081T227 1115T277 1133T330 1139Q414 1139 455 1088T496 954Q496 914 496 852T496 716T496 559T497 398T497 246T497 120T497 33T496 0Z"/><glyph unicode="o" horiz-adv-x="567" d="M520 561Q520 507 519 451T513 341T503 241T487 158Q467 77 418 34T283 -10Q245 -10 211 -1T149 28T102 76T74 145Q67 177 62 225T53 330T47 446T45 561Q45 621 45 674T49 776T58 873T76 969Q94 1046 145 1092T285 1139Q374 1139 425 1097T494 971Q511 889 515 786T520 561ZM422 561Q422 618 421 676T418 785T411 877T401 942Q389 998 361 1023T283 1049Q235 1049 207 1021T166 938Q160 910 156 870T149 780T145 675T143 561Q143 513 144 456T147 346T153 247T164 176Q176 125 206 102T281 78Q327 78 356 103T397 180Q403 207 407 252T415 351T420 460T422 561Z"/><glyph unicode="p" horiz-adv-x="573" d="M528 586Q528 502 527 435T522 314T514 218T500 141Q489 98 470 70T425 26T370 3T311 -4Q257 -4 218 17T164 70V-334H66V1126H160V1016Q167 1048 183 1071T221 1110T272 1132T330 1139Q396 1139 442 1101T504 997Q511 965 516 921T523 823T527 710T528 586ZM428 578Q428 629 428 682T425 786T419 881T408 958Q400 997 373 1019T299 1042Q273 1042 253 1034T217 1010T193 976T180 934Q168 854 166 769T164 578Q164 476 164 410T165 301T169 230T176 176Q184 136 212 109T291 82Q385 82 408 182Q413 208 417 253T423 353T427 466T428 578Z"/><glyph unicode="q" horiz-adv-x="563" d="M508 -334H414L408 -326V78Q391 43 354 18T254 -8Q182 -8 136 26T74 139Q66 174 61 214T53 304T49 414T47 551Q47 626 47 684T51 791T59 881T74 963Q84 1008 103 1041T147 1095T203 1126T266 1137Q317 1137 354 1120T412 1057V1130H504V-160Q504 -218 504 -252T504 -303T505 -327T508 -334ZM410 578Q410 636 409 693T407 798T403 881T397 932Q388 984 361 1013T283 1042Q233 1042 208 1013T168 918Q154 848 150 765T145 569Q145 511 146 455T149 347T155 253T164 178Q173 126 200 102T276 78Q323 78 352 107T393 186Q409 258 409 357T410 578Z"/><glyph unicode="r" horiz-adv-x="406" d="M401 1133V1026Q387 1031 363 1033T311 1036Q245 1036 206 977T166 815V0H66V1126H164V1016Q173 1076 218 1107T324 1139Q380 1139 401 1133Z"/><glyph unicode="s" horiz-adv-x="510" d="M479 272Q479 193 462 139T414 51T343 3T254 -12Q207 -12 168 -1T99 33T53 93T33 182Q31 214 31 254T31 332H127Q127 326 127 312T126 279T125 237T127 193Q130 136 160 106T252 76Q284 76 309 85T351 115T376 171T385 260Q385 305 379 339T358 401T323 454T272 508Q259 521 248 531T226 550T204 568T178 590Q143 622 117 652T73 718T48 796T39 897Q39 952 53 997T94 1074T162 1123T256 1141Q351 1141 398 1096T457 975Q458 963 458 935T459 877T459 821T459 786H365Q365 791 365 815T365 866T364 918T362 948Q360 970 355 989T337 1022T306 1043T256 1051Q194 1051 165 1012T135 899Q135 854 140 821T159 761T192 709T242 659Q256 647 267 638T289 619T311 601T336 578Q370 544 397 514T442 449T469 372T479 272Z"/><glyph unicode="t" horiz-adv-x="348" d="M336 1034H190V182Q190 151 195 133T211 106T236 93T268 90Q285 90 303 90T334 92V2Q290 -4 231 -4Q203 -4 178 3T133 29T102 77T90 154V1034H2V1126H86Q87 1127 88 1153T91 1210Q93 1246 94 1292L190 1300V1126H336V1034Z"/><glyph unicode="u" horiz-adv-x="559" d="M498 0H403L399 70Q384 29 341 11T240 -8Q201 -8 169 2T113 34T76 90T63 174Q63 277 63 388T63 605T63 805T63 971T62 1084T61 1126H162V186Q162 131 189 106T268 80Q330 80 362 118T395 231V1126H494V139Q494 115 494 93T495 52T496 20T498 0Z"/><glyph unicode="v" horiz-adv-x="526" d="M522 1126L326 0H203L4 1126H109L266 156L422 1126H522Z"/><glyph unicode="w" horiz-adv-x="850" d="M850 1126L670 0H557Q525 191 499 355Q488 425 478 495T458 626T443 736T436 809Q434 829 433 855T431 905Q430 932 430 961Q428 931 426 903Q424 879 423 853T420 809Q418 784 412 736T397 627T378 495T356 355Q330 191 299 0H186L4 1126H106L248 182L371 1126H483L616 182L745 1126H850Z"/><glyph unicode="x" horiz-adv-x="504" d="M254 715L397 1126H496L303 588L500 0H397L248 453L102 0H2L201 584L14 1126H115L254 715Z"/><glyph unicode="y" horiz-adv-x="522" d="M520 1126L231 -334H131L209 63L4 1126H106Q145 913 178 736Q192 661 205 586T230 446T250 335T262 268Q265 287 273 334T293 446T318 585T346 736Q379 913 418 1126H520Z"/><glyph unicode="z" horiz-adv-x="455" d="M436 0H18V94L332 1034H27V1126H430V1024L121 90H436V0Z"/><glyph unicode="{" horiz-adv-x="500" d="M465 -330H362Q302 -330 265 -309T206 -251T176 -168T168 -70Q168 -12 173 54T185 190T197 331T203 471Q203 516 196 557T171 630T122 681T43 700V795Q92 795 123 813T172 863T196 935T203 1020Q203 1061 198 1104T186 1195T174 1292T168 1399Q168 1441 176 1482T206 1557T265 1611T360 1632H465V1538Q409 1540 371 1534T309 1508T275 1456T266 1370Q266 1344 272 1299T285 1203T299 1102T305 1014Q305 971 300 926T278 843T234 779T160 748Q206 744 234 718T278 652T299 567T305 477Q305 410 299 344T286 210T273 68T266 -86Q266 -131 276 -161T309 -208T370 -232T465 -236V-330Z"/><glyph unicode="|" horiz-adv-x="305" d="M197 -410H106V1638H197V-410Z"/><glyph unicode="}" horiz-adv-x="500" d="M31 -330V-236Q87 -238 124 -232T185 -209T217 -161T227 -86Q226 -5 220 68T208 209T196 344T190 477Q190 521 195 567T216 652T260 717T336 748Q290 753 262 779T217 843T196 926T190 1014Q190 1051 196 1101T208 1203T221 1299T227 1370Q228 1422 219 1455T186 1508T125 1533T31 1538V1632H135Q193 1632 230 1612T289 1558T319 1483T328 1399Q328 1343 322 1293T310 1195T297 1105T291 1020Q291 976 298 936T323 864T372 814T453 795V700Q404 700 373 681T324 631T300 558T293 471Q293 403 298 332T310 190T322 54T328 -70Q328 -121 320 -168T291 -251T231 -308T133 -330H31Z"/><glyph unicode="~" horiz-adv-x="543" d="M254 766Q242 782 232 795T212 819T189 834T160 840Q139 840 125 829T102 799T89 757T82 709L2 731Q14 825 54 879T160 934Q203 934 234 911T297 842Q316 816 336 795T387 774Q422 774 442 809T469 901L543 877Q538 835 527 800T497 739T451 699T389 684Q349 684 319 702T254 766Z"/><glyph unicode=" " horiz-adv-x="145"/><glyph unicode="¡" horiz-adv-x="307" d="M96 1634H211V1409H96V1634ZM100 -4L111 1292H199L209 -4H100Z"/><glyph unicode="¢" horiz-adv-x="549" d="M326 319Q402 339 420 438Q422 449 424 472T427 522T429 571T430 604H520Q520 592 520 569T519 519T514 463T506 412Q487 330 443 288T326 240V86H254V240Q220 245 192 256T142 292T104 355T78 455T62 599T57 797Q57 946 66 1049T98 1218T159 1316T254 1356V1499H326V1356Q407 1348 449 1300T506 1178Q510 1156 512 1125T516 1064T519 1009T520 977H428Q428 989 428 1005T426 1041T422 1081T418 1122Q406 1246 326 1266V319ZM254 1264Q222 1260 203 1225T173 1128T158 982T154 797Q154 684 158 598T172 452T202 361T254 324V1264Z"/><glyph unicode="£" horiz-adv-x="575" d="M164 772Q129 878 102 992T68 1223Q67 1242 67 1268T66 1321T65 1372T68 1413Q72 1463 86 1505T128 1579T198 1627T299 1645Q363 1645 406 1627T476 1577T515 1500T530 1405V1069H432V1403Q429 1480 397 1514T301 1548Q233 1548 206 1511T174 1403Q172 1376 172 1355T172 1315T172 1274T174 1225Q175 1157 184 1098T206 984T236 877T268 772H492V682H291Q306 628 314 579T322 485Q322 400 306 334T263 218T205 137T141 90H547V0H39V100Q79 124 112 162T169 249T207 357T223 485Q225 524 214 576T186 682H61V772H164Z"/><glyph unicode="¥" horiz-adv-x="664" d="M268 422H43V500H268V596L2 1634H111Q170 1401 217 1212Q237 1131 256 1052T290 907T314 795T324 735Q324 750 333 796T359 908T395 1053T437 1214Q487 1403 551 1634H664L379 600V500H608V422H379V332H608V254H379V0H268V254H43V332H268V422Z"/><glyph unicode="¦" horiz-adv-x="305" d="M197 733H106V1638H197V733ZM197 -410H106V455H197V-410Z"/><glyph unicode="§" horiz-adv-x="506" d="M182 1083Q123 1117 89 1178T53 1307Q52 1313 52 1333T52 1375T52 1418T53 1446Q56 1539 105 1590T250 1642Q341 1642 392 1595T449 1442V1296H367Q367 1297 367 1316T366 1360T366 1407T365 1438Q363 1493 339 1528T254 1563Q192 1563 165 1533T135 1434V1309Q137 1253 163 1215T233 1147Q240 1142 255 1132T289 1110T325 1085T358 1063Q388 1043 413 1021T458 971T487 911T498 838Q498 738 460 678T334 586Q403 549 437 484T475 344V188Q472 86 422 33T266 -20Q165 -20 108 28T45 186V332H137V190Q138 160 145 137T168 96T207 70T266 61Q332 61 359 93T389 199V342Q386 407 359 448T274 524Q266 529 251 538T217 560T178 584T141 606Q120 620 98 641T59 689T31 748T20 817Q20 872 32 916T67 993T118 1048T182 1083ZM274 623Q291 623 314 635T360 672T397 736T412 831Q412 873 399 900T363 949T308 991T238 1038Q220 1037 197 1024T152 987T117 927T102 848Q102 795 119 759T163 698T220 656T274 623Z"/><glyph unicode="¨" horiz-adv-x="539" d="M428 1198H326V1370H428V1198ZM211 1198H111V1370H211V1198Z"/><glyph unicode="©" horiz-adv-x="784" d="M745 1001Q744 894 720 817T649 689T539 615T393 590Q313 590 248 614T136 689T64 817T37 1001Q37 1021 37 1049T36 1111T36 1182T37 1257Q38 1361 65 1433T139 1551T251 1617T391 1638Q465 1638 529 1618T640 1553T715 1435T745 1255V1001ZM692 1030V1268Q690 1352 668 1412T605 1510T511 1565T391 1583Q327 1583 273 1566T178 1511T114 1414T90 1270V1030Q91 923 113 849T176 730T271 664T391 643Q462 643 517 662T611 727T670 846T692 1030ZM547 1018Q547 1009 547 991T546 955T546 919T545 895Q537 827 496 793T389 758Q318 758 278 794T233 895Q228 945 228 988T227 1083Q227 1110 227 1140T229 1199T231 1249T233 1284Q237 1322 251 1349T287 1393T337 1417T397 1425Q465 1425 502 1388T545 1280Q547 1260 547 1230T547 1167H475Q475 1182 475 1198T475 1231T475 1262T473 1288Q467 1356 395 1356Q355 1356 332 1336T303 1272Q302 1260 302 1237T301 1186T300 1131T299 1083Q299 1063 299 1039T300 991T301 948T303 920Q306 864 328 843T393 821Q430 821 452 840T477 913Q479 947 479 977T479 1018H547Z"/><glyph unicode="ª" horiz-adv-x="537" d="M496 600H408Q407 600 406 609T402 632T399 660T399 686Q376 643 334 618T219 592Q180 592 147 602T89 633T50 687T35 766V922Q37 1027 87 1091T250 1184Q291 1194 323 1200T395 1210Q395 1225 395 1255T394 1320T394 1387T393 1440Q391 1499 365 1526T281 1554Q230 1554 205 1534T170 1480T160 1400T160 1303H66Q66 1383 72 1445T102 1551T171 1617T295 1640Q397 1640 442 1592T489 1450Q490 1408 490 1353T489 1241T488 1131T487 1038Q486 994 486 950T486 866T486 792T487 733Q487 713 488 693T490 655T492 623T496 600ZM504 457H37V535H504V457ZM395 1124Q377 1124 348 1120T285 1106Q272 1102 257 1098T226 1089T196 1075T172 1057Q146 1028 138 992T129 901Q129 872 130 839T131 776Q133 727 164 702T244 676Q292 676 332 705T387 799Q391 820 392 840T394 884T394 935T395 997V1124Z"/><glyph unicode="«" horiz-adv-x="592" d="M555 283L291 680V750L555 1147V981L379 715L555 451V283ZM303 283L39 680V750L303 1147V981L125 715L303 451V283Z"/><glyph unicode="¬" horiz-adv-x="1536" d="M1116 352V728H212V920H1296V352H1116Z"/><glyph unicode="­" horiz-adv-x="471" d="M455 760H16V870H455V760Z"/><glyph unicode="®" horiz-adv-x="784" d="M745 1001Q744 894 720 817T649 689T539 615T393 590Q313 590 248 614T136 689T64 817T37 1001Q37 1021 37 1049T36 1111T36 1182T37 1257Q38 1361 65 1433T139 1551T251 1617T391 1638Q465 1638 529 1618T640 1553T715 1435T745 1255V1001ZM692 1030V1268Q690 1352 668 1412T605 1510T511 1565T391 1583Q327 1583 273 1566T178 1511T114 1414T90 1270V1030Q91 924 114 851T177 731T271 664T391 643Q461 643 516 663T611 729T670 848T692 1030ZM561 778H485L395 1055H305V778H227V1401H383Q433 1401 467 1386T523 1347T553 1292T563 1229Q563 1158 536 1119T469 1065L561 778ZM483 1235Q483 1284 454 1307T360 1331H305V1116H365Q430 1116 456 1145T483 1235Z"/><glyph unicode="¯" horiz-adv-x="539" d="M442 1225H94V1309H442V1225Z"/><glyph unicode="°" horiz-adv-x="381" d="M193 1528Q228 1528 258 1515T311 1478T347 1423T360 1356Q360 1321 347 1290T312 1235T259 1198T193 1184Q157 1184 127 1197T74 1234T38 1289T25 1356Q25 1391 38 1422T73 1477T126 1514T193 1528ZM193 1450Q173 1450 156 1443T125 1422T105 1392T98 1356Q98 1316 125 1289T193 1262Q233 1262 260 1289T287 1356Q287 1375 280 1392T260 1422T230 1442T193 1450Z"/><glyph unicode="±" horiz-adv-x="1536" d="M672 352V764H200V936H672V1352H864V936H1340V764H864V352H672ZM204 24V216H1336V24H204Z"/><glyph unicode="²" horiz-adv-x="508" d="M442 795H61V858Q77 919 105 969T166 1062T232 1145T293 1224T338 1307T356 1401V1450Q356 1519 330 1544T250 1569Q205 1569 184 1546T154 1466Q152 1448 151 1420T150 1364H68Q68 1384 69 1410T72 1460Q81 1548 124 1595T262 1642Q310 1642 344 1630T399 1594T429 1538T440 1466V1384Q439 1334 423 1292T380 1209T322 1131T258 1051T200 964T156 864H442V795Z"/><glyph unicode="³" horiz-adv-x="502" d="M270 1208Q329 1207 365 1195T421 1164T449 1120T459 1071Q461 1045 460 1017T457 958Q453 905 437 871T395 816T334 787T256 778Q214 778 179 787T119 815T79 863T63 932Q62 949 62 968T60 1004Q59 1022 59 1040H141Q141 1039 141 1029T142 1002T142 965T143 926Q145 882 174 865T260 848Q293 848 314 855T347 875T365 907T371 950V1053Q370 1077 365 1097T346 1131T306 1155T236 1167Q234 1167 223 1167T197 1168Q180 1168 160 1169V1241L194 1243Q207 1244 217 1244T229 1245Q267 1252 291 1260T330 1285T351 1326T358 1391V1491Q355 1571 260 1571Q163 1571 160 1495Q159 1477 159 1458T159 1423T159 1396T160 1384H78Q78 1385 78 1396T78 1423T78 1457T80 1491Q82 1562 127 1602T260 1642Q314 1642 348 1630T402 1597T429 1548T438 1487V1393Q438 1345 431 1313T406 1259T355 1226T270 1208Z"/><glyph unicode="´" horiz-adv-x="539" d="M178 1198L301 1425H416L276 1198H178Z"/><glyph unicode="µ" horiz-adv-x="1408" d="M252 -424Q196 -424 168 -392T140 -280Q140 -200 144 -106T156 100Q164 200 168 256T172 328Q176 348 176 356V1176H368V320Q368 228 450 176T628 124Q760 124 858 190T1008 380V1176H1200V308L1220 0H1056L1020 176Q952 68 836 14T572 -40Q520 -40 444 -14T324 60Q324 -28 352 -112T380 -264Q380 -424 252 -424Z"/><glyph unicode="¶" horiz-adv-x="537" d="M496 1636V-207H436V1552H389V-207H324V547Q307 519 276 501T199 483Q52 483 37 645Q33 679 31 719T27 809T24 918T23 1051Q23 1126 23 1180T25 1272T27 1338T31 1387T35 1429T41 1475Q50 1556 93 1598T205 1640Q243 1640 277 1625T328 1577L358 1636H496ZM326 1077V1446Q326 1471 319 1490T299 1521T270 1540T238 1546Q193 1546 171 1519T141 1421Q137 1379 135 1328T131 1228T128 1135T127 1065Q127 1045 127 1013T127 942T129 862T131 782T134 712T139 659Q144 616 170 594T233 571Q275 571 298 599T324 674Q325 684 325 725T326 823T326 948T326 1077Z"/><glyph unicode="·" horiz-adv-x="352" d="M250 684H100V915H250V684Z"/><glyph unicode="¸" horiz-adv-x="539" d="M164 -242Q212 -242 243 -238T293 -224T320 -202T328 -170Q328 -145 298 -131T223 -117V2H299V-53Q318 -57 339 -66T379 -89T408 -123T420 -168Q420 -205 407 -233T363 -279T283 -307T164 -317V-242Z"/><glyph unicode="¹" horiz-adv-x="446" d="M283 795H199V1485L23 1466V1528Q57 1529 89 1537T150 1560T198 1593T229 1636H283V795Z"/><glyph unicode="º" horiz-adv-x="543" d="M498 1124Q498 973 488 871T453 707T383 619T270 592Q208 592 165 613T94 693T55 856T43 1124Q43 1244 49 1340T78 1503T147 1606T272 1642Q338 1642 382 1619T451 1536T487 1377T498 1124ZM518 453H35V535H518V453ZM401 1122Q401 1213 398 1293T381 1432T342 1525T270 1559Q230 1559 205 1536T165 1461T145 1326T139 1122Q139 991 143 904T162 766T201 693T270 672Q291 672 309 677T341 697T367 743T385 823T397 946T401 1122Z"/><glyph unicode="»" horiz-adv-x="592" d="M291 287V455L465 719L291 987V1151L555 756V684L291 287ZM37 287V455L211 719L37 987V1151L301 756V684L37 287Z"/><glyph unicode="¼" horiz-adv-x="911" d="M274 795H193V1485L14 1466V1528Q48 1529 81 1537T142 1560T191 1593T223 1636H274V795ZM692 1634Q650 1487 608 1339Q590 1276 571 1207T531 1067T492 927T455 797Q439 740 421 675T385 544T348 411T312 284Q272 142 233 0H162Q205 151 248 304Q266 369 286 440T327 585T368 729T406 864Q421 920 439 983T475 1110T511 1239T546 1361Q585 1497 623 1634H692ZM874 258H782V0H702V260H430V330L682 840H782V330H874V258ZM702 330V731L508 330H702Z"/><glyph unicode="½" horiz-adv-x="903" d="M272 795H190V1485L12 1466V1528Q46 1529 79 1537T139 1560T188 1593T219 1636H272V795ZM657 1634Q616 1487 575 1339Q557 1276 538 1207T499 1067T460 927T422 797Q406 740 388 675T351 544T314 411T279 284Q239 142 201 0H129Q172 151 215 304Q233 369 253 440T294 585T334 729T373 864Q389 920 406 983T442 1110T478 1239T512 1361Q550 1497 588 1634H657ZM864 0H483V63Q499 124 527 174T588 267T654 350T715 429T760 512T778 606V655Q778 690 772 713T752 749T718 768T670 774Q625 774 604 752T575 672Q573 653 572 625T571 569H487Q487 589 487 616T492 666Q501 754 545 801T684 848Q732 848 765 835T819 799T849 744T860 672V590Q860 540 844 497T801 414T743 335T679 255T621 169T578 70H864V0Z"/><glyph unicode="¾" horiz-adv-x="961" d="M229 1208Q289 1207 325 1195T381 1164T407 1120T416 1071Q419 1019 416 958Q414 905 398 871T356 816T295 787T217 778Q175 778 140 787T80 815T39 863T23 932Q21 949 21 968T19 1004Q18 1022 18 1040H102V926Q104 882 133 865T219 848Q251 848 272 855T307 875T325 907T332 950V1053Q331 1077 326 1097T307 1131T266 1155T195 1167Q194 1167 183 1167T157 1168Q141 1168 121 1169V1241L155 1243Q168 1244 178 1244T190 1245Q227 1252 251 1260T289 1285T309 1326T315 1391Q315 1412 315 1426T316 1451T316 1471T315 1491Q313 1533 290 1552T219 1571Q124 1571 121 1495Q120 1477 120 1458T120 1423T120 1396T121 1384H37Q37 1385 37 1396T38 1423T39 1457T41 1491Q43 1562 88 1602T221 1642Q275 1642 309 1630T363 1597T390 1548T399 1487V1393Q398 1345 391 1313T365 1259T314 1226T229 1208ZM768 1634Q727 1487 685 1339Q667 1276 647 1207T607 1067T568 927T530 797Q514 740 496 675T459 544T422 411T387 284Q347 142 309 0H238Q281 151 324 304Q342 369 362 440T403 585T443 729T481 864Q497 920 514 983T550 1110T586 1239T620 1361Q658 1497 696 1634H768ZM942 258H850V0H770V260H498V330L750 840H850V330H942V258ZM770 330V731L575 330H770Z"/><glyph unicode="¿" horiz-adv-x="555" d="M248 1634H360V1407H248V1634ZM45 416Q47 486 65 543T108 657T161 773T212 907T250 1074T262 1292H352Q355 1192 348 1113T328 969T296 854T259 757T221 671T186 587T161 497T150 391Q149 373 149 352T148 309T148 270T150 238Q153 165 183 126T287 86Q353 86 388 123T426 225Q427 235 427 258T428 306T428 354T428 385H528Q528 360 528 333T526 280T524 234T522 203Q516 101 455 47T279 -8Q163 -8 106 47T43 223Q41 244 41 270T41 322T43 373T45 416Z"/><glyph unicode="À" horiz-adv-x="621" d="M168 401L106 0H2L262 1634H395L618 0H514L461 401H168ZM449 496Q421 694 398 853Q388 921 379 987T362 1108T349 1198T342 1243Q340 1253 339 1270T336 1309T333 1354T330 1401Q326 1456 324 1518Q320 1454 316 1399Q313 1351 310 1306T303 1241Q302 1233 296 1197T281 1106T261 986T239 852Q213 693 180 496H449ZM397 1708H293L156 1935H272L397 1708Z"/><glyph unicode="Á" horiz-adv-x="621" d="M168 401L106 0H2L262 1634H395L618 0H514L461 401H168ZM449 496Q421 694 398 853Q388 921 379 987T362 1108T349 1198T342 1243Q340 1253 339 1270T336 1309T333 1354T330 1401Q326 1456 324 1518Q320 1454 316 1399Q313 1351 310 1306T303 1241Q302 1233 296 1197T281 1106T261 986T239 852Q213 693 180 496H449ZM264 1708L387 1935H502L362 1708H264Z"/><glyph unicode="Â" horiz-adv-x="621" d="M168 401L106 0H2L262 1634H395L618 0H514L461 401H168ZM449 496Q421 694 398 853Q388 921 379 987T362 1108T349 1198T342 1243Q340 1253 339 1270T336 1309T333 1354T330 1401Q326 1456 324 1518Q320 1454 316 1399Q313 1351 310 1306T303 1241Q302 1233 296 1197T281 1106T261 986T239 852Q213 693 180 496H449ZM508 1708H414L322 1864L229 1708H137L258 1939H387L508 1708Z"/><glyph unicode="Ã" horiz-adv-x="621" d="M168 401L106 0H2L262 1634H395L618 0H514L461 401H168ZM449 496Q421 694 398 853Q388 921 379 987T362 1108T349 1198T342 1243Q340 1253 339 1270T336 1309T333 1354T330 1401Q326 1456 324 1518Q320 1454 316 1399Q313 1351 310 1306T303 1241Q302 1233 296 1197T281 1106T261 986T239 852Q213 693 180 496H449ZM307 1759Q290 1781 277 1787T246 1794Q223 1794 209 1777T190 1716L115 1729Q121 1798 153 1843T238 1888Q269 1888 292 1877T344 1833Q356 1819 368 1810T399 1800Q422 1800 435 1819T455 1884L528 1872Q522 1801 493 1757T408 1712Q395 1712 383 1713T358 1718T333 1732T307 1759Z"/><glyph unicode="Ä" horiz-adv-x="621" d="M168 401L106 0H2L262 1634H395L618 0H514L461 401H168ZM449 496Q421 694 398 853Q388 921 379 987T362 1108T349 1198T342 1243Q340 1253 339 1270T336 1309T333 1354T330 1401Q326 1456 324 1518Q320 1454 316 1399Q313 1351 310 1306T303 1241Q302 1233 296 1197T281 1106T261 986T239 852Q213 693 180 496H449ZM485 1708H383V1880H485V1708ZM268 1708H168V1880H268V1708Z"/><glyph unicode="Å" horiz-adv-x="621" d="M254 1583Q223 1602 205 1633T186 1704Q186 1734 197 1760T227 1804T272 1834T326 1845Q356 1845 382 1834T426 1805T456 1760T467 1704Q467 1666 450 1635T401 1583Q401 1583 405 1552T417 1466T435 1336T457 1173T482 988T509 792Q557 444 618 0H514L461 401H168L106 0H2L254 1583ZM326 1774Q313 1774 302 1768T281 1752T267 1730T262 1704Q262 1678 281 1657T326 1636Q339 1636 350 1641T371 1656T385 1678T391 1704Q391 1717 386 1729T371 1752T351 1768T326 1774ZM449 496Q421 694 398 853Q388 921 379 987T362 1108T349 1198T342 1243Q340 1253 339 1270T336 1309T333 1354T330 1401Q326 1456 324 1518Q320 1454 316 1399Q313 1351 310 1306T303 1241Q302 1233 296 1197T281 1106T261 986T239 852Q213 693 180 496H449Z"/><glyph unicode="Æ" horiz-adv-x="854" d="M842 1634V1536H485V877H807V776H485V102H840V0H383V397H180L106 0H-2L324 1634H842ZM381 1479Q371 1418 363 1369Q360 1348 357 1328T351 1291T346 1265T344 1253L199 487H381V1479Z"/><glyph unicode="Ç" horiz-adv-x="676" d="M313 -10Q277 -6 246 6T188 42T140 101T104 188Q91 235 82 296T68 436T60 612T57 829Q57 947 59 1043T66 1217T79 1355T102 1462Q117 1514 140 1549T193 1604T263 1633T350 1642Q436 1642 491 1614T579 1523T623 1359T635 1110H524Q524 1228 519 1309T495 1440T442 1512T348 1534Q309 1534 281 1522T232 1480T200 1399T180 1269T171 1081T168 827Q168 676 171 563T183 368T206 233T241 149T290 105T356 92Q404 92 437 109T492 172T522 302T532 520H639Q639 381 625 283T580 121T503 25T389 -12V-53Q408 -57 429 -66T469 -89T498 -123T510 -168Q510 -205 497 -233T453 -279T373 -307T254 -317V-242Q302 -242 333 -238T383 -224T410 -202T418 -170Q418 -145 388 -131T313 -117V-10Z"/><glyph unicode="È" horiz-adv-x="586" d="M561 0H88V1634H557V1532H193V877H526V776H193V100H561V0ZM416 1706H311L174 1933H291L416 1706Z"/><glyph unicode="É" horiz-adv-x="586" d="M561 0H88V1634H557V1532H193V877H526V776H193V100H561V0ZM236 1708L358 1935H473L334 1708H236Z"/><glyph unicode="Ê" horiz-adv-x="586" d="M561 0H88V1634H557V1532H193V877H526V776H193V100H561V0ZM510 1706H416L324 1862L231 1706H139L260 1937H389L510 1706Z"/><glyph unicode="Ë" horiz-adv-x="586" d="M561 0H88V1634H557V1532H193V877H526V776H193V100H561V0ZM477 1706H375V1878H477V1706ZM260 1706H160V1878H260V1706Z"/><glyph unicode="Ì" horiz-adv-x="281" d="M195 0H88V1634H195V0ZM205 1706H100L-37 1933H80L205 1706Z"/><glyph unicode="Í" horiz-adv-x="281" d="M195 0H88V1634H195V0ZM80 1708L203 1935H317L178 1708H80Z"/><glyph unicode="Î" horiz-adv-x="281" d="M195 0H88V1634H195V0ZM326 1706H231L139 1862L47 1706H-45L76 1937H205L326 1706Z"/><glyph unicode="Ï" horiz-adv-x="281" d="M195 0H88V1634H195V0ZM299 1708H197V1880H299V1708ZM82 1708H-18V1880H82V1708Z"/><glyph unicode="Ð" horiz-adv-x="678" d="M88 770H18V881H88V1634H346Q451 1634 509 1590T590 1466Q598 1446 603 1405T613 1309T620 1193T624 1069T626 950T627 850Q627 804 627 742T625 612T622 475T616 345T607 238T594 168Q584 135 568 105T526 51T462 14T367 0H88V770ZM195 881H350V770H195V98H369Q416 98 452 119T502 197Q506 215 509 262T515 374T518 510T520 649T521 770T522 852Q522 878 522 924T520 1026T516 1140T512 1251T506 1342T500 1397Q486 1463 448 1497T350 1532H195V881Z"/><glyph unicode="Ñ" horiz-adv-x="700" d="M614 0H498L184 1319V0H88V1634H209L516 328V1634H614V0ZM348 1759Q331 1781 318 1787T287 1794Q264 1794 250 1777T231 1716L156 1729Q162 1798 194 1843T279 1888Q309 1888 333 1877T385 1833Q397 1819 409 1810T440 1800Q463 1800 476 1819T496 1884L569 1872Q563 1801 534 1757T449 1712Q436 1712 424 1713T399 1718T374 1732T348 1759Z"/><glyph unicode="Ò" horiz-adv-x="698" d="M350 1642Q420 1642 468 1624T550 1564T601 1459T629 1302T640 1089T643 813Q643 643 638 516T619 296T584 145T530 50T453 0T350 -14Q292 -14 248 -1T171 45T116 137T81 288T63 509T57 813Q57 1040 65 1198T102 1454T190 1597T350 1642ZM350 82Q410 82 446 114T502 228T528 451T535 813Q535 959 533 1070T525 1262T506 1396T474 1482T423 1527T350 1540Q310 1540 281 1528T232 1484T198 1399T178 1265T169 1073T166 813Q166 664 168 552T178 359T198 224T231 140T281 95T350 82ZM432 1708H328L190 1935H307L432 1708Z"/><glyph unicode="Ó" horiz-adv-x="698" d="M350 1642Q420 1642 468 1624T550 1564T601 1459T629 1302T640 1089T643 813Q643 643 638 516T619 296T584 145T530 50T453 0T350 -14Q292 -14 248 -1T171 45T116 137T81 288T63 509T57 813Q57 1040 65 1198T102 1454T190 1597T350 1642ZM350 82Q410 82 446 114T502 228T528 451T535 813Q535 959 533 1070T525 1262T506 1396T474 1482T423 1527T350 1540Q310 1540 281 1528T232 1484T198 1399T178 1265T169 1073T166 813Q166 664 168 552T178 359T198 224T231 140T281 95T350 82ZM293 1708L416 1935H530L391 1708H293Z"/><glyph unicode="Ô" horiz-adv-x="698" d="M350 1642Q420 1642 468 1624T550 1564T601 1459T629 1302T640 1089T643 813Q643 643 638 516T619 296T584 145T530 50T453 0T350 -14Q292 -14 248 -1T171 45T116 137T81 288T63 509T57 813Q57 1040 65 1198T102 1454T190 1597T350 1642ZM350 82Q410 82 446 114T502 228T528 451T535 813Q535 959 533 1070T525 1262T506 1396T474 1482T423 1527T350 1540Q310 1540 281 1528T232 1484T198 1399T178 1265T169 1073T166 813Q166 664 168 552T178 359T198 224T231 140T281 95T350 82ZM535 1706H440L348 1862L256 1706H164L285 1937H414L535 1706Z"/><glyph unicode="Õ" horiz-adv-x="698" d="M350 1642Q420 1642 468 1624T550 1564T601 1459T629 1302T640 1089T643 813Q643 643 638 516T619 296T584 145T530 50T453 0T350 -14Q292 -14 248 -1T171 45T116 137T81 288T63 509T57 813Q57 1040 65 1198T102 1454T190 1597T350 1642ZM350 82Q410 82 446 114T502 228T528 451T535 813Q535 959 533 1070T525 1262T506 1396T474 1482T423 1527T350 1540Q310 1540 281 1528T232 1484T198 1399T178 1265T169 1073T166 813Q166 664 168 552T178 359T198 224T231 140T281 95T350 82ZM338 1757Q321 1779 307 1785T276 1792Q253 1792 240 1775T221 1714L145 1726Q152 1796 184 1841T268 1886Q299 1886 323 1875T375 1831Q387 1817 399 1808T430 1798Q453 1798 466 1817T485 1882L559 1870Q553 1799 524 1755T438 1710Q425 1710 413 1711T388 1716T364 1730T338 1757Z"/><glyph unicode="Ö" horiz-adv-x="698" d="M350 1642Q420 1642 468 1624T550 1564T601 1459T629 1302T640 1089T643 813Q643 643 638 516T619 296T584 145T530 50T453 0T350 -14Q292 -14 248 -1T171 45T116 137T81 288T63 509T57 813Q57 1040 65 1198T102 1454T190 1597T350 1642ZM350 82Q410 82 446 114T502 228T528 451T535 813Q535 959 533 1070T525 1262T506 1396T474 1482T423 1527T350 1540Q310 1540 281 1528T232 1484T198 1399T178 1265T169 1073T166 813Q166 664 168 552T178 359T198 224T231 140T281 95T350 82ZM508 1706H406V1878H508V1706ZM291 1706H190V1878H291V1706Z"/><glyph unicode="×" horiz-adv-x="561" d="M481 946L338 803L481 659L424 598L281 743L137 598L80 659L223 803L80 946L137 1008L281 864L424 1008L481 946Z"/><glyph unicode="Ø" horiz-adv-x="698" d="M555 1552Q599 1493 614 1401Q626 1335 632 1263T640 1117T643 968T643 821Q643 745 642 662T636 498T625 347T608 225Q583 101 517 44T348 -14Q305 -14 268 -5T199 25L176 -70H109L143 78Q101 134 86 221Q81 250 78 293T71 387T65 496T61 610T58 721T57 821Q57 888 57 959T59 1103T66 1250T84 1399Q92 1453 113 1498T168 1575T247 1624T348 1642Q393 1642 431 1633T498 1604L512 1661H580L555 1552ZM188 274L471 1487Q451 1513 422 1526T350 1540Q282 1540 246 1502T197 1397Q171 1257 168 1110T164 813Q164 762 165 691T170 545T177 398T188 274ZM514 1376L227 145Q246 118 276 102T352 86Q416 86 453 125T504 223Q514 270 521 345T532 506T537 674T539 821Q539 873 539 942T538 1085T531 1235T514 1376Z"/><glyph unicode="Ù" horiz-adv-x="686" d="M606 258Q606 131 539 60T346 -12Q220 -12 147 56T74 260V1634H180V279Q180 178 221 133T344 88Q419 88 460 133T502 276V1634H606V258ZM422 1708H317L180 1935H297L422 1708Z"/><glyph unicode="Ú" horiz-adv-x="686" d="M606 258Q606 131 539 60T346 -12Q220 -12 147 56T74 260V1634H180V279Q180 178 221 133T344 88Q419 88 460 133T502 276V1634H606V258ZM276 1708L399 1935H514L375 1708H276Z"/><glyph unicode="Û" horiz-adv-x="686" d="M606 258Q606 131 539 60T346 -12Q220 -12 147 56T74 260V1634H180V279Q180 178 221 133T344 88Q419 88 460 133T502 276V1634H606V258ZM528 1706H434L342 1862L250 1706H158L279 1937H408L528 1706Z"/><glyph unicode="Ü" horiz-adv-x="686" d="M606 258Q606 131 539 60T346 -12Q220 -12 147 56T74 260V1634H180V279Q180 178 221 133T344 88Q419 88 460 133T502 276V1634H606V258ZM502 1706H399V1878H502V1706ZM285 1706H184V1878H285V1706Z"/><glyph unicode="Ý" horiz-adv-x="659" d="M659 1634L381 594V0H266V588L2 1634H106Q168 1401 216 1212Q237 1131 256 1053T292 909T318 800T328 743Q328 756 337 801T363 911T399 1055T441 1214Q491 1402 555 1634H659ZM242 1706L365 1933H479L340 1706H242Z"/><glyph unicode="Þ" horiz-adv-x="645" d="M195 1634V1323H350Q401 1323 442 1310T514 1267T563 1191T588 1079Q592 1056 595 1024T600 959T603 895T604 844Q604 823 603 792T601 726T596 660T588 606Q574 485 515 428T358 369H193V0H86V1634H195ZM492 842Q492 852 492 871T492 912T491 955T489 989Q486 1057 475 1101T446 1172T400 1208T336 1219H193V467H338Q408 467 444 522T487 668Q488 680 488 703T490 751T491 802T492 842Z"/><glyph unicode="ß" horiz-adv-x="780" d="M332 1550Q264 1550 238 1510T211 1395V0H111V1036H10V1126H111V1389Q111 1524 171 1584T338 1645Q386 1645 425 1630T491 1586T532 1519T547 1432Q547 1380 536 1337T507 1254T470 1178T433 1102T405 1020T393 926Q393 873 401 836T425 770T461 720T508 676Q517 667 529 656T555 634T580 612T602 594Q638 565 665 533T712 462T740 375T750 264Q750 128 689 58T520 -12Q420 -12 363 32T297 176Q296 191 296 214T295 262T294 308T293 342H393Q393 337 393 320T392 280T392 230T395 182Q398 120 431 96T522 72Q550 72 573 81T613 113T639 170T649 258Q649 306 643 344T623 413T590 469T541 518Q512 541 492 559T446 600Q411 632 384 662T337 728T308 811T297 924Q297 1003 320 1066T370 1187T421 1302T444 1425Q444 1452 439 1475T421 1514T387 1540T332 1550Z"/><glyph unicode="à" horiz-adv-x="541" d="M496 0H406Q405 0 403 9T400 32T397 60T397 86Q374 43 333 18T219 -8Q180 -8 147 2T90 33T51 87T35 166Q33 212 33 265T35 369Q36 421 49 465T88 544T154 604T250 643Q271 648 288 652T322 660T356 666T393 670Q393 692 393 731T392 808Q391 852 391 901Q391 943 386 971T368 1017T334 1042T279 1049Q240 1049 217 1032T181 976T164 876T160 727H66Q66 826 72 902T101 1031T167 1111T285 1139Q387 1139 438 1087T489 920Q489 907 489 869T489 777T489 658T488 525T488 392T487 274T487 183T487 133Q487 113 488 93T490 55T492 23T496 0ZM393 580Q375 580 347 575T285 561Q248 550 220 538T174 504T145 445T133 348Q133 333 133 311T134 264T134 216T135 176Q137 128 166 104T244 80Q268 80 290 86T331 107T364 144T385 199Q389 220 390 248T392 310T392 379T393 449V580ZM383 1198H279L141 1425H258L383 1198Z"/><glyph unicode="á" horiz-adv-x="541" d="M496 0H406Q405 0 403 9T400 32T397 60T397 86Q374 43 333 18T219 -8Q180 -8 147 2T90 33T51 87T35 166Q33 212 33 265T35 369Q36 421 49 465T88 544T154 604T250 643Q271 648 288 652T322 660T356 666T393 670Q393 692 393 731T392 808Q391 852 391 901Q391 943 386 971T368 1017T334 1042T279 1049Q240 1049 217 1032T181 976T164 876T160 727H66Q66 826 72 902T101 1031T167 1111T285 1139Q387 1139 438 1087T489 920Q489 907 489 869T489 777T489 658T488 525T488 392T487 274T487 183T487 133Q487 113 488 93T490 55T492 23T496 0ZM393 580Q375 580 347 575T285 561Q248 550 220 538T174 504T145 445T133 348Q133 333 133 311T134 264T134 216T135 176Q137 128 166 104T244 80Q268 80 290 86T331 107T364 144T385 199Q389 220 390 248T392 310T392 379T393 449V580ZM205 1198L328 1425H442L303 1198H205Z"/><glyph unicode="â" horiz-adv-x="541" d="M496 0H406Q405 0 403 9T400 32T397 60T397 86Q374 43 333 18T219 -8Q180 -8 147 2T90 33T51 87T35 166Q33 212 33 265T35 369Q36 421 49 465T88 544T154 604T250 643Q271 648 288 652T322 660T356 666T393 670Q393 692 393 731T392 808Q391 852 391 901Q391 943 386 971T368 1017T334 1042T279 1049Q240 1049 217 1032T181 976T164 876T160 727H66Q66 826 72 902T101 1031T167 1111T285 1139Q387 1139 438 1087T489 920Q489 907 489 869T489 777T489 658T488 525T488 392T487 274T487 183T487 133Q487 113 488 93T490 55T492 23T496 0ZM393 580Q375 580 347 575T285 561Q248 550 220 538T174 504T145 445T133 348Q133 333 133 311T134 264T134 216T135 176Q137 128 166 104T244 80Q268 80 290 86T331 107T364 144T385 199Q389 220 390 248T392 310T392 379T393 449V580ZM469 1198H375L283 1354L190 1198H98L219 1430H348L469 1198Z"/><glyph unicode="ã" horiz-adv-x="541" d="M496 0H406Q405 0 403 9T400 32T397 60T397 86Q374 43 333 18T219 -8Q180 -8 147 2T90 33T51 87T35 166Q33 212 33 265T35 369Q36 421 49 465T88 544T154 604T250 643Q271 648 288 652T322 660T356 666T393 670Q393 692 393 731T392 808Q391 852 391 901Q391 943 386 971T368 1017T334 1042T279 1049Q240 1049 217 1032T181 976T164 876T160 727H66Q66 826 72 902T101 1031T167 1111T285 1139Q387 1139 438 1087T489 920Q489 907 489 869T489 777T489 658T488 525T488 392T487 274T487 183T487 133Q487 113 488 93T490 55T492 23T496 0ZM393 580Q375 580 347 575T285 561Q248 550 220 538T174 504T145 445T133 348Q133 333 133 311T134 264T134 216T135 176Q137 128 166 104T244 80Q268 80 290 86T331 107T364 144T385 199Q389 220 390 248T392 310T392 379T393 449V580ZM270 1249Q253 1271 240 1277T209 1284Q186 1284 173 1267T154 1206L78 1219Q84 1288 116 1333T201 1378Q232 1378 255 1367T307 1323Q320 1309 332 1300T362 1290Q385 1290 398 1309T418 1374L492 1362Q485 1291 456 1247T371 1202Q358 1202 346 1203T321 1208T296 1222T270 1249Z"/><glyph unicode="ä" horiz-adv-x="541" d="M496 0H406Q405 0 403 9T400 32T397 60T397 86Q374 43 333 18T219 -8Q180 -8 147 2T90 33T51 87T35 166Q33 212 33 265T35 369Q36 421 49 465T88 544T154 604T250 643Q271 648 288 652T322 660T356 666T393 670Q393 692 393 731T392 808Q391 852 391 901Q391 943 386 971T368 1017T334 1042T279 1049Q240 1049 217 1032T181 976T164 876T160 727H66Q66 826 72 902T101 1031T167 1111T285 1139Q387 1139 438 1087T489 920Q489 907 489 869T489 777T489 658T488 525T488 392T487 274T487 183T487 133Q487 113 488 93T490 55T492 23T496 0ZM393 580Q375 580 347 575T285 561Q248 550 220 538T174 504T145 445T133 348Q133 333 133 311T134 264T134 216T135 176Q137 128 166 104T244 80Q268 80 290 86T331 107T364 144T385 199Q389 220 390 248T392 310T392 379T393 449V580ZM440 1198H338V1370H440V1198ZM223 1198H123V1370H223V1198Z"/><glyph unicode="å" horiz-adv-x="541" d="M496 0H406Q405 0 403 9T400 32T397 60T397 86Q374 43 333 18T219 -8Q180 -8 147 2T90 33T51 87T35 166Q33 212 33 265T35 369Q36 421 49 465T88 544T154 604T250 643Q271 648 288 652T322 660T356 666T393 670Q393 692 393 731T392 808Q391 852 391 901Q391 943 386 971T368 1017T334 1042T279 1049Q240 1049 217 1032T181 976T164 876T160 727H66Q66 826 72 902T101 1031T167 1111T285 1139Q387 1139 438 1087T489 920Q489 907 489 869T489 777T489 658T488 525T488 392T487 274T487 183T487 133Q487 113 488 93T490 55T492 23T496 0ZM393 580Q375 580 347 575T285 561Q248 550 220 538T174 504T145 445T133 348Q133 333 133 311T134 264T134 216T135 176Q137 128 166 104T244 80Q268 80 290 86T331 107T364 144T385 199Q389 220 390 248T392 310T392 379T393 449V580ZM295 1473Q325 1473 351 1462T395 1432T425 1387T436 1331Q436 1301 425 1275T396 1231T351 1201T295 1190Q266 1190 241 1201T197 1230T167 1275T156 1331Q156 1361 167 1387T197 1432T241 1462T295 1473ZM295 1401Q282 1401 271 1395T250 1379T236 1357T231 1331Q231 1305 250 1285T295 1264Q321 1264 340 1284T360 1331Q360 1344 355 1356T341 1379T320 1395T295 1401Z"/><glyph unicode="æ" horiz-adv-x="877" d="M457 1049Q471 1089 515 1114T625 1139Q666 1139 699 1129T756 1101T797 1060T821 1010Q830 994 835 960T844 868T848 723T848 516H489Q489 494 489 462T491 394T494 320T498 252T502 197T508 166Q519 116 551 97T625 78Q663 78 693 96T733 160Q739 169 742 195T748 249T752 302T754 330H846Q845 322 843 297T837 242T827 183T813 139Q798 59 748 25T623 -10Q580 -10 548 -2T492 22T454 57T430 102Q401 48 355 20T236 -8Q197 -8 161 2T97 33T53 87T35 166V369Q37 474 87 544T250 643Q271 648 288 652T322 660T356 666T393 670Q393 685 393 721T392 797T392 876T391 934Q389 993 364 1021T281 1049Q230 1049 206 1024T174 956Q166 914 163 855T160 727H66Q66 799 69 863T84 977Q99 1055 149 1097T295 1139Q344 1139 389 1119T457 1049ZM752 594Q752 607 752 637T751 705T749 785T745 864T741 929T735 967Q723 1010 692 1029T621 1049Q580 1049 551 1030T510 967Q506 959 503 932T498 866T493 785T490 702T488 634T487 594H752ZM393 580Q375 580 347 575T285 561Q259 553 228 542T176 508Q150 479 142 441T133 348Q133 333 133 310T134 262T134 214T135 176Q137 127 166 104T244 80Q268 80 290 86T331 107T364 144T385 199Q389 220 390 248T392 310T392 379T393 449V580Z"/><glyph unicode="ç" horiz-adv-x="535" d="M238 -8Q209 -5 184 3T139 29T103 72T76 137Q63 179 54 282T45 563Q45 644 47 705T53 814T62 898T74 965Q89 1048 138 1093T274 1139Q364 1139 414 1095T479 975Q484 949 487 913T491 842T493 780T494 743H397Q397 756 397 778T395 826T393 876T389 920Q381 983 357 1013T281 1044Q254 1044 235 1038T204 1017T183 978T168 918Q163 887 159 843T151 749T147 651T145 563Q145 528 145 477T147 372T152 268T162 186Q173 128 200 105T276 82Q326 82 352 112T387 188Q390 206 392 233T395 287T398 337T399 373H494Q494 358 494 333T491 279T485 216T475 152Q461 83 421 42T313 -8V-43Q332 -47 353 -56T393 -79T422 -113T434 -158Q434 -195 421 -223T377 -269T298 -297T178 -307V-231Q226 -231 257 -227T307 -214T334 -192T342 -160Q342 -135 313 -121T238 -106V-8Z"/><glyph unicode="è" horiz-adv-x="535" d="M500 330Q500 321 499 299T496 250T489 192T477 137Q459 66 411 28T279 -10Q247 -10 215 -4T153 19T103 62T72 131Q63 173 58 224T49 330T46 441T45 549Q45 630 47 700T53 826T61 922T72 983Q90 1055 143 1097T279 1139Q320 1139 354 1128T413 1098T455 1054T479 999Q485 975 490 941T498 852T502 716T502 514H143Q143 443 143 392T146 301T152 229T164 162Q173 120 204 99T274 78Q324 78 351 96T389 156Q396 181 400 208T405 260T407 303T408 330H500ZM406 602Q406 615 406 642T405 703T403 777T399 852T393 919T385 967Q373 1010 347 1029T276 1049Q238 1049 206 1028T162 967Q148 919 146 830T143 602H406ZM354 1198H250L113 1425H229L354 1198Z"/><glyph unicode="é" horiz-adv-x="535" d="M500 330Q500 321 499 299T496 250T489 192T477 137Q459 66 411 28T279 -10Q247 -10 215 -4T153 19T103 62T72 131Q63 173 58 224T49 330T46 441T45 549Q45 630 47 700T53 826T61 922T72 983Q90 1055 143 1097T279 1139Q320 1139 354 1128T413 1098T455 1054T479 999Q485 975 490 941T498 852T502 716T502 514H143Q143 443 143 392T146 301T152 229T164 162Q173 120 204 99T274 78Q324 78 351 96T389 156Q396 181 400 208T405 260T407 303T408 330H500ZM406 602Q406 615 406 642T405 703T403 777T399 852T393 919T385 967Q373 1010 347 1029T276 1049Q238 1049 206 1028T162 967Q148 919 146 830T143 602H406ZM207 1198L330 1425H444L305 1198H207Z"/><glyph unicode="ê" horiz-adv-x="535" d="M500 330Q500 321 499 299T496 250T489 192T477 137Q459 66 411 28T279 -10Q247 -10 215 -4T153 19T103 62T72 131Q63 173 58 224T49 330T46 441T45 549Q45 630 47 700T53 826T61 922T72 983Q90 1055 143 1097T279 1139Q320 1139 354 1128T413 1098T455 1054T479 999Q485 975 490 941T498 852T502 716T502 514H143Q143 443 143 392T146 301T152 229T164 162Q173 120 204 99T274 78Q324 78 351 96T389 156Q396 181 400 208T405 260T407 303T408 330H500ZM406 602Q406 615 406 642T405 703T403 777T399 852T393 919T385 967Q373 1010 347 1029T276 1049Q238 1049 206 1028T162 967Q148 919 146 830T143 602H406ZM455 1198H360L268 1354L176 1198H84L205 1430H334L455 1198Z"/><glyph unicode="ë" horiz-adv-x="535" d="M500 330Q500 321 499 299T496 250T489 192T477 137Q459 66 411 28T279 -10Q247 -10 215 -4T153 19T103 62T72 131Q63 173 58 224T49 330T46 441T45 549Q45 630 47 700T53 826T61 922T72 983Q90 1055 143 1097T279 1139Q320 1139 354 1128T413 1098T455 1054T479 999Q485 975 490 941T498 852T502 716T502 514H143Q143 443 143 392T146 301T152 229T164 162Q173 120 204 99T274 78Q324 78 351 96T389 156Q396 181 400 208T405 260T407 303T408 330H500ZM406 602Q406 615 406 642T405 703T403 777T399 852T393 919T385 967Q373 1010 347 1029T276 1049Q238 1049 206 1028T162 967Q148 919 146 830T143 602H406ZM428 1198H326V1370H428V1198ZM211 1198H111V1370H211V1198Z"/><glyph unicode="ì" horiz-adv-x="240" d="M178 0H80Q79 0 78 7T75 26T72 52T70 82V1126H170V98Q170 81 171 64T174 32Q176 15 178 0ZM188 1198H84L-53 1425H63L188 1198Z"/><glyph unicode="í" horiz-adv-x="240" d="M178 0H80Q79 0 78 7T75 26T72 52T70 82V1126H170V98Q170 81 171 64T174 32Q176 15 178 0ZM53 1198L176 1425H291L152 1198H53Z"/><glyph unicode="î" horiz-adv-x="240" d="M178 0H80Q79 0 78 7T75 26T72 52T70 82V1126H170V98Q170 81 171 64T174 32Q176 15 178 0ZM305 1198H211L119 1354L27 1198H-66L55 1430H184L305 1198Z"/><glyph unicode="ï" horiz-adv-x="240" d="M178 0H80Q79 0 78 7T75 26T72 52T70 82V1126H170V98Q170 81 171 64T174 32Q176 15 178 0ZM279 1198H176V1370H279V1198ZM61 1198H-39V1370H61V1198Z"/><glyph unicode="ð" horiz-adv-x="580" d="M420 1243Q393 1229 362 1229Q313 1229 279 1263T233 1356L293 1372Q301 1327 317 1309T360 1290Q379 1290 390 1295T418 1313Q416 1341 415 1361T410 1395Q405 1432 397 1462T375 1513T338 1545T283 1556Q254 1556 234 1550T200 1531T180 1500T170 1460Q168 1451 168 1438T168 1421H68Q70 1424 71 1443T74 1479Q79 1513 94 1543T136 1595T199 1631T287 1645Q338 1645 376 1630T439 1586T480 1517T502 1427Q504 1415 505 1401T508 1370Q526 1381 539 1383T571 1386Q628 1386 656 1350T696 1257L639 1237Q634 1274 618 1299T569 1325Q551 1325 540 1318T516 1300Q520 1261 523 1216T528 1123T531 1029T532 940Q532 902 532 845T532 722T530 585T528 449T524 329T518 240Q511 178 497 132T456 54T389 6T289 -10Q240 -10 202 0T137 32T91 89T61 174Q54 206 51 265T45 398T44 553T47 709T53 847T63 948Q72 979 88 1007T130 1056T188 1091T262 1104Q330 1104 368 1078T432 1001Q432 1015 431 1041T429 1101T425 1171T420 1243ZM156 221Q162 180 173 154T200 111T237 89T287 82Q319 82 343 90T384 116T410 166T424 242Q425 258 426 301T428 403T429 528T430 657T430 769T430 844Q426 872 418 902T393 956T350 996T287 1012Q258 1012 237 1003T201 977T177 942T162 901Q159 888 157 855T152 775T149 674T148 562T147 450T149 348T152 268T156 221Z"/><glyph unicode="ñ" horiz-adv-x="553" d="M496 0H399Q398 0 398 32T397 118T396 244T396 394T395 554T395 707T395 840T395 938Q395 988 370 1014T293 1040Q267 1040 244 1032T203 1005T175 956T164 883V0H66V1126H162V1026Q169 1059 186 1081T227 1115T277 1133T330 1139Q414 1139 455 1088T496 954Q496 914 496 852T496 716T496 559T497 398T497 246T497 120T497 33T496 0ZM260 1249Q243 1271 230 1277T199 1284Q176 1284 162 1267T143 1206L68 1219Q74 1288 106 1333T190 1378Q221 1378 245 1367T297 1323Q309 1309 321 1300T352 1290Q375 1290 388 1309T408 1374L481 1362Q475 1291 446 1247T360 1202Q347 1202 335 1203T311 1208T286 1222T260 1249Z"/><glyph unicode="ò" horiz-adv-x="567" d="M520 561Q520 507 519 451T513 341T503 241T487 158Q467 77 418 34T283 -10Q245 -10 211 -1T149 28T102 76T74 145Q67 177 62 225T53 330T47 446T45 561Q45 621 45 674T49 776T58 873T76 969Q94 1046 145 1092T285 1139Q374 1139 425 1097T494 971Q511 889 515 786T520 561ZM422 561Q422 618 421 676T418 785T411 877T401 942Q389 998 361 1023T283 1049Q235 1049 207 1021T166 938Q160 910 156 870T149 780T145 675T143 561Q143 513 144 456T147 346T153 247T164 176Q176 125 206 102T281 78Q327 78 356 103T397 180Q403 207 407 252T415 351T420 460T422 561ZM354 1198H250L113 1425H229L354 1198Z"/><glyph unicode="ó" horiz-adv-x="567" d="M520 561Q520 507 519 451T513 341T503 241T487 158Q467 77 418 34T283 -10Q245 -10 211 -1T149 28T102 76T74 145Q67 177 62 225T53 330T47 446T45 561Q45 621 45 674T49 776T58 873T76 969Q94 1046 145 1092T285 1139Q374 1139 425 1097T494 971Q511 889 515 786T520 561ZM422 561Q422 618 421 676T418 785T411 877T401 942Q389 998 361 1023T283 1049Q235 1049 207 1021T166 938Q160 910 156 870T149 780T145 675T143 561Q143 513 144 456T147 346T153 247T164 176Q176 125 206 102T281 78Q327 78 356 103T397 180Q403 207 407 252T415 351T420 460T422 561ZM207 1198L330 1425H444L305 1198H207Z"/><glyph unicode="ô" horiz-adv-x="567" d="M520 561Q520 507 519 451T513 341T503 241T487 158Q467 77 418 34T283 -10Q245 -10 211 -1T149 28T102 76T74 145Q67 177 62 225T53 330T47 446T45 561Q45 621 45 674T49 776T58 873T76 969Q94 1046 145 1092T285 1139Q374 1139 425 1097T494 971Q511 889 515 786T520 561ZM422 561Q422 618 421 676T418 785T411 877T401 942Q389 998 361 1023T283 1049Q235 1049 207 1021T166 938Q160 910 156 870T149 780T145 675T143 561Q143 513 144 456T147 346T153 247T164 176Q176 125 206 102T281 78Q327 78 356 103T397 180Q403 207 407 252T415 351T420 460T422 561ZM471 1198H377L285 1354L193 1198H100L221 1430H350L471 1198Z"/><glyph unicode="õ" horiz-adv-x="567" d="M520 561Q520 507 519 451T513 341T503 241T487 158Q467 77 418 34T283 -10Q245 -10 211 -1T149 28T102 76T74 145Q67 177 62 225T53 330T47 446T45 561Q45 621 45 674T49 776T58 873T76 969Q94 1046 145 1092T285 1139Q374 1139 425 1097T494 971Q511 889 515 786T520 561ZM422 561Q422 618 421 676T418 785T411 877T401 942Q389 998 361 1023T283 1049Q235 1049 207 1021T166 938Q160 910 156 870T149 780T145 675T143 561Q143 513 144 456T147 346T153 247T164 176Q176 125 206 102T281 78Q327 78 356 103T397 180Q403 207 407 252T415 351T420 460T422 561ZM272 1249Q255 1271 242 1277T211 1284Q188 1284 175 1267T156 1206L80 1219Q86 1288 118 1333T203 1378Q234 1378 257 1367T309 1323Q322 1309 334 1300T365 1290Q388 1290 401 1309T420 1374L494 1362Q487 1291 458 1247T373 1202Q360 1202 348 1203T323 1208T298 1222T272 1249Z"/><glyph unicode="ö" horiz-adv-x="567" d="M520 561Q520 507 519 451T513 341T503 241T487 158Q467 77 418 34T283 -10Q245 -10 211 -1T149 28T102 76T74 145Q67 177 62 225T53 330T47 446T45 561Q45 621 45 674T49 776T58 873T76 969Q94 1046 145 1092T285 1139Q374 1139 425 1097T494 971Q511 889 515 786T520 561ZM422 561Q422 618 421 676T418 785T411 877T401 942Q389 998 361 1023T283 1049Q235 1049 207 1021T166 938Q160 910 156 870T149 780T145 675T143 561Q143 513 144 456T147 346T153 247T164 176Q176 125 206 102T281 78Q327 78 356 103T397 180Q403 207 407 252T415 351T420 460T422 561ZM442 1198H340V1370H442V1198ZM225 1198H125V1370H225V1198Z"/><glyph unicode="÷" horiz-adv-x="1536" d="M208 684V896H1328V684H208ZM768 228Q704 228 656 276T608 388Q608 452 650 500T768 548Q840 548 884 500T928 388Q928 324 880 276T768 228ZM768 1028Q704 1028 656 1076T608 1188Q608 1252 650 1300T768 1348Q840 1348 884 1300T928 1188Q928 1124 880 1076T768 1028Z"/><glyph unicode="ø" horiz-adv-x="567" d="M125 47Q106 66 93 90T74 145Q67 177 62 225T53 330T47 446T45 561Q45 609 46 660T50 763T59 867T76 969Q93 1047 145 1093T285 1139Q317 1139 343 1133T393 1116L408 1174H467L444 1079Q461 1059 474 1032T494 971Q502 929 507 878T515 772T519 663T520 561Q520 507 519 451T513 341T503 241T487 158Q467 77 418 34T283 -10Q225 -10 176 12L160 -49H100L125 47ZM160 184L369 1022Q339 1051 283 1051Q185 1051 164 942Q158 913 154 866T146 766T142 659T141 561Q141 515 142 461T145 356T150 259T160 184ZM408 936L199 102Q230 74 281 74Q329 74 359 99T399 176Q405 204 409 250T417 349T422 458T424 561Q424 603 423 656T421 761T416 860T408 936Z"/><glyph unicode="ù" horiz-adv-x="559" d="M498 0H403L399 70Q384 29 341 11T240 -8Q201 -8 169 2T113 34T76 90T63 174Q63 277 63 388T63 605T63 805T63 971T62 1084T61 1126H162V186Q162 131 189 106T268 80Q330 80 362 118T395 231V1126H494V139Q494 115 494 93T495 52T496 20T498 0ZM371 1198H266L129 1425H246L371 1198Z"/><glyph unicode="ú" horiz-adv-x="559" d="M498 0H403L399 70Q384 29 341 11T240 -8Q201 -8 169 2T113 34T76 90T63 174Q63 277 63 388T63 605T63 805T63 971T62 1084T61 1126H162V186Q162 131 189 106T268 80Q330 80 362 118T395 231V1126H494V139Q494 115 494 93T495 52T496 20T498 0ZM207 1198L330 1425H444L305 1198H207Z"/><glyph unicode="û" horiz-adv-x="559" d="M498 0H403L399 70Q384 29 341 11T240 -8Q201 -8 169 2T113 34T76 90T63 174Q63 277 63 388T63 605T63 805T63 971T62 1084T61 1126H162V186Q162 131 189 106T268 80Q330 80 362 118T395 231V1126H494V139Q494 115 494 93T495 52T496 20T498 0ZM465 1198H371L279 1354L186 1198H94L215 1430H344L465 1198Z"/><glyph unicode="ü" horiz-adv-x="559" d="M498 0H403L399 70Q384 29 341 11T240 -8Q201 -8 169 2T113 34T76 90T63 174Q63 277 63 388T63 605T63 805T63 971T62 1084T61 1126H162V186Q162 131 189 106T268 80Q330 80 362 118T395 231V1126H494V139Q494 115 494 93T495 52T496 20T498 0ZM438 1198H336V1370H438V1198ZM221 1198H121V1370H221V1198Z"/><glyph unicode="ý" horiz-adv-x="522" d="M520 1126L231 -334H131L209 63L4 1126H106Q145 913 178 736Q192 661 205 586T230 446T250 335T262 268Q265 287 273 334T293 446T318 585T346 736Q379 913 418 1126H520ZM172 1198L295 1425H410L270 1198H172Z"/><glyph unicode="þ" horiz-adv-x="571" d="M526 586Q526 516 524 447T519 317T509 211T496 139Q482 68 437 32T326 -4Q261 -4 221 16T164 70V-334H66V1636H162V1030Q177 1087 223 1113T330 1139Q396 1139 438 1107T498 999Q505 967 510 922T518 824T524 711T526 586ZM428 578Q428 629 427 685T424 793T417 889T408 963Q397 1001 371 1022T299 1044Q273 1044 254 1036T221 1014T199 981T184 938Q178 895 174 853T168 768T165 678T164 578Q164 476 165 409T168 296T175 221T184 162Q195 130 220 108T295 86Q343 86 370 108T408 182Q413 209 417 254T423 354T427 466T428 578Z"/><glyph unicode="ÿ" horiz-adv-x="522" d="M520 1126L231 -334H131L209 63L4 1126H106Q145 913 178 736Q192 661 205 586T230 446T250 335T262 268Q265 287 273 334T293 446T318 585T346 736Q379 913 418 1126H520ZM422 1198H319V1370H422V1198ZM205 1198H104V1370H205V1198Z"/><glyph unicode="ı" horiz-adv-x="240" d="M178 0H80Q79 0 78 7T75 26T72 52T70 82V1126H170V98Q170 81 171 64T174 32Q176 15 178 0Z"/><glyph unicode="Ł" horiz-adv-x="565" d="M195 606V102H549V0H88V555L27 522V602L88 635V1634H195V688L391 786V707L195 606Z"/><glyph unicode="ł" horiz-adv-x="233" d="M166 592V90Q166 12 172 0H76Q73 5 71 21T68 59V545L12 514V596L68 627V1542Q68 1554 68 1569T67 1598T65 1622T63 1638H164Q164 1635 165 1615T166 1571V674Q166 675 174 679T194 690Q206 696 223 705V621L166 592Z"/><glyph unicode="Œ" horiz-adv-x="991" d="M526 1634H977V1536H608V874H940V776H608V102H975V0H522V66Q511 52 495 38T457 13T408 -6T346 -14Q231 -14 163 47T74 248Q72 262 70 298T66 384T63 493T60 610T58 724T57 821Q57 863 57 917T59 1028T62 1142T67 1247T73 1331T82 1382Q99 1509 162 1575T344 1642Q403 1642 448 1621T526 1563V1634ZM352 84Q388 84 414 94T459 123T487 164T500 213Q501 227 502 267T503 362T504 481T504 609T504 728T504 823Q504 854 504 905T504 1014T504 1134T504 1249T503 1342T502 1395Q491 1464 458 1501T352 1538Q313 1538 286 1527T239 1496T209 1447T190 1382Q186 1363 183 1324T177 1232T172 1122T169 1006T167 899T166 813Q166 777 167 726T169 618T172 502T177 391T182 298T188 236Q199 163 239 124T352 84Z"/><glyph unicode="œ" horiz-adv-x="909" d="M281 -10Q196 -10 146 31T78 145Q71 177 65 227T55 335T48 452T45 561Q45 609 46 666T51 779T60 886T74 971Q91 1051 144 1095T285 1139Q354 1139 404 1110T471 1028Q490 1085 536 1112T651 1139Q735 1139 784 1103T852 1012Q858 995 863 961T871 867T876 722T877 516H518Q518 447 519 358T530 166Q533 143 545 127T574 100T611 84T651 78Q692 78 722 98T762 164Q765 178 768 202T774 252T778 299T780 330H874Q874 320 872 295T867 242T859 185T850 141Q828 63 778 27T651 -10Q622 -10 593 -4T539 16T494 51T463 102Q438 45 390 18T281 -10ZM778 594Q778 607 778 637T776 705T774 785T771 864T767 929T762 967Q749 1010 719 1029T647 1049Q607 1049 579 1030T539 967Q535 959 532 932T527 866T522 785T519 702T517 634T516 594H778ZM422 561Q422 605 421 660T418 769T413 869T403 942Q391 999 362 1023T283 1047Q188 1047 164 940Q158 911 154 865T147 765T144 658T143 561Q143 515 144 459T148 349T155 248T166 172Q177 122 207 100T283 78Q329 78 360 101T403 174Q409 202 412 248T418 349T421 459T422 561Z"/><glyph unicode="Š" horiz-adv-x="629" d="M588 324Q588 235 570 171T516 66T430 6T315 -14Q191 -14 119 46T41 244Q40 263 40 288T39 340T38 389T37 428H141Q141 419 141 401T140 361T140 315T143 268Q147 211 160 176T195 120T246 93T313 86Q355 86 386 98T438 136T469 206T479 311Q479 385 471 441T445 548T397 646T324 754Q304 782 276 820T219 893Q175 947 141 999T84 1105T48 1216T35 1337Q35 1486 105 1565T309 1645Q373 1645 419 1627T496 1575T545 1490T569 1376Q570 1362 571 1340T573 1292T574 1241T575 1196H471Q471 1208 471 1229T470 1275T468 1324T465 1364Q457 1446 422 1493T307 1540Q222 1540 183 1491T143 1335Q143 1282 151 1238T179 1149T230 1058T309 954Q319 942 334 923T364 882T393 843T414 815Q454 762 486 709T541 598T576 472T588 324ZM129 1937H221L313 1776L406 1937H500L379 1708H250L129 1937Z"/><glyph unicode="š" horiz-adv-x="510" d="M479 272Q479 193 462 139T414 51T343 3T254 -12Q207 -12 168 -1T99 33T53 93T33 182Q31 214 31 254T31 332H127Q127 326 127 312T126 279T125 237T127 193Q130 136 160 106T252 76Q284 76 309 85T351 115T376 171T385 260Q385 305 379 339T358 401T323 454T272 508Q259 521 248 531T226 550T204 568T178 590Q143 622 117 652T73 718T48 796T39 897Q39 952 53 997T94 1074T162 1123T256 1141Q351 1141 398 1096T457 975Q458 963 458 935T459 877T459 821T459 786H365Q365 791 365 815T365 866T364 918T362 948Q360 970 355 989T337 1022T306 1043T256 1051Q194 1051 165 1012T135 899Q135 854 140 821T159 761T192 709T242 659Q256 647 267 638T289 619T311 601T336 578Q370 544 397 514T442 449T469 372T479 272ZM70 1430H162L254 1268L346 1430H440L319 1200H190L70 1430Z"/><glyph unicode="Ÿ" horiz-adv-x="659" d="M659 1634L381 594V0H266V588L2 1634H106Q168 1401 216 1212Q237 1131 256 1053T292 909T318 800T328 743Q328 756 337 801T363 911T399 1055T441 1214Q491 1402 555 1634H659ZM492 1706H389V1878H492V1706ZM274 1706H174V1878H274V1706Z"/><glyph unicode="Ž" horiz-adv-x="563" d="M551 0H18V84L422 1532H41V1634H539V1561L133 100H551V0ZM96 1937H188L281 1776L373 1937H467L346 1708H217L96 1937Z"/><glyph unicode="ž" horiz-adv-x="455" d="M436 0H18V94L332 1034H27V1126H430V1024L121 90H436V0ZM41 1430H133L225 1268L317 1430H412L291 1200H162L41 1430Z"/><glyph unicode="ƒ" horiz-adv-x="510" d="M203 -76Q195 -164 151 -215T31 -266Q-7 -266 -23 -264T-55 -260V-168Q-40 -168 -20 -169T20 -170Q52 -170 74 -144T100 -80Q128 230 151 475Q161 579 170 679T186 858T198 985T203 1036H102L104 1128H211L242 1456Q250 1544 292 1594T422 1645Q442 1645 454 1644T476 1642T493 1639T510 1636V1546Q494 1548 473 1550T432 1552Q389 1550 367 1526T342 1464L311 1126H449V1036H303Q303 1035 300 1004T293 919T282 794T268 643T253 479T238 315T225 164T214 40T206 -44T203 -76Z"/><glyph unicode="ˆ" horiz-adv-x="539" d="M455 1198H360L268 1354L176 1198H84L205 1430H334L455 1198Z"/><glyph unicode="ˇ" horiz-adv-x="539" d="M84 1430H176L268 1268L360 1430H455L334 1200H205L84 1430Z"/><glyph unicode="˘" horiz-adv-x="539" d="M455 1378Q455 1295 407 1245T270 1194Q181 1194 133 1243T84 1378H168Q168 1330 192 1301T268 1272Q321 1272 345 1301T369 1378H455Z"/><glyph unicode="˙" horiz-adv-x="539" d="M324 1198H217V1372H324V1198Z"/><glyph unicode="˚" horiz-adv-x="539" d="M268 1473Q298 1473 324 1462T369 1432T399 1387T410 1331Q410 1301 399 1275T369 1231T324 1201T268 1190Q240 1190 215 1201T170 1230T140 1275T129 1331Q129 1361 140 1387T170 1432T214 1462T268 1473ZM268 1401Q242 1401 224 1379T205 1331Q205 1305 223 1285T268 1264Q294 1264 314 1284T334 1331Q334 1344 329 1356T314 1379T293 1395T268 1401Z"/><glyph unicode="˛" horiz-adv-x="539" d="M371 0Q333 -17 308 -35T269 -72T248 -109T242 -143Q242 -177 263 -197T340 -217V-293Q249 -293 205 -251T160 -145Q160 -97 193 -58T279 0H371Z"/><glyph unicode="˜" horiz-adv-x="539" d="M258 1249Q241 1271 228 1277T197 1284Q174 1284 160 1267T141 1206L66 1219Q72 1288 104 1333T188 1378Q219 1378 243 1367T295 1323Q307 1309 319 1300T350 1290Q373 1290 386 1309T406 1374L479 1362Q473 1291 444 1247T358 1202Q345 1202 333 1203T309 1208T284 1222T258 1249Z"/><glyph unicode="˝" horiz-adv-x="539" d="M274 1198L356 1425H455L358 1198H274ZM129 1198L209 1425H307L211 1198H129Z"/><glyph unicode="̄" horiz-adv-x="539" d="M442 1225H94V1309H442V1225Z"/><glyph unicode="Δ" horiz-adv-x="1536" d="M76 0L652 1536H884L1456 0H76ZM352 148H1164L752 1256L352 148Z"/><glyph unicode="Ω" horiz-adv-x="1664" d="M832 1376Q644 1376 510 1234T376 836Q376 592 464 432T724 180V0H88V196H536Q416 240 304 406T192 848Q192 1112 358 1330T832 1548Q1140 1548 1306 1338T1472 848Q1472 572 1360 406T1128 196H1576V0H940V180Q1112 272 1200 432T1288 836Q1288 1044 1162 1210T832 1376Z"/><glyph unicode="μ" horiz-adv-x="1408" d="M252 -424Q196 -424 168 -392T140 -280Q140 -200 144 -106T156 100Q164 200 168 256T172 328Q176 348 176 356V1176H368V320Q368 228 450 176T628 124Q760 124 858 190T1008 380V1176H1200V308L1220 0H1056L1020 176Q952 68 836 14T572 -40Q520 -40 444 -14T324 60Q324 -28 352 -112T380 -264Q380 -424 252 -424Z"/><glyph unicode="π" horiz-adv-x="1408" d="M296 0V1028H12V1176H1316V1028H996V344Q996 228 1042 184T1152 140Q1200 140 1232 142T1296 156V28Q1248 4 1206 -6T1088 -16Q960 -16 886 64T812 336V1028H484V0H296Z"/><glyph unicode="–" horiz-adv-x="551" d="M524 657H27V758H524V657Z"/><glyph unicode="—" horiz-adv-x="948" d="M848 657H100V760H848V657Z"/><glyph unicode="‘" horiz-adv-x="240" d="M197 1473V1262H53V1489L145 1640L207 1620L154 1485V1473H197Z"/><glyph unicode="’" horiz-adv-x="240" d="M49 1425V1636H193V1409L100 1257L37 1278L92 1413L90 1425H49Z"/><glyph unicode="‚" horiz-adv-x="240" d="M49 0V211H193V-16L100 -168L37 -147L92 -12L90 0H49Z"/><glyph unicode="“" horiz-adv-x="449" d="M399 1473V1262H260V1487L352 1640L414 1620L358 1483L360 1473H399ZM195 1473V1262H55V1487L150 1640L209 1620L158 1483V1473H195Z"/><glyph unicode="”" horiz-adv-x="449" d="M260 1427V1636H399V1409L307 1257L246 1278L301 1415L299 1427H260ZM59 1427V1636H197V1409L102 1257L43 1278L96 1415L94 1427H59Z"/><glyph unicode="„" horiz-adv-x="449" d="M260 0V211H399V-16L307 -168L246 -150L301 -12L299 0H260ZM59 0V211H197V-16L102 -168L43 -150L96 -12L94 0H59Z"/><glyph unicode="†" horiz-adv-x="375" d="M346 997H238V-18L186 -178L139 -18V997H27V1085H139Q137 1101 137 1133T136 1206T135 1293T135 1387Q135 1496 137 1624H240Q242 1496 243 1387Q243 1340 243 1294T243 1206T241 1133T238 1085H346V997Z"/><glyph unicode="‡" horiz-adv-x="375" d="M238 705H338V618H238V-18L186 -178L141 -18V618H39V705H141V1016H39V1104H141Q141 1118 141 1148T140 1217T139 1301T139 1392V1624H240V1393Q240 1348 240 1303T240 1218T239 1149T238 1104H338V1016H238V705Z"/><glyph unicode="•" horiz-adv-x="494" d="M246 606Q217 606 193 617T149 647T120 693T109 750Q109 779 119 805T149 850T192 881T246 893Q275 893 301 882T346 851T376 805T387 750Q387 720 376 694T346 648T301 617T246 606Z"/><glyph unicode="…" horiz-adv-x="1057" d="M952 0H805V229H952V0ZM602 0H451V229H602V0ZM248 0H100V229H248V0Z"/><glyph unicode="‰" horiz-adv-x="1409" d="M444 1077Q444 950 393 883T238 815Q184 815 146 834T85 887T50 970T39 1077V1389Q39 1448 50 1496T87 1578T150 1632T242 1651Q299 1651 338 1631T400 1575T434 1491T444 1389V1077ZM762 1561L244 0H170L688 1561H762ZM1378 250Q1378 122 1328 55T1171 -12Q1117 -12 1080 6T1019 59T984 141T973 250V559Q973 617 984 666T1021 749T1084 803T1176 823Q1233 823 1272 802T1334 745T1368 661T1378 559V250ZM922 250Q922 122 872 55T715 -12Q660 -12 622 6T560 59T525 141T514 250V559Q514 617 526 666T563 749T626 803T717 823Q774 823 813 802T876 745T911 661T922 559V250ZM358 1075V1411Q358 1482 327 1522T242 1563Q185 1563 154 1525T123 1411V1075Q123 985 154 943T242 901Q300 901 329 942T358 1075ZM1292 246V586Q1292 654 1262 694T1176 735Q1117 735 1088 697T1059 586V250Q1059 160 1089 117T1176 74Q1237 74 1264 115T1292 246ZM836 246V586Q836 654 805 694T717 735Q658 735 629 697T600 586V250Q600 160 630 117T717 74Q779 74 807 115T836 246Z"/><glyph unicode="‹" horiz-adv-x="305" d="M287 287L23 684V756L287 1151V987L106 719L287 455V287Z"/><glyph unicode="›" horiz-adv-x="305" d="M20 287V455L199 719L20 987V1151L283 756V684L20 287Z"/><glyph unicode="⁄" horiz-adv-x="213" d="M375 1634Q332 1482 290 1332Q272 1268 252 1199T212 1059T173 923T137 799Q122 745 104 683T68 554T32 421T-4 293Q-44 149 -84 0H-166Q-122 158 -78 314Q-59 380 -39 452T2 597T43 737T80 866Q95 918 112 978T147 1103T182 1231T216 1354Q254 1492 293 1634H375Z"/><glyph unicode="€" horiz-adv-x="664" d="M96 856H33V934H96Q96 990 96 1050T97 1168T99 1280T104 1378Q108 1438 125 1487T173 1571T249 1626T356 1645Q419 1645 465 1625T541 1570T587 1486T606 1378Q609 1329 610 1271T612 1153H508Q506 1228 505 1290T502 1384Q497 1459 460 1501T354 1544Q317 1544 291 1532T247 1499T221 1448T209 1382Q207 1355 206 1304T204 1190T203 1061T201 934H475V856H201V821V766H475V688H201Q201 635 201 578T203 461T206 344T211 231Q216 163 253 125T356 86Q424 86 460 124T502 231Q505 279 506 333T508 446H614Q614 398 613 356T610 279Q605 201 586 147T535 57T457 6T354 -10Q296 -10 252 5T176 54T127 144T104 279Q102 306 101 352T99 453T98 570T96 688H33V766H96V819V856Z"/><glyph unicode="℗" horiz-adv-x="784" d="M745 1001Q744 894 720 817T649 689T539 615T393 590Q313 590 248 614T136 689T64 817T37 1001Q37 1021 37 1049T36 1111T36 1182T37 1257Q38 1361 65 1433T139 1551T251 1617T391 1638Q465 1638 529 1618T640 1553T715 1435T745 1255V1001ZM692 1030V1268Q690 1352 668 1412T605 1510T511 1565T391 1583Q327 1583 273 1566T178 1511T114 1414T90 1270V1030Q91 924 114 851T177 731T271 664T391 643Q461 643 516 663T611 729T670 848T692 1030ZM319 1047V778H242V1401H432Q482 1401 512 1386T557 1348Q568 1333 574 1316T583 1282T587 1250T588 1225Q588 1180 579 1147T553 1092Q520 1047 455 1047H319ZM508 1221Q508 1241 503 1261T485 1296Q466 1329 426 1329H319V1116H436Q459 1116 472 1123T494 1145Q503 1159 505 1178T508 1221Z"/><glyph unicode="™" horiz-adv-x="918" d="M803 1065V1483Q803 1497 801 1511T791 1536T772 1555T741 1563Q721 1563 707 1553T684 1527T671 1492T666 1456V1065H582V1489Q582 1521 567 1542T520 1563Q502 1563 487 1553T461 1525T444 1487T438 1442V1065H354V1638H438V1552Q448 1599 479 1624T551 1649Q594 1649 618 1622T651 1554Q657 1579 669 1597T697 1626T732 1643T768 1649Q802 1649 824 1637T861 1605T881 1559T887 1505V1065H803ZM307 1559H186V1221Q186 1180 204 1162T248 1143Q252 1143 259 1143T274 1143T289 1143T299 1145V1065Q291 1064 280 1064T257 1063T234 1063T213 1063Q190 1063 170 1070T135 1092T111 1132T102 1190V1559H8V1638H307V1559Z"/><glyph unicode="Ω" horiz-adv-x="1664" d="M832 1376Q644 1376 510 1234T376 836Q376 592 464 432T724 180V0H88V196H536Q416 240 304 406T192 848Q192 1112 358 1330T832 1548Q1140 1548 1306 1338T1472 848Q1472 572 1360 406T1128 196H1576V0H940V180Q1112 272 1200 432T1288 836Q1288 1044 1162 1210T832 1376Z"/><glyph unicode="∂" horiz-adv-x="1280" d="M476 -32Q276 -32 166 80T56 360Q56 580 214 750T604 920Q700 920 802 886T964 816Q976 900 976 984Q976 1172 908 1278T720 1384Q592 1384 518 1356T368 1280L324 1444Q400 1488 492 1518T720 1548Q956 1548 1064 1394T1172 968Q1172 552 968 260T476 -32ZM488 128Q660 128 774 268T944 684Q912 716 824 748T648 780Q456 780 360 654T264 372Q264 264 318 196T488 128Z"/><glyph unicode="∆" horiz-adv-x="1536" d="M76 0L652 1536H884L1456 0H76ZM352 148H1164L752 1256L352 148Z"/><glyph unicode="∏" horiz-adv-x="1536" d="M332 0V1348H80V1524H1456V1348H1212V0H1004V1356H540V0H332Z"/><glyph unicode="∑" horiz-adv-x="1152" d="M1084 1524V1344H332L796 784L304 188H1080V0H40V172L560 788L68 1380V1524H1084Z"/><glyph unicode="−" horiz-adv-x="573" d="M549 760H25V856H549V760Z"/><glyph unicode="∕" horiz-adv-x="213" d="M375 1634Q332 1482 290 1332Q272 1268 252 1199T212 1059T173 923T137 799Q122 745 104 683T68 554T32 421T-4 293Q-44 149 -84 0H-166Q-122 158 -78 314Q-59 380 -39 452T2 597T43 737T80 866Q95 918 112 978T147 1103T182 1231T216 1354Q254 1492 293 1634H375Z"/><glyph unicode="∙" horiz-adv-x="352" d="M250 684H100V915H250V684Z"/><glyph unicode="√" horiz-adv-x="760" d="M731 1634L385 -12H231L29 659H127L305 74L627 1634H731Z"/><glyph unicode="∞" horiz-adv-x="1536" d="M1072 396Q924 396 840 480Q800 524 768 588Q732 536 688 496Q580 396 440 396Q284 396 190 508T96 808Q96 984 208 1100T468 1216T704 1132Q748 1096 780 1028Q816 1088 860 1128Q956 1216 1100 1216Q1248 1216 1346 1112T1444 820Q1444 640 1340 518T1072 396ZM612 984Q556 1048 472 1048Q376 1048 316 982T256 792Q256 668 302 610T448 552Q540 552 608 624Q664 684 700 808Q664 932 612 984ZM920 608Q984 556 1072 556Q1156 556 1218 626T1280 816Q1280 916 1234 988T1080 1060Q972 1060 920 968Q880 896 848 804Q860 652 920 608Z"/><glyph unicode="∫" horiz-adv-x="1152" d="M-8 -392L56 -260Q80 -268 104 -274T164 -280Q212 -280 242 -246T288 -112L516 1224Q544 1384 636 1464T880 1544Q972 1544 1042 1522T1152 1476L1088 1304Q1044 1332 988 1356T868 1380Q776 1380 730 1322T672 1188L448 -224Q428 -332 350 -382T176 -432Q116 -432 66 -420T-8 -392Z"/><glyph unicode="≈" horiz-adv-x="1536" d="M236 400Q228 444 228 480Q228 580 288 652T476 724Q576 724 650 696T788 642T912 598T1020 580Q1096 580 1128 610T1160 684Q1160 700 1156 716H1300Q1308 672 1308 636Q1308 536 1248 464T1060 392Q960 392 886 418T748 470T624 512T516 528Q440 528 408 500T376 432Q376 416 380 400H236ZM236 860Q228 904 228 940Q228 1040 288 1112T476 1184Q576 1184 650 1156T788 1102T912 1058T1020 1040Q1096 1040 1128 1070T1160 1144Q1160 1160 1156 1176H1300Q1308 1132 1308 1096Q1308 996 1248 924T1060 852Q960 852 886 878T748 930T624 972T516 988Q440 988 408 960T376 892Q376 876 380 860H236Z"/><glyph unicode="≠" horiz-adv-x="1536" d="M212 976V1176H900L996 1356H1168L1072 1176H1328V976H964L768 604H1328V404H660L548 188H372L488 404H212V604H592L792 976H212Z"/><glyph unicode="≤" horiz-adv-x="1536" d="M1348 236L208 708V872L1348 1344V1128L448 792L1348 452V236ZM212 24V216H1348V24H212Z"/><glyph unicode="≥" horiz-adv-x="1536" d="M212 236V452L1112 792L212 1128V1344L1352 872V708L212 236ZM212 24V216H1348V24H212Z"/><glyph unicode="◊" horiz-adv-x="1152" d="M472 -48L68 756L472 1560H656L1084 756L656 -48H472ZM556 152L876 768L572 1356L252 740L556 152Z"/><glyph unicode="" horiz-adv-x="700" d="M190 662Q176 664 166 676T156 705Q121 757 121 823Q121 894 162 950Q165 958 169 965T180 975Q237 1035 317 1049V1538H10V1628H690V1538H379V1049Q416 1042 449 1026T508 983Q525 976 532 954Q554 928 564 893T575 823Q575 788 567 755T537 696Q533 687 527 679T512 666Q484 640 450 623T377 600V106H690V10H10V106H315V600Q240 612 190 662ZM195 737Q215 740 239 747T283 760Q270 744 256 727T229 694Q268 660 315 651V748L346 815L377 748V651Q402 656 424 666T465 692Q453 709 438 727T410 762Q430 756 455 749T500 737Q524 777 524 823Q524 872 500 911Q481 906 455 900T408 887Q420 904 435 922T463 956Q446 972 424 982T379 997V901L346 831L317 901V997Q293 992 271 981T229 954Q242 937 257 919T287 883Q265 889 239 895T195 907Q172 870 172 823Q172 775 195 737Z"/><glyph unicode="ﬀ" horiz-adv-x="678" d="M207 1036V0H109V1036H10V1126H109V1452Q109 1496 118 1531T146 1592T196 1631T270 1645Q305 1645 325 1642T362 1636V1546Q348 1548 327 1549T287 1550Q243 1550 225 1524T207 1460V1126H432V1450Q432 1493 441 1529T469 1590T520 1630T594 1645Q631 1645 649 1642T684 1636V1546Q670 1548 650 1549T610 1550Q567 1550 550 1525T532 1462V1126H670V1036H532V0H432V1036H207Z"/><glyph unicode="ﬁ" horiz-adv-x="641" d="M449 1036H211V0H111V1036H10V1126H111V1452Q111 1540 150 1592T276 1645Q312 1645 331 1642T367 1636V1546Q353 1548 332 1549T293 1550Q250 1550 231 1524T211 1458V1126H549V98Q549 82 550 65T553 34T556 10T559 0H461Q459 1 457 8T454 28T451 54T449 82V1036Z"/><glyph unicode="ﬂ" horiz-adv-x="647" d="M10 1036V1126H109V1452Q109 1540 147 1592T272 1645Q307 1645 326 1642T362 1636V1546Q348 1548 328 1549T289 1550Q245 1550 227 1525T209 1462V1126H348V1036H209V0H109V1036H10ZM557 0H461Q456 5 454 22T451 59V1542Q451 1554 451 1569T450 1598T448 1622T446 1638H547Q549 1635 550 1615T551 1571V90Q551 12 557 0Z"/><glyph unicode="ﬃ" horiz-adv-x="963" d="M770 1036H532V0H432V1036H207V0H109V1036H10V1126H109V1452Q109 1496 118 1531T146 1592T196 1631T270 1645Q305 1645 325 1642T362 1636V1546Q348 1548 327 1549T287 1550Q243 1550 225 1524T207 1460V1126H432V1450Q432 1493 441 1529T469 1590T520 1630T594 1645Q631 1645 649 1642T684 1636V1546Q670 1548 650 1549T610 1550Q567 1550 550 1525T532 1462V1126H870V98Q870 82 871 65T875 34T878 10T881 0H782Q780 0 778 7T775 27T772 53T770 82V1036Z"/><glyph unicode="ﬄ" horiz-adv-x="967" d="M207 1036V0H109V1036H10V1126H109V1452Q109 1496 118 1531T146 1592T196 1631T270 1645Q305 1645 325 1642T362 1636V1546Q348 1548 327 1549T287 1550Q243 1550 225 1524T207 1460V1126H432V1450Q432 1493 441 1529T469 1590T520 1630T594 1645Q631 1645 650 1642T684 1636V1546Q670 1548 650 1549T610 1550Q567 1550 550 1525T532 1462V1126H670V1036H532V0H432V1036H207ZM877 0H782Q777 5 776 22T774 59V1542Q774 1554 774 1569T773 1598T772 1622T770 1638H870Q870 1635 871 1615T872 1571V90Q872 13 877 0Z"/></font>
</defs>
</svg>
