<?xml version="1.0" encoding="UTF-8"?><svg xmlns="http://www.w3.org/2000/svg" width="100%" height="100%"><defs><font id="web" horiz-adv-x="668"><!--



NOTICE: This font software is the valuable property 
of Webtype LLC, The Font Bureau, Webtype and/or its 
suppliers and its use by you is covered under the terms 
of the Web Font license agreement between you and Webtype 
LLC. You may ONLY use this font software with the licensed 
web site. Except as specifically permitted by the license, 
you may not copy this font software. If you have any 
questions, please contact Webtype.com. 

For more information, please visit http://www.webtype.com/store/license/?id=23

Licensed to: stamped.com

Serial number: SH-916
--><font-face font-family="" units-per-em="2048" panose-1="2 0 5 6 3 0 0 2 0 4" ascent="2118" descent="-432" alphabetic="0"/><missing-glyph horiz-adv-x="295"/><glyph unicode=" " horiz-adv-x="295"/><glyph unicode="!" horiz-adv-x="334" d="M244 1634L229 371H106L90 1634H244ZM244 0H90V262H244V0Z"/><glyph unicode="&quot;" horiz-adv-x="471" d="M428 1634L424 1044H291L285 1634H428ZM182 1634L176 1044H47L41 1634H182Z"/><glyph unicode="#" horiz-adv-x="688" d="M670 993L659 874H514Q513 871 512 863T510 842T506 814T503 783Q499 747 496 702H645L637 582H485L426 -12H330L387 582H254L197 -12H100L156 582H14L23 702H168Q171 747 175 783Q176 798 178 813T181 841T184 862T186 874H37L45 993H199Q200 997 202 1021T209 1084T217 1170T227 1266Q238 1380 252 1524H350L297 993H430Q431 997 433 1021T439 1084T447 1170T456 1266Q467 1380 479 1524H580Q565 1380 554 1266Q549 1217 545 1170T536 1085T530 1022T526 993H670ZM418 874H285L266 702H397Q402 747 406 783Q408 798 410 813T413 841T416 862T418 874Z"/><glyph unicode="$" horiz-adv-x="651" d="M283 16Q168 29 105 94T33 274Q32 286 32 305T31 347T30 393T29 438H170Q170 423 170 403T170 361T170 322T172 291Q184 172 283 154V791Q215 858 168 914T92 1027T49 1151T35 1303Q35 1367 48 1421T90 1514T167 1579T283 1610V1651H373V1610Q432 1603 474 1581T544 1521T586 1434T606 1323Q609 1294 610 1252T612 1163H469Q471 1214 470 1254T467 1317Q462 1376 442 1412T373 1460V897Q436 835 482 784T560 676T606 550T621 383Q621 291 604 225T554 116T476 49T373 18V-84H283V16ZM283 1464Q223 1453 197 1413T170 1290Q170 1242 176 1204T196 1133T231 1067T283 999V1464ZM373 158Q426 173 453 220T481 360Q481 411 478 453T463 534T430 610T373 688V158Z"/><glyph unicode="%" horiz-adv-x="1024" d="M479 1090Q479 1026 465 975T423 889T353 834T256 815Q198 815 157 835T90 891T51 977T39 1090V1378Q39 1438 52 1488T91 1574T159 1631T258 1651Q320 1651 362 1629T431 1570T468 1483T479 1378V1090ZM821 1569L268 0H178L731 1569H821ZM985 260Q985 129 931 58T760 -14Q702 -14 661 5T594 61T555 147T543 260V547Q543 606 556 656T596 743T665 800T764 821Q825 821 867 799T936 739T973 651T985 547V260ZM367 1090V1397Q367 1459 338 1494T258 1530Q152 1530 152 1397V1094Q152 1012 179 973T258 934Q367 934 367 1090ZM872 262V565Q872 627 844 663T764 700Q710 700 683 665T655 565V262Q655 184 683 144T764 104Q821 104 846 142T872 262Z"/><glyph unicode="&amp;" horiz-adv-x="825" d="M358 850Q397 760 448 651T561 426Q577 489 588 573T602 754H737Q737 594 714 475T657 270Q693 205 733 137T813 0H641Q624 32 607 63T573 123Q551 87 522 62T461 20T393 -4T324 -12Q229 -12 170 15T79 93T35 219T23 389Q23 476 36 542T73 664T128 768T197 868Q168 935 150 988T120 1093T105 1198T100 1321Q100 1485 156 1563T338 1642Q449 1642 501 1568T553 1350Q553 1266 537 1197T494 1069T432 956T358 850ZM295 985Q319 1019 341 1057T382 1138T411 1232T422 1341Q422 1430 398 1464T334 1499Q302 1499 283 1488T252 1453T237 1397T233 1319Q233 1269 236 1228T247 1149T266 1072T295 985ZM264 735Q235 691 216 650T184 566T166 480T160 385Q160 308 171 259T203 180T254 140T322 127Q343 127 365 130T409 146T454 182T496 248Q424 384 366 506T264 735Z"/><glyph unicode="'" horiz-adv-x="301" d="M223 1634L215 1028H82L76 1634H223Z"/><glyph unicode="(" horiz-adv-x="360" d="M352 -143H205Q176 -75 146 22T91 236T51 482T35 748Q35 881 52 1013T94 1262T149 1475T205 1634H352Q334 1588 315 1527T276 1395T240 1244T210 1081T190 912T182 743Q182 617 197 491T237 248T291 31T352 -143Z"/><glyph unicode=")" horiz-adv-x="360" d="M334 748Q334 613 319 483T279 237T224 24T164 -143H16Q46 -70 76 31T131 248T170 490T186 743Q186 826 179 911T158 1080T128 1244T92 1395T54 1527T16 1634H164Q189 1572 219 1476T274 1262T317 1013T334 748Z"/><glyph unicode="*" horiz-adv-x="694" d="M395 1405L586 1495L625 1391L420 1298L578 1128L496 1057L346 1231L197 1057L115 1130L270 1298L66 1391L102 1495L297 1405L295 1640H397L395 1405Z"/><glyph unicode="+" horiz-adv-x="610" d="M584 741H371V494H238V741H25V874H238V1116H373V874H584V741Z"/><glyph unicode="," horiz-adv-x="371" d="M272 -4L164 -188L78 -162L150 -8L145 0H96V268H272V-4Z"/><glyph unicode="-" horiz-adv-x="500" d="M483 737H16V887H483V737Z"/><glyph unicode="." horiz-adv-x="371" d="M276 0H92V268H276V0Z"/><glyph unicode="/" horiz-adv-x="340" d="M352 1636L49 -328H-45L256 1636H352Z"/><glyph unicode="0" horiz-adv-x="672" d="M338 1645Q406 1645 456 1624T539 1564T591 1475T614 1366Q619 1297 621 1224T625 1079T627 942T627 823Q627 775 626 705T623 559T618 413T610 291Q596 133 529 61T338 -12Q273 -12 225 5T143 60T91 154T63 291Q60 315 58 353T55 439T52 537T49 640T48 737T47 819Q47 880 47 954T47 1103T50 1245T57 1364Q62 1422 80 1473T133 1563T217 1623T338 1645ZM477 823Q477 894 477 974T476 1129T474 1264T471 1356Q466 1427 434 1467T336 1507Q301 1507 278 1496T239 1465T215 1417T205 1356Q200 1288 198 1215T196 1070T195 933T195 819Q195 772 196 701T198 553T203 400T211 270Q217 201 246 161T338 121Q401 121 428 159T461 268Q474 432 475 568T477 823Z"/><glyph unicode="1" horiz-adv-x="469" d="M385 0H236V1403L27 1382V1507Q86 1516 128 1528T201 1556T250 1592T283 1636H385V0Z"/><glyph unicode="2" horiz-adv-x="641" d="M604 0H33V143Q61 223 102 303T188 464T279 630T360 803T421 984T449 1178V1348Q449 1433 415 1467T317 1501Q254 1501 221 1468T184 1362V1147H39V1370Q41 1429 59 1479T114 1566T204 1624T330 1645Q403 1645 453 1625T534 1569T579 1485T598 1380Q599 1371 599 1341T599 1275T599 1208T598 1163Q595 1064 571 970T509 786T426 611T336 446T252 290T188 143H604V0Z"/><glyph unicode="3" horiz-adv-x="637" d="M385 879Q476 869 532 813T598 649Q601 611 602 557T604 445T603 336T600 250Q589 123 514 56T307 -12Q177 -12 112 47T35 213Q30 258 28 304T25 387T23 450T23 481H168Q168 477 168 448T170 380T173 298T178 225Q183 170 216 147T305 123Q371 123 407 156T446 252Q451 329 453 421T449 623Q444 701 405 740T279 788Q271 789 253 790T216 793Q194 794 168 795V938H213Q231 938 248 938T272 940Q314 943 340 954T384 986T410 1036T426 1106Q428 1121 430 1145T432 1198T433 1257T433 1315T432 1363T430 1395Q422 1455 393 1479T311 1503Q254 1503 224 1472T190 1384Q188 1364 188 1331T187 1264T186 1206T186 1176H47Q47 1180 47 1195T47 1232T48 1279T49 1329T51 1373T53 1405Q58 1458 77 1502T129 1578T208 1627T315 1645Q381 1645 428 1628T506 1580T552 1503T573 1403Q575 1382 576 1345T577 1266T575 1186T571 1122Q566 1074 553 1032T518 958T462 905T385 879Z"/><glyph unicode="4" horiz-adv-x="674" d="M666 399H539V0H397V399H18V549L365 1636H539V532H666V399ZM397 532V1343L145 532H397Z"/><glyph unicode="5" horiz-adv-x="641" d="M602 240Q599 186 580 140T524 60T437 7T319 -12Q185 -12 116 57T41 248Q39 283 39 303T38 342T38 381T39 440H184Q184 432 184 409T184 358T184 305T186 270Q191 201 221 162T315 123Q385 123 414 162T449 272Q450 289 450 327T451 414T451 518T449 626T447 723T444 793Q441 859 412 891T328 924Q305 924 284 918T244 897T212 855T195 786H55L59 1634H571V1489H193L190 971Q210 1017 257 1042T369 1067Q474 1067 534 1008T602 840Q604 808 605 761T607 659T608 545T608 429T606 324T602 240Z"/><glyph unicode="6" horiz-adv-x="659" d="M604 211Q595 164 576 124T526 53T449 6T340 -12Q224 -12 156 46T68 231Q63 264 60 310T54 409T51 518T50 628T49 732T49 819Q49 876 49 952T51 1103T55 1241T59 1335Q65 1407 83 1464T135 1561T217 1623T334 1645Q401 1645 449 1627T528 1578T577 1505T600 1415Q602 1397 603 1372T604 1321T604 1272T604 1237H463Q463 1249 463 1265T463 1299T463 1330T461 1352Q458 1388 451 1416T430 1463T392 1493T334 1503Q263 1503 235 1456T201 1321Q198 1258 197 1189T194 1058T193 951T193 889Q223 950 279 974T406 999Q447 999 482 986T544 948T587 886T606 801Q609 756 611 702T615 590T617 475T617 367T612 276T604 211ZM465 250Q466 265 467 302T469 388T470 492T470 598T468 691T465 758Q460 806 432 835T344 864Q275 864 238 826T193 731Q193 707 193 667T194 579T193 480T194 382T196 299T201 244Q210 175 246 148T338 121Q392 121 424 149T465 250Z"/><glyph unicode="7" horiz-adv-x="561" d="M555 1499L240 0H94L414 1491H8V1634H555V1499Z"/><glyph unicode="8" horiz-adv-x="657" d="M612 238Q594 116 525 52T326 -12Q257 -12 206 6T120 57T66 136T41 238Q39 253 38 286T36 364T35 458T36 556T38 646T43 717Q47 757 62 788T97 841T140 876T184 895Q165 902 146 915T112 951T84 1006T68 1083Q65 1115 63 1166T61 1269T63 1367T68 1432Q83 1530 145 1587T326 1645Q445 1645 508 1589T586 1436Q588 1421 589 1394T591 1333T592 1262T592 1191T590 1129T588 1085Q580 1010 545 961T465 897Q518 885 559 838T612 713Q615 690 617 651T620 565T621 467T620 371T617 291T612 238ZM442 1047Q443 1080 444 1130T446 1234T446 1334T442 1409Q439 1455 406 1482T324 1509Q280 1509 249 1484T211 1411Q208 1385 207 1338T205 1237T206 1132T209 1049Q212 1005 245 981T326 956Q347 956 367 962T404 979T431 1008T442 1047ZM461 233Q463 256 465 295T469 380T471 477T472 574T470 657T465 713Q456 767 419 794T326 821Q273 821 233 794T186 711Q184 690 183 652T181 567T180 469T181 373T183 292T188 240Q196 186 231 153T326 119Q383 119 419 150T461 233Z"/><glyph unicode="9" horiz-adv-x="659" d="M602 268Q588 128 518 58T313 -12Q207 -12 140 45T61 207Q59 225 58 252T57 306T56 356T55 391H197V260Q199 219 208 193T234 151T274 129T328 123Q387 123 421 160T461 268Q462 288 462 326T463 412T464 510T464 605T464 681T465 725Q453 700 433 683T387 654T333 637T274 631Q230 631 193 642T127 674T80 729T55 807Q50 841 48 892T44 1001T44 1122T46 1241T50 1345T57 1423Q63 1473 83 1514T138 1584T221 1629T328 1645Q437 1645 501 1594T594 1430Q599 1409 602 1369T608 1279T610 1170T611 1056T612 947T612 856Q612 819 612 767T612 656T610 537T608 424T606 330T602 268ZM465 877Q464 900 464 942T464 1036T463 1141T462 1243T460 1326T457 1376Q451 1444 418 1475T326 1507Q269 1507 236 1476T197 1382Q195 1367 194 1328T192 1238T191 1129T190 1020T192 930T195 877Q204 768 319 768Q350 768 375 777T418 801T448 835T465 877Z"/><glyph unicode=":" horiz-adv-x="352" d="M268 784H100V1040H268V784ZM268 0H100V256H268V0Z"/><glyph unicode=";" horiz-adv-x="352" d="M268 784H100V1040H268V784ZM268 -2L160 -188L82 -154L150 -6L145 0H100V258H268V-2Z"/><glyph unicode="&lt;" horiz-adv-x="748" d="M696 606V461L41 713V860L696 1110V961L182 788L696 606Z"/><glyph unicode="=" horiz-adv-x="606" d="M578 874H31V1008H578V874ZM578 598H31V733H578V598Z"/><glyph unicode="&gt;" horiz-adv-x="748" d="M43 461V606L557 786L43 961V1110L698 860V713L43 461Z"/><glyph unicode="?" horiz-adv-x="608" d="M567 1208Q564 1140 545 1084T499 973T442 860T387 732T346 574T332 371H209Q205 499 218 592T254 758T304 886T356 995T397 1104T416 1231Q417 1248 417 1267T418 1305T419 1341T418 1372Q415 1438 387 1472T291 1507Q234 1507 203 1473T168 1382Q167 1374 167 1352T166 1306T166 1260T166 1231H29Q29 1255 29 1283T31 1338T33 1386T35 1419Q44 1528 111 1586T305 1645Q433 1645 497 1586T567 1403Q568 1382 568 1357T569 1305T569 1253T567 1208ZM352 0H197V262H352V0Z"/><glyph unicode="@" horiz-adv-x="1348" d="M1294 848Q1283 737 1259 650T1195 502T1103 409T981 377Q907 377 867 420T823 532Q781 455 714 417T559 379Q499 379 452 401T375 467T333 579T330 739Q340 841 369 925T445 1070T553 1163T694 1196Q765 1196 815 1157T885 1059L911 1167L1020 1169Q1018 1154 1012 1119T996 1038T976 940T955 838T936 748T922 682Q913 646 913 612T921 550T950 506T1004 489Q1049 489 1083 516T1143 591T1183 707T1206 854Q1219 1002 1198 1120T1122 1321T976 1448T762 1493Q636 1493 528 1443T339 1302T206 1081T141 795Q124 591 153 450T245 221T401 93T602 53Q669 53 727 64T834 94T926 139T1006 195L1049 127Q1008 95 963 67T865 17T747 -16T602 -29Q471 -29 364 18T183 164T75 417T55 788Q67 969 127 1114T282 1360T503 1515T770 1569Q925 1569 1031 1512T1201 1357T1286 1127T1294 848ZM842 901Q845 924 838 953T813 1009T767 1053T700 1071Q656 1071 617 1053T545 997T488 900T453 758Q436 627 470 565T586 502Q634 502 670 516T732 557T775 622T803 707Q807 724 812 748T824 799T835 853T842 901Z"/><glyph unicode="A" horiz-adv-x="690" d="M207 401Q206 393 204 372T197 320T187 255T177 184Q165 100 150 0H0L264 1634H461L690 0H539Q527 101 516 185Q511 221 507 256T498 320T491 371T487 401H207ZM465 543Q440 715 421 854Q413 913 405 970T391 1074T381 1152T377 1190Q377 1196 376 1211T374 1246T370 1291T366 1340Q362 1397 356 1466Q350 1397 345 1341Q343 1317 341 1293T337 1249T334 1213T332 1192Q331 1183 327 1151T315 1072T299 968T281 851Q260 713 233 543H465Z"/><glyph unicode="B" horiz-adv-x="752" d="M416 0H80V1634H434Q497 1634 542 1614T617 1547T660 1424T674 1235Q674 1161 671 1092T652 967T605 876T518 834Q569 828 603 803T659 729T690 610T700 444Q700 322 686 238T639 100T552 24T416 0ZM518 1202Q518 1294 511 1351T487 1441T446 1484T383 1495H229V891H414Q439 891 458 903T491 950T511 1044T518 1202ZM543 463Q543 557 534 614T507 703T464 745T406 756H229V139H403Q445 139 472 150T514 195T536 294T543 463Z"/><glyph unicode="C" horiz-adv-x="731" d="M700 541Q699 462 695 391T678 257T645 144T588 57T503 2T383 -18Q309 -18 256 -1T166 55T107 159T72 317T55 537T51 827Q51 1031 58 1183T96 1437T193 1589T377 1640Q490 1640 554 1597T649 1480T688 1305T696 1090H545Q545 1194 539 1270T516 1397T466 1471T379 1495Q341 1495 314 1485T267 1447T236 1373T218 1251T209 1073T207 827Q207 673 209 562T218 372T237 246T269 171T317 135T385 125Q446 125 477 159T523 250T541 382T549 541H700Z"/><glyph unicode="D" horiz-adv-x="731" d="M647 166Q634 131 614 101T563 48T490 13T391 0H80V1634H367Q477 1634 549 1590T645 1473Q658 1432 666 1378T679 1250T686 1078T688 852Q688 724 687 614T681 417T668 266T647 166ZM510 233Q515 247 519 284T527 372T532 485T535 611T536 737T537 852Q537 939 535 1021T530 1172T523 1291T514 1364Q500 1427 460 1458T365 1489H231V137H383Q429 137 459 159T510 233Z"/><glyph unicode="E" horiz-adv-x="633" d="M608 0H80V1634H606V1491H229V897H575V754H229V143H608V0Z"/><glyph unicode="F" horiz-adv-x="621" d="M604 1491H231V897H582V754H231V0H80V1634H604V1491Z"/><glyph unicode="G" horiz-adv-x="717" d="M670 0H561L555 86Q533 44 482 16T352 -12Q253 -12 194 31T103 172T61 428T51 817Q51 1028 59 1183T100 1439T196 1590T367 1640Q467 1640 526 1602T615 1494T653 1328T662 1116H512Q512 1221 508 1293T489 1410T446 1475T369 1495Q314 1495 282 1465T234 1357T212 1148T207 815Q207 608 212 474T234 261T283 152T371 121Q440 121 475 159T516 266Q517 277 517 316T518 406T519 515T518 620T518 700T518 733H332V874H668V381Q668 309 668 241T669 119Q669 57 670 0Z"/><glyph unicode="H" horiz-adv-x="758" d="M676 0H526V752H231V0H80V1634H231V897H526V1634H676V0Z"/><glyph unicode="I" horiz-adv-x="315" d="M236 0H80V1634H236V0Z"/><glyph unicode="J" horiz-adv-x="500" d="M428 279Q428 203 407 149T351 61T269 12T170 -4Q117 -4 80 -2T14 6V143Q63 137 137 137Q176 138 202 148T245 178T267 226T274 289V1634H428V279Z"/><glyph unicode="K" horiz-adv-x="715" d="M721 0H559L285 760L231 657V0H80V1634H231V909L561 1634H713L395 920L721 0Z"/><glyph unicode="L" horiz-adv-x="614" d="M600 0H80V1634H233V141H600V0Z"/><glyph unicode="M" horiz-adv-x="977" d="M899 0H760V1178L555 0H416L219 1176V0H80V1634H276L487 373L709 1634H899V0Z"/><glyph unicode="N" horiz-adv-x="752" d="M672 0H504L219 1155V0H80V1634H250L532 440V1634H672V0Z"/><glyph unicode="O" horiz-adv-x="754" d="M379 1640Q450 1640 500 1622T588 1569Q630 1527 654 1459T689 1297T704 1081T707 811Q707 661 704 540T689 326T653 164T586 53Q551 18 501 0T379 -18Q308 -18 257 0T170 53Q128 95 104 163T68 325T54 540T51 811Q51 961 54 1083T69 1299T106 1461T174 1571Q209 1605 259 1622T379 1640ZM379 125Q417 125 444 136T491 177T521 255T539 381T548 563T551 811Q551 953 549 1058T541 1240T523 1365T492 1443T445 1483T379 1495Q340 1495 313 1484T266 1444T236 1366T218 1240T209 1059T207 811Q207 669 209 563T217 381T234 256T265 177T312 137T379 125Z"/><glyph unicode="P" horiz-adv-x="707" d="M668 1147Q668 1073 665 1015T654 910T635 830T606 770Q574 721 524 697T401 666Q388 665 360 665T303 664H231V0H80V1634H408Q483 1634 529 1607T608 1528Q636 1483 652 1389T668 1147ZM514 1143Q514 1252 505 1321T483 1415Q462 1459 434 1474T371 1489H231V805H362Q390 806 410 812T444 828T469 853T487 883Q501 912 507 973T514 1143Z"/><glyph unicode="Q" horiz-adv-x="754" d="M547 27Q558 17 568 7T598 -18Q621 -38 641 -53T678 -74L590 -195Q570 -182 538 -158T471 -102Q446 -79 423 -55T387 -14H379Q308 -14 257 4T170 57Q128 99 104 166T68 326T54 540T51 811Q51 961 54 1083T69 1299T106 1461T174 1571Q209 1605 259 1622T379 1640Q450 1640 500 1622T588 1569Q630 1527 654 1459T689 1297T704 1081T707 811Q707 661 704 541T689 328T653 167T586 57Q576 48 567 41T547 27ZM379 123Q417 123 444 134T491 175T521 254T539 380T548 563T551 811Q551 953 549 1058T541 1240T523 1365T492 1443T445 1483T379 1495Q340 1495 313 1484T266 1444T236 1366T218 1240T209 1059T207 811Q207 669 209 563T217 381T234 255T265 176T312 135T379 123Z"/><glyph unicode="R" horiz-adv-x="723" d="M655 1188Q655 1089 648 1023T623 911Q615 892 604 873T580 839T552 812T522 797L707 0H545L379 756L227 754V0H80V1634H399Q499 1634 552 1588T631 1460Q643 1422 649 1353T655 1188ZM500 1167Q500 1196 499 1230T497 1296T493 1352T489 1384Q481 1432 454 1462T381 1493H229V893Q230 893 253 893T306 893T362 893T393 895Q428 898 449 916T479 961Q485 974 489 999T495 1054T499 1114T500 1167Z"/><glyph unicode="S" horiz-adv-x="680" d="M643 334Q643 157 562 72T332 -14Q264 -14 212 3T122 52T64 126T39 221Q37 252 36 287T34 355T33 410T33 438H178Q178 430 178 411T178 365T180 310T184 252Q191 181 231 151T338 121Q413 121 452 167T492 319Q492 412 473 484T423 614T352 720T270 813Q226 861 183 910T105 1020T50 1155T29 1329Q29 1477 105 1561T334 1645Q407 1645 460 1622T549 1560T604 1469T627 1360Q628 1337 629 1308T631 1252T632 1206T633 1184H483Q483 1185 483 1202T483 1244T481 1295T479 1346Q477 1381 469 1410T443 1459T400 1491T334 1503Q252 1503 217 1459T182 1321Q182 1254 197 1200T239 1100T300 1012T373 930Q421 878 469 822T555 697T618 539T643 334Z"/><glyph unicode="T" horiz-adv-x="618" d="M614 1491H385V0H231V1491H4V1634H614V1491Z"/><glyph unicode="U" horiz-adv-x="739" d="M668 291Q668 148 594 67T373 -14Q308 -14 253 3T156 58T92 154T68 295V1634H217V309Q217 213 256 171T369 129Q443 129 479 172T516 309V1634H668V291Z"/><glyph unicode="V" horiz-adv-x="707" d="M702 1634L442 0H260L0 1634H156L354 262L551 1634H702Z"/><glyph unicode="W" horiz-adv-x="1073" d="M1071 1634L860 0H696Q651 334 616 614Q601 733 587 852T561 1072T543 1249T535 1356Q535 1324 528 1249T510 1073T483 852T453 614Q417 334 371 0H207L0 1634H154Q194 1290 227 1004Q236 923 245 841T262 683T278 537T290 411T298 313T301 252Q301 272 304 313T312 410T325 536T340 682T358 841T378 1004Q411 1290 455 1634H618Q661 1289 695 1003Q709 881 723 760T748 535T765 357T772 252Q772 282 778 357T796 535T820 759T849 1003Q882 1289 926 1634H1071Z"/><glyph unicode="X" horiz-adv-x="698" d="M346 618L152 0H2L274 842L27 1634H182L356 1075L532 1634H682Q610 1415 555 1243Q531 1169 508 1099T468 974T439 884T428 850L694 0H539L346 618Z"/><glyph unicode="Y" horiz-adv-x="729" d="M729 1634L432 596V0H279V592L0 1634H158Q214 1417 258 1239Q277 1163 295 1089T327 953T351 848T360 793Q360 806 369 848T393 952T427 1088T466 1239Q513 1417 573 1634H729Z"/><glyph unicode="Z" horiz-adv-x="621" d="M610 0H18V131L436 1491H43V1634H598V1513L174 141H610V0Z"/><glyph unicode="[" horiz-adv-x="369" d="M342 -334H55V1634H342V1511H197V-219H342V-334Z"/><glyph unicode="\" horiz-adv-x="340" d="M-4 1636H90L393 -328H299L-4 1636Z"/><glyph unicode="]" horiz-adv-x="373" d="M29 -334V-219H174V1513H29V1634H313V-334H29Z"/><glyph unicode="^" horiz-adv-x="760" d="M377 1513L121 1180L31 1274L305 1632H453L729 1274L637 1180L377 1513Z"/><glyph unicode="_" horiz-adv-x="547" d="M547 -252H0V-115H547V-252Z"/><glyph unicode="`" horiz-adv-x="586" d="M420 1198H289L145 1446H293L420 1198Z"/><glyph unicode="a" horiz-adv-x="596" d="M561 0H432Q430 0 428 2T423 12T419 36T416 82Q390 37 342 15T231 -8Q191 -8 156 4T94 41T51 104T33 193Q31 233 31 282T33 375Q39 483 96 554T268 655Q306 665 343 671T412 680V907Q409 1010 313 1010Q271 1010 242 991T205 924Q199 886 198 845T197 743H66Q64 809 67 862T80 965Q95 1045 153 1092T317 1139Q377 1139 420 1124T491 1081T532 1014T547 928Q548 886 548 828T547 710T546 592T545 496Q544 454 544 405T543 307T543 218T543 150Q543 127 544 104T549 60T555 23T561 0ZM414 561Q394 558 374 557T332 551Q294 543 262 530T215 502Q198 485 186 448T170 360Q169 349 169 328T169 284T170 240T172 207Q177 154 205 135T276 115Q315 115 349 134T401 211Q407 227 409 252T411 308T412 372T412 436Q413 447 413 464T414 500T414 535T414 561Z"/><glyph unicode="b" horiz-adv-x="627" d="M369 1139Q403 1139 432 1131T486 1105T529 1058T559 985Q575 922 580 825T586 584Q586 414 577 304T547 127Q533 87 514 62T469 22T414 2T350 -4Q327 -4 304 0T259 13T220 35T190 68L176 0H63V1636H197V1030Q204 1053 220 1073T260 1107T311 1130T369 1139ZM326 1010Q267 1010 237 975T203 887Q200 848 199 810T197 734T197 656T197 571Q197 484 197 426T199 327T201 260T205 207Q209 188 217 170T238 139T271 117T317 109Q347 109 368 115T404 140T427 191T439 276T445 403T446 580Q446 711 444 794T431 926T395 992T326 1010Z"/><glyph unicode="c" horiz-adv-x="586" d="M549 723H416Q416 787 415 839T405 929T373 987T309 1008Q266 1008 241 979T202 894T184 755T180 563Q180 464 183 392T192 271T208 191T232 143T263 121T303 115Q346 115 369 137T403 198T416 286T418 393H549Q553 187 494 88T301 -12Q236 -12 190 8T111 84Q93 115 80 159T59 261T47 394T43 563Q43 727 56 843T109 1030Q140 1086 188 1113T309 1141Q375 1141 420 1120T494 1055T536 947T549 795V723Z"/><glyph unicode="d" horiz-adv-x="618" d="M272 1137Q325 1137 366 1116T428 1053V1636H563V123Q563 103 564 82T567 42Q569 21 571 0H455L434 74Q411 33 373 13T274 -8Q244 -8 217 -3T166 15T123 53T88 117Q66 178 56 282T45 549Q45 730 55 851T102 1042Q151 1137 272 1137ZM305 1006Q261 1006 236 985T199 911T183 770T180 549Q180 414 184 328T202 194T239 127T303 109Q353 109 379 137T418 217Q426 289 428 372T430 549Q430 636 429 695T427 797T423 868T416 924Q406 959 378 982T305 1006Z"/><glyph unicode="e" horiz-adv-x="596" d="M555 340Q555 246 540 180T494 71T417 8T309 -12Q271 -12 239 -7T180 11T132 46T96 102Q67 165 55 274T43 551Q43 732 58 851T113 1038Q144 1092 190 1116T305 1141Q380 1141 429 1116T507 1039T547 910T559 731V502H178Q178 394 182 319T199 198T238 132T305 111Q343 111 366 123T402 163T419 234T424 340H555ZM424 623V766Q424 824 420 870T404 947T367 995T301 1012Q267 1012 244 1000T206 947T185 829T178 623H424Z"/><glyph unicode="f" horiz-adv-x="387" d="M381 999H246V0H109V999H10V1126H109V1452Q109 1540 156 1592T303 1645Q338 1645 358 1643T395 1638V1509Q381 1511 361 1512T319 1513Q281 1513 264 1491T246 1434V1126H381V999Z"/><glyph unicode="g" horiz-adv-x="612" d="M297 1145Q372 1145 415 1127T469 1090Q501 1114 542 1123T629 1130V1024Q620 1024 603 1024T568 1024T536 1022T518 1020Q531 998 538 954T547 860Q548 841 548 800T548 714T547 625T545 559Q540 497 521 454T470 383T396 343T303 330Q260 330 229 340T176 362Q159 357 146 342T133 303Q133 285 142 272T174 250T234 234T328 221Q410 212 466 193T556 144T606 73T621 -23Q621 -144 541 -210T307 -276Q154 -276 78 -219T2 -55Q2 -13 13 19T43 75T82 115T123 143Q94 147 74 160T40 191T22 231T16 276Q16 300 24 321T46 359T78 388T117 406Q88 426 70 468T49 563Q48 576 48 604T48 669T47 745T47 819T47 881T47 918Q48 963 63 1004T108 1076T185 1126T297 1145ZM299 1020Q240 1020 212 988T182 889V569Q184 515 211 483T297 451Q328 451 349 459T383 482T403 519T412 569Q413 589 414 619T416 684T416 755T416 823T415 879T412 915Q405 966 379 993T299 1020ZM305 -170Q407 -170 450 -137T494 -35Q494 28 452 58T315 104Q286 109 260 112T217 117Q174 94 150 61T125 -33Q125 -99 167 -134T305 -170Z"/><glyph unicode="h" horiz-adv-x="608" d="M555 0H416Q415 0 415 5T415 37T414 119T414 276T414 530T414 907Q414 929 409 947T393 978T364 998T317 1006Q268 1006 235 969T201 854V0H63V1636H199V1032Q213 1085 261 1112T375 1139Q413 1139 445 1127T502 1090T539 1027T553 934Q553 704 553 546T553 284T553 123T553 38T554 6T555 0Z"/><glyph unicode="i" horiz-adv-x="272" d="M213 1200H59V1397H213V1200ZM217 0H76Q73 0 70 20T66 82V1126H207V94Q207 48 210 24T217 0Z"/><glyph unicode="j" horiz-adv-x="276" d="M215 1200H63V1397H215V1200ZM209 -170Q209 -217 195 -253T156 -313T96 -349T20 -362Q10 -362 -2 -362T-28 -360T-51 -357T-68 -354V-233H-20Q23 -233 46 -214T70 -147V1126H209V-170Z"/><glyph unicode="k" horiz-adv-x="582" d="M584 0H444L274 553L201 428V0H63V1636H201V657L434 1126H575L367 705L584 0Z"/><glyph unicode="l" horiz-adv-x="258" d="M205 0H70Q65 5 63 22T61 66V1540Q61 1553 61 1568T60 1596T58 1620T55 1636H197Q197 1634 199 1613T201 1569V88Q201 48 202 27T205 0Z"/><glyph unicode="m" horiz-adv-x="913" d="M721 0Q720 0 720 4T720 35T719 116T719 271T719 526T719 905Q719 926 716 945T703 978T677 1001T633 1010Q608 1010 589 999T556 971T535 931T528 885V0H397Q397 0 397 2T396 15T396 50T395 117T395 226T395 389T395 614T395 913Q395 957 376 983T309 1010Q283 1010 263 1000T229 972T208 931T201 881V0H63V1126H197V1024Q212 1077 257 1109T365 1141Q428 1141 465 1109T514 1026Q531 1087 578 1114T682 1141Q730 1141 762 1126T815 1084T843 1020T852 940Q852 708 852 548T852 284T852 122T853 38T854 5T856 0H721Z"/><glyph unicode="n" horiz-adv-x="608" d="M555 0H418Q417 0 417 5T416 36T415 117T414 273T414 528T414 905Q414 958 392 983T319 1008Q294 1008 273 999T235 970T210 917T201 840V0H63V1126H195V1016Q203 1050 221 1073T264 1111T316 1132T373 1139Q421 1139 455 1125T510 1083T541 1018T551 934Q551 703 551 544T551 281T551 121T552 37T553 5T555 0Z"/><glyph unicode="o" horiz-adv-x="616" d="M575 563Q575 396 562 282T512 98Q481 41 433 15T309 -12Q235 -12 186 14T106 96Q69 165 56 280T43 563Q43 738 58 856T115 1042Q146 1093 194 1117T311 1141Q384 1141 432 1118T510 1044Q548 976 561 859T575 563ZM438 561Q438 699 435 786T419 923T380 991T309 1010Q271 1010 246 993T207 927T186 790T180 561Q180 436 183 351T199 214T238 138T309 115Q353 115 378 138T417 214T434 352T438 561Z"/><glyph unicode="p" horiz-adv-x="627" d="M586 584Q586 414 575 304T539 127Q524 90 505 66T463 26T412 5T352 -2Q300 -2 258 16T199 63V-334H63V1126H195V1026Q215 1080 261 1109T369 1139Q433 1139 475 1114T542 1025T576 855T586 584ZM446 578Q446 711 443 795T428 926T392 991T324 1008Q283 1008 258 988T220 919T202 787T197 578Q197 478 198 406T205 283T218 201T241 151T275 127T324 121Q350 121 369 128T402 153T424 204T438 287T444 409T446 578Z"/><glyph unicode="q" horiz-adv-x="623" d="M571 -334H432L426 -324V84Q409 46 374 19T281 -8Q249 -8 220 -3T167 18T123 59T88 125Q65 188 55 293T45 561Q45 742 59 860T111 1044Q138 1092 180 1114T279 1137Q334 1137 371 1117T432 1051V1130H563V-166Q563 -199 564 -229T566 -281T569 -318T571 -334ZM430 573Q430 628 430 681T428 779T424 860T418 913Q409 963 382 985T311 1008Q272 1008 247 987T207 915T186 779T180 563Q180 432 183 346T198 208T233 136T299 115Q350 115 378 141T416 213Q422 241 425 280T429 366T430 466T430 573Z"/><glyph unicode="r" horiz-adv-x="449" d="M449 1133V991Q433 996 404 1000T346 1004Q280 1004 241 950T201 788V0H63V1126H201V1008Q205 1038 220 1062T258 1103T309 1129T369 1139Q395 1139 416 1137T449 1133Z"/><glyph unicode="s" horiz-adv-x="559" d="M528 291Q528 137 463 63T281 -12Q159 -12 97 44T29 213Q27 245 27 274T27 338H158Q158 333 158 321T158 291T158 253T160 213Q163 163 192 135T276 106Q336 106 365 147T395 276Q395 325 384 361T353 425T308 474T254 516Q216 544 177 572T105 642T53 741T33 887Q33 941 48 987T93 1067T168 1121T276 1141Q331 1141 370 1128T437 1090T481 1033T504 961Q506 949 507 922T509 867T510 814T510 780H379Q379 784 379 804T379 849T379 894T377 920Q375 937 369 954T351 985T318 1007T270 1016Q213 1016 190 980T166 881Q166 826 180 788T217 720T270 669T332 625Q359 606 393 580T457 515T507 421T528 291Z"/><glyph unicode="t" horiz-adv-x="401" d="M377 1001H231Q231 948 231 881T231 740T230 590T230 444T229 313T229 209Q229 180 234 163T250 137T275 126T307 123Q323 123 342 124T375 127V4Q350 -1 320 -3T254 -6Q222 -6 193 3T141 33T104 89T90 178V1001H4V1126H90Q90 1127 90 1135T90 1155T91 1184T92 1217L94 1305L229 1311V1126H377V1001Z"/><glyph unicode="u" horiz-adv-x="612" d="M555 0H420L416 70Q403 47 385 32T346 8T300 -4T250 -8Q208 -8 173 4T112 43T73 110T59 211V1126H199V225Q199 113 297 113Q351 113 381 150T412 260V1126H551V139Q551 82 552 47T555 0Z"/><glyph unicode="v" horiz-adv-x="590" d="M586 1126L377 0H215L4 1126H143L299 182L453 1126H586Z"/><glyph unicode="w" horiz-adv-x="932" d="M932 1126L748 0H588Q562 161 539 301Q529 361 520 421T501 535T486 631T475 698Q474 718 473 750T470 814Q468 850 467 889Q466 849 465 813Q464 782 463 750T459 698Q456 674 450 631T437 535T420 421T402 301Q381 162 356 0H188L4 1126H145L276 170L393 1126H541L670 170L791 1126H932Z"/><glyph unicode="x" horiz-adv-x="563" d="M285 727L418 1126H555L360 588L559 0H420L276 436L139 0H2L203 580L14 1126H158L285 727Z"/><glyph unicode="y" horiz-adv-x="588" d="M584 1126L283 -334H141L223 55L4 1126H145Q145 1124 151 1088T168 994T192 864T219 715T246 566T269 436T286 343T293 305Q293 307 300 342T317 435T341 566T369 715T397 863T421 994T439 1088T446 1126H584Z"/><glyph unicode="z" horiz-adv-x="508" d="M489 0H20V131L342 999H27V1126H483V989L158 127H489V0Z"/><glyph unicode="{" horiz-adv-x="524" d="M489 -332H373Q311 -332 271 -311T207 -253T174 -169T164 -70Q164 -12 170 53T182 187T195 324T201 457Q201 501 194 541T169 611T120 660T39 678V811Q89 812 121 829T171 876T196 945T203 1026Q203 1069 197 1111T184 1199T170 1292T164 1397Q164 1442 174 1484T209 1559T272 1612T371 1632H489V1503Q435 1504 398 1498T339 1474T308 1424T299 1341Q300 1315 305 1273T318 1183T330 1087T336 1001Q336 958 330 915T307 836T261 776T184 745Q232 740 262 714T308 650T330 567T336 479Q336 416 330 353T317 223T304 88T297 -55Q296 -100 305 -128T337 -173T397 -195T489 -199V-332Z"/><glyph unicode="|" horiz-adv-x="346" d="M233 -410H115V1638H233V-410Z"/><glyph unicode="}" horiz-adv-x="524" d="M29 -332V-199Q84 -201 121 -195T181 -173T213 -129T223 -55Q222 19 216 88T202 223T188 352T182 479Q182 521 188 566T210 650T256 714T334 745Q288 751 259 775T212 836T189 915T182 1001Q182 1039 188 1087T202 1183T216 1273T223 1341Q224 1391 215 1423T182 1474T122 1498T29 1503V1632H147Q205 1632 245 1612T310 1559T345 1484T356 1397Q356 1341 350 1293T337 1199T323 1112T317 1026Q317 984 323 945T348 877T397 830T479 811V678Q430 678 399 660T350 612T326 541T319 457Q319 392 325 324T337 188T350 54T356 -70Q356 -121 347 -168T313 -252T248 -310T145 -332H29Z"/><glyph unicode="~" horiz-adv-x="625" d="M293 729Q279 745 268 759T245 785T220 802T188 809Q167 809 153 799T130 771T115 731T106 686L4 721Q20 832 68 890T188 948Q212 948 232 944T270 930T305 904T342 862Q362 836 385 814T442 791Q480 791 500 821T526 905L629 862Q615 766 568 711T442 655Q399 655 365 671T293 729Z"/><glyph unicode=" " horiz-adv-x="147"/><glyph unicode="¡" horiz-adv-x="334" d="M92 1634H244V1374H92V1634ZM92 -2L106 1266H229L246 -2H92Z"/><glyph unicode="¢" horiz-adv-x="604" d="M362 1362Q453 1353 502 1303T563 1180Q565 1160 567 1128T572 1061T576 999T578 958H444Q444 970 444 988T443 1027T442 1068T440 1106Q434 1216 362 1237V354Q393 364 411 390T438 463Q439 473 440 496T443 546T445 596T446 631H578Q578 616 577 588T572 527T565 465T557 416Q517 258 362 240V84H270V240Q196 251 146 291T78 412Q72 443 67 479T59 562T55 667T53 801Q53 860 54 906T59 995T67 1079T82 1171Q96 1250 143 1298T270 1360V1501H362V1362ZM270 1233Q247 1221 232 1195T211 1124Q207 1091 205 1058T201 986T198 902T197 799Q197 769 198 724T201 632T205 540T211 467Q216 421 231 396T270 360V1233Z"/><glyph unicode="£" horiz-adv-x="631" d="M162 788Q147 836 131 885T102 986T80 1094T68 1210Q67 1229 67 1254T66 1305T66 1355T68 1395Q71 1449 86 1495T132 1574T210 1626T326 1645Q400 1645 449 1626T528 1572T571 1493T586 1395Q586 1388 586 1362T586 1300T587 1223T587 1146T588 1084T588 1051H449V1378Q445 1452 417 1481T328 1511Q297 1512 276 1502T242 1474T222 1430T213 1374Q212 1365 212 1342T212 1293T212 1242T213 1204Q214 1146 222 1092T243 987T271 886T303 788H549V664H334Q346 614 353 568T360 483Q358 407 343 349T304 247T251 177T193 135H600V0H39V143Q77 164 110 196T167 272T206 368T223 483Q225 515 217 562T197 664H61V788H162Z"/><glyph unicode="¥" horiz-adv-x="735" d="M287 418H45V522H287V606L0 1634H150Q208 1417 255 1238Q275 1162 294 1087T328 950T352 844T362 786Q362 801 372 845T398 951T434 1088T476 1239Q525 1417 588 1634H737L432 612V522H682V418H432V336H682V231H432V0H287V231H45V336H287V418Z"/><glyph unicode="¦" horiz-adv-x="346" d="M233 733H113V1638H233V733ZM233 -410H113V455H233V-410Z"/><glyph unicode="§" horiz-adv-x="547" d="M43 930Q47 975 58 1007T83 1061T115 1096T147 1118Q102 1150 82 1196T59 1309V1440Q64 1539 119 1589T272 1640Q319 1640 357 1629T423 1594T467 1530T487 1434Q488 1430 488 1410T489 1365T489 1321T489 1296H381V1423Q379 1477 357 1506T281 1536Q228 1536 202 1512T172 1425V1315Q173 1286 179 1265T197 1228T229 1198T274 1169Q281 1165 295 1158T327 1140T361 1120T391 1102Q449 1064 473 1015T504 913Q505 899 506 877T508 830T507 782T502 743Q496 702 484 673T456 624T424 592T389 571Q448 534 481 481T518 350V201Q513 92 457 37T287 -18Q234 -18 192 -7T118 31T69 98T47 201Q46 204 46 224T45 268T45 312T45 338H170V209Q173 152 198 121T287 90Q347 90 372 119T399 215Q400 219 400 238T400 278T400 318T399 342Q397 372 390 394T370 435T337 468T291 500Q283 504 266 515T228 538T185 564T145 588Q96 626 71 673T41 778Q39 793 39 813T38 855T39 897T43 930ZM154 772Q161 751 174 734T208 701T255 669T319 631Q333 632 346 644T369 676T387 721T397 774Q398 786 398 806T399 848T396 888T389 915Q381 938 367 955T332 988T287 1017T231 1047Q217 1046 203 1036T177 1007T157 966T147 915Q145 901 144 882T143 842T146 803T154 772Z"/><glyph unicode="¨" horiz-adv-x="586" d="M477 1198H348V1397H477V1198ZM236 1198H109V1397H236V1198Z"/><glyph unicode="©" horiz-adv-x="848" d="M809 973Q807 865 781 785T705 652T586 573T426 547Q337 547 265 573T143 651T66 784T37 973Q37 994 37 1024T37 1090T37 1165T39 1243Q40 1350 69 1425T149 1548T270 1618T424 1640Q506 1640 576 1619T697 1550T777 1426T809 1241Q810 1214 810 1182T810 1116T810 1045T809 973ZM745 1004V1251Q743 1334 720 1394T654 1493T554 1550T424 1569Q353 1569 295 1551T194 1495T127 1396T102 1253Q101 1221 101 1185T101 1114T101 1051T102 1004Q103 898 126 824T191 703T292 635T424 614Q502 614 561 634T660 701T722 822T745 1004ZM602 1004Q601 995 601 977T600 940T600 903T598 879Q592 807 544 771T422 735Q341 735 298 772T248 879Q246 903 246 924T245 968T244 1013T244 1065Q244 1093 244 1122T245 1179T246 1228T248 1262Q252 1300 267 1328T307 1374T363 1402T430 1411Q509 1411 551 1369T598 1255Q600 1234 601 1206T602 1145H508Q508 1173 508 1204T506 1253Q501 1285 483 1302T430 1319Q347 1319 338 1237Q337 1225 337 1204T336 1159T336 1109T336 1065Q336 1046 336 1023T337 978T338 938T340 911Q343 860 364 839T426 817Q463 817 484 835T508 905Q509 920 509 935T510 964T510 988T510 1004H602Z"/><glyph unicode="ª" horiz-adv-x="588" d="M532 584H401Q399 602 397 619Q395 633 394 647T393 670Q370 625 325 602T219 578Q180 578 146 588T85 627T44 707T29 842Q29 932 44 999T100 1111T211 1182T389 1217Q389 1231 389 1257T390 1312T390 1369T391 1415Q388 1516 301 1516Q265 1516 243 1503T210 1461T194 1391T190 1292H61Q58 1370 67 1434T103 1544T177 1615T297 1640Q358 1640 401 1626T470 1584T509 1519T522 1434Q523 1392 523 1340T522 1234T521 1129T520 1038Q519 997 519 955T520 872T521 795T522 733Q522 711 522 688T524 644T527 607T532 584ZM553 408H33V524H553V408ZM389 1104Q324 1104 280 1092T207 1051Q192 1034 184 1019T171 982T167 932T166 858Q166 767 185 731T252 694Q305 694 336 721T377 797Q385 834 386 877T389 977V1104Z"/><glyph unicode="«" horiz-adv-x="645" d="M610 268L322 657V766L610 1157V954L440 713L610 473V268ZM324 268L35 657V766L324 1157V954L154 713L324 473V268Z"/><glyph unicode="¬" horiz-adv-x="1536" d="M1116 352V728H212V920H1296V352H1116Z"/><glyph unicode="­" horiz-adv-x="500" d="M483 737H16V887H483V737Z"/><glyph unicode="®" horiz-adv-x="848" d="M809 973Q807 865 781 785T705 652T586 573T426 547Q337 547 265 573T143 651T66 784T37 973Q37 994 37 1024T37 1090T37 1165T39 1243Q40 1350 69 1425T149 1548T270 1618T424 1640Q506 1640 576 1619T697 1550T777 1426T809 1241Q810 1214 810 1182T810 1116T810 1045T809 973ZM745 1004V1251Q743 1334 720 1394T654 1493T554 1550T424 1569Q353 1569 295 1551T194 1495T127 1396T102 1253Q101 1221 101 1185T101 1114T101 1051T102 1004Q103 899 127 825T193 704T294 636T424 614Q502 614 561 635T660 702T722 823T745 1004ZM618 754H510L420 1020H340V754H236V1386H428Q484 1386 528 1368T590 1321Q607 1293 612 1262T618 1208Q618 1197 616 1181T611 1147T602 1113T590 1085Q576 1062 557 1051T520 1034L618 754ZM514 1192Q514 1218 506 1244T471 1286Q451 1297 421 1298T340 1300V1100Q380 1100 413 1100T463 1106Q491 1115 502 1135T514 1192Z"/><glyph unicode="¯" horiz-adv-x="586" d="M487 1225H96V1333H487V1225Z"/><glyph unicode="°" horiz-adv-x="414" d="M207 1536Q246 1536 280 1521T339 1480T378 1418T393 1343Q393 1302 379 1267T339 1207T280 1166T207 1151Q169 1151 136 1166T77 1206T38 1267T23 1343Q23 1383 37 1418T77 1479T135 1521T207 1536ZM207 1436Q188 1436 171 1429T142 1409T122 1379T115 1343Q115 1323 122 1306T141 1277T171 1258T207 1251Q247 1251 273 1277T299 1343Q299 1382 273 1409T207 1436Z"/><glyph unicode="±" horiz-adv-x="1536" d="M672 352V764H200V936H672V1352H864V936H1340V764H864V352H672ZM204 24V216H1336V24H204Z"/><glyph unicode="²" horiz-adv-x="543" d="M475 795H61V877Q77 931 106 977T169 1064T238 1145T301 1223T347 1305T365 1395V1444Q365 1505 340 1527T266 1550Q224 1550 204 1530T178 1458Q176 1440 175 1411T174 1356H68Q68 1376 68 1406T70 1456Q77 1542 127 1591T279 1640Q332 1640 368 1627T428 1589T461 1532T473 1460V1378Q472 1331 457 1290T416 1211T359 1135T298 1060T241 979T197 889H475V795Z"/><glyph unicode="³" horiz-adv-x="541" d="M301 1212Q362 1210 398 1198T455 1166T483 1122T492 1075Q495 1023 492 965Q489 912 472 877T427 820T360 789T274 780Q228 780 190 789T124 817T80 865T63 936Q62 954 62 973T61 1007T61 1033T61 1044H170V934Q170 894 197 879T276 864Q306 864 325 870T356 889T373 918T379 956V1055Q378 1078 374 1096T355 1126T316 1147T248 1157Q247 1157 235 1157T207 1159Q189 1160 168 1161V1251L206 1253Q220 1254 232 1254T246 1255Q280 1261 303 1268T340 1290T359 1327T365 1386Q365 1422 366 1441T365 1479Q363 1517 342 1534T276 1552Q187 1552 184 1481Q184 1466 184 1449T185 1416T185 1391T186 1380H78Q78 1381 78 1392T80 1419T82 1455T84 1489Q87 1558 136 1600T279 1642Q336 1642 373 1630T432 1596T463 1545T473 1483V1395Q472 1351 465 1319T438 1265T385 1231T301 1212Z"/><glyph unicode="´" horiz-adv-x="586" d="M190 1198L313 1446H463L315 1198H190Z"/><glyph unicode="µ" horiz-adv-x="1408" d="M252 -424Q196 -424 168 -392T140 -280Q140 -200 144 -106T156 100Q164 200 168 256T172 328Q176 348 176 356V1176H368V320Q368 228 450 176T628 124Q760 124 858 190T1008 380V1176H1200V308L1220 0H1056L1020 176Q952 68 836 14T572 -40Q520 -40 444 -14T324 60Q324 -28 352 -112T380 -264Q380 -424 252 -424Z"/><glyph unicode="¶" horiz-adv-x="600" d="M557 1634V-209H487V1518H440V-209H367V539Q347 508 310 489T223 469Q62 469 41 641Q32 710 30 809T27 1047Q27 1150 27 1214T29 1322T34 1397T43 1466Q55 1548 103 1595T225 1642Q248 1642 270 1637T312 1623T347 1601T371 1569L397 1634H557ZM369 1071V1411Q369 1436 362 1454T342 1484T315 1501T283 1507Q261 1507 246 1502T219 1483T201 1448T190 1393Q186 1354 184 1306T180 1211T177 1123T176 1057Q176 1028 176 977T178 869T182 760T188 678Q193 636 217 616T276 596Q318 596 340 622T367 694Q368 706 368 744T369 835T369 950T369 1071Z"/><glyph unicode="·" horiz-adv-x="369" d="M276 668H90V936H276V668Z"/><glyph unicode="¸" horiz-adv-x="586" d="M362 -199Q362 -158 328 -144T236 -129V0H330V-61Q398 -61 438 -103T479 -215Q479 -253 461 -286T406 -341T312 -373T178 -371V-283Q276 -298 319 -273T362 -199Z"/><glyph unicode="¹" horiz-adv-x="475" d="M313 795H205V1460L33 1446V1530Q70 1531 103 1539T164 1562T210 1596T238 1636H313V795Z"/><glyph unicode="º" horiz-adv-x="590" d="M547 1116Q547 1068 545 1019T540 923T531 835T518 762Q500 674 444 625T293 575Q243 575 205 589T139 627T94 684T68 756Q62 786 57 828T49 918T43 1017T41 1116Q41 1161 42 1208T46 1300T54 1385T66 1456Q75 1497 93 1531T139 1590T206 1628T295 1642Q397 1642 452 1592T526 1452Q532 1424 536 1386T543 1303T546 1210T547 1116ZM567 408H33V524H567V408ZM412 1114Q412 1156 411 1200T408 1286T403 1363T395 1421Q386 1472 361 1492T293 1513Q209 1513 190 1423Q185 1396 182 1360T177 1283T175 1199T174 1114Q174 1071 175 1024T180 931T187 847T197 782Q205 739 230 719T293 698Q333 698 358 719T391 784Q395 809 399 848T406 931T410 1023T412 1114Z"/><glyph unicode="»" horiz-adv-x="645" d="M324 274V479L494 719L324 963V1165L612 774V666L324 274ZM35 274V479L207 719L35 963V1165L326 774V666L35 274Z"/><glyph unicode="¼" horiz-adv-x="961" d="M295 795H186V1460L12 1446V1530Q90 1532 145 1562T221 1636H295V795ZM715 1634Q673 1487 632 1339Q614 1276 595 1207T556 1067T517 927T479 797Q463 739 445 674T408 543T371 410T336 283Q296 141 258 0H176Q219 151 262 304Q280 369 300 440T341 585T382 729T420 864Q436 920 453 983T489 1110T525 1239T559 1361Q597 1497 635 1634H715ZM926 240H836V0H729V240H451V334L713 838H836V332H926V240ZM729 332V688L553 332H729Z"/><glyph unicode="½" horiz-adv-x="954" d="M293 795H184V1460L10 1446V1530Q86 1532 142 1562T219 1636H293V795ZM682 1634Q641 1487 599 1339Q581 1276 561 1207T521 1067T482 927T444 797Q428 739 410 674T373 543T336 410T301 283Q261 141 223 0H143Q187 151 230 304Q248 369 268 440T309 585T349 729T387 864Q403 920 420 983T456 1110T492 1239T526 1361Q564 1497 602 1634H682ZM913 0H502V82Q518 136 546 182T608 270T676 350T739 428T785 510T803 600V649Q803 711 780 733T705 756Q663 756 644 736T618 664Q616 645 615 616T614 561H508Q508 571 508 584T508 611T508 638T510 662Q517 747 566 796T717 846Q770 846 806 833T866 795T900 738T913 666Q913 660 913 649T912 626T912 602T911 584Q910 537 894 496T853 416T797 340T735 264T678 183T635 92H913V0Z"/><glyph unicode="¾" horiz-adv-x="1030" d="M260 1212Q320 1210 356 1198T413 1166T441 1122T451 1075Q454 1023 451 965Q448 912 431 877T386 820T320 789T233 780Q188 780 150 789T84 817T40 865T23 936Q22 954 22 973T21 1007T20 1033T20 1044H129V934Q129 894 157 879T236 864Q266 864 285 870T315 889T332 918T338 956V1055Q337 1078 333 1096T314 1126T275 1147T207 1157Q206 1157 194 1157T167 1159L129 1161V1251Q149 1252 166 1253Q180 1254 192 1254T205 1255Q239 1261 262 1268T299 1290T319 1327T326 1386V1479Q324 1517 302 1534T236 1552Q148 1552 145 1481Q144 1466 144 1449T143 1416T143 1391T143 1380H37Q37 1381 37 1392T38 1419T39 1455T41 1489Q46 1558 95 1600T238 1642Q295 1642 332 1630T391 1596T422 1545T432 1483V1395Q432 1351 425 1319T398 1265T346 1231T260 1212ZM803 1634Q760 1487 718 1339Q700 1276 681 1207T641 1067T602 927T565 797Q549 739 531 674T494 543T457 410T422 283Q382 141 344 0H264Q308 151 351 304Q369 369 389 440T430 585T470 729T508 864Q524 920 541 983T577 1110T613 1239T648 1361Q687 1497 725 1634H803ZM1008 240H918V0H813V240H535V334L795 838H918V332H1008V240ZM813 332V690L635 332H813Z"/><glyph unicode="¿" horiz-adv-x="608" d="M258 1634H414V1372H258V1634ZM43 426Q45 494 64 550T110 661T167 774T223 902T263 1061T276 1264H401Q405 1136 392 1042T356 876T306 748T254 638T212 528T193 401Q192 385 192 366T191 327T192 289T195 258Q197 192 223 158T315 123Q375 123 406 157T440 248Q441 256 441 278T442 326T442 373T442 403H580Q580 379 580 351T579 296T577 248T575 215Q566 107 498 49T303 -10Q175 -10 113 49T43 231Q41 252 41 278T41 330T41 382T43 426Z"/><glyph unicode="À" horiz-adv-x="690" d="M207 401Q206 393 204 372T197 320T187 255T177 184Q165 100 150 0H0L264 1634H461L690 0H539Q527 101 516 185Q511 221 507 256T498 320T491 371T487 401H207ZM465 543Q440 715 421 854Q413 913 405 970T391 1074T381 1152T377 1190Q377 1196 376 1211T374 1246T370 1291T366 1340Q362 1397 356 1466Q350 1397 345 1341Q343 1317 341 1293T337 1249T334 1213T332 1192Q331 1183 327 1151T315 1072T299 968T281 851Q260 713 233 543H465ZM444 1704H313L170 1952H317L444 1704Z"/><glyph unicode="Á" horiz-adv-x="690" d="M207 401Q206 393 204 372T197 320T187 255T177 184Q165 100 150 0H0L264 1634H461L690 0H539Q527 101 516 185Q511 221 507 256T498 320T491 371T487 401H207ZM465 543Q440 715 421 854Q413 913 405 970T391 1074T381 1152T377 1190Q377 1196 376 1211T374 1246T370 1291T366 1340Q362 1397 356 1466Q350 1397 345 1341Q343 1317 341 1293T337 1249T334 1213T332 1192Q331 1183 327 1151T315 1072T299 968T281 851Q260 713 233 543H465ZM287 1704L410 1952H559L412 1704H287Z"/><glyph unicode="Â" horiz-adv-x="690" d="M207 401Q206 393 204 372T197 320T187 255T177 184Q165 100 150 0H0L264 1634H461L690 0H539Q527 101 516 185Q511 221 507 256T498 320T491 371T487 401H207ZM465 543Q440 715 421 854Q413 913 405 970T391 1074T381 1152T377 1190Q377 1196 376 1211T374 1246T370 1291T366 1340Q362 1397 356 1466Q350 1397 345 1341Q343 1317 341 1293T337 1249T334 1213T332 1192Q331 1183 327 1151T315 1072T299 968T281 851Q260 713 233 543H465ZM567 1706H446L356 1864L268 1706H150L281 1954H438L567 1706Z"/><glyph unicode="Ã" horiz-adv-x="690" d="M207 401Q206 393 204 372T197 320T187 255T177 184Q165 100 150 0H0L264 1634H461L690 0H539Q527 101 516 185Q511 221 507 256T498 320T491 371T487 401H207ZM465 543Q440 715 421 854Q413 913 405 970T391 1074T381 1152T377 1190Q377 1196 376 1211T374 1246T370 1291T366 1340Q362 1397 356 1466Q350 1397 345 1341Q343 1317 341 1293T337 1249T334 1213T332 1192Q331 1183 327 1151T315 1072T299 968T281 851Q260 713 233 543H465ZM350 1745Q330 1765 313 1780T279 1796Q257 1796 244 1777T227 1712L127 1720Q130 1763 141 1798T169 1859T211 1899T264 1913Q296 1913 325 1904T381 1862Q396 1843 407 1833T436 1823Q461 1823 472 1842T489 1909L588 1898Q582 1809 546 1758T449 1706Q420 1706 398 1712T350 1745Z"/><glyph unicode="Ä" horiz-adv-x="690" d="M207 401Q206 393 204 372T197 320T187 255T177 184Q165 100 150 0H0L264 1634H461L690 0H539Q527 101 516 185Q511 221 507 256T498 320T491 371T487 401H207ZM465 543Q440 715 421 854Q413 913 405 970T391 1074T381 1152T377 1190Q377 1196 376 1211T374 1246T370 1291T366 1340Q362 1397 356 1466Q350 1397 345 1341Q343 1317 341 1293T337 1249T334 1213T332 1192Q331 1183 327 1151T315 1072T299 968T281 851Q260 713 233 543H465ZM543 1704H414V1903H543V1704ZM301 1704H174V1903H301V1704Z"/><glyph unicode="Å" horiz-adv-x="690" d="M260 1612Q242 1633 231 1660T219 1718Q219 1749 230 1776T260 1824T305 1856T360 1868Q390 1868 416 1857T463 1825T494 1777T506 1718Q506 1687 495 1661T463 1614L690 0H539Q527 101 516 185Q511 221 507 256T498 320T491 371T487 401H207Q206 393 204 372T197 320T187 255T177 184Q165 100 150 0H0L260 1612ZM360 1788Q334 1788 316 1767T297 1718Q297 1692 315 1672T360 1651Q388 1651 407 1671T426 1718Q426 1746 407 1767T360 1788ZM465 543Q440 715 421 854Q413 913 405 970T391 1074T381 1152T377 1190Q377 1196 376 1211T374 1246T370 1291T366 1340Q362 1397 356 1466Q350 1397 345 1341Q343 1317 341 1293T337 1249T334 1213T332 1192Q331 1183 327 1151T315 1072T299 968T281 851Q260 713 233 543H465Z"/><glyph unicode="Æ" horiz-adv-x="928" d="M918 1634V1491H557V897H883V754H557V143H915V0H412V389H219L150 0H-2L326 1634H918ZM410 1450L394 1340Q391 1319 388 1299T383 1263T379 1237T377 1225L244 524H410V1450Z"/><glyph unicode="Ç" horiz-adv-x="731" d="M332 -16Q239 -8 184 38T99 183T60 439T51 827Q51 1031 58 1183T96 1437T193 1589T377 1640Q490 1640 554 1597T649 1480T688 1305T696 1090H545Q545 1194 539 1270T516 1397T466 1471T379 1495Q341 1495 314 1485T267 1447T236 1373T218 1251T209 1073T207 827Q207 673 209 562T218 372T237 246T269 171T317 135T385 125Q446 125 477 159T523 250T541 382T549 541H700Q698 430 689 332T652 160T570 40T426 -16V-61Q494 -61 534 -103T575 -215Q575 -253 557 -286T502 -341T408 -373T274 -371V-283Q373 -298 416 -273T459 -199Q459 -158 425 -144T332 -129V-16Z"/><glyph unicode="È" horiz-adv-x="633" d="M608 0H80V1634H606V1491H229V897H575V754H229V143H608V0ZM449 1704H317L174 1952H322L449 1704Z"/><glyph unicode="É" horiz-adv-x="633" d="M608 0H80V1634H606V1491H229V897H575V754H229V143H608V0ZM246 1704L369 1952H518L371 1704H246Z"/><glyph unicode="Ê" horiz-adv-x="633" d="M608 0H80V1634H606V1491H229V897H575V754H229V143H608V0ZM555 1706H434L344 1864L256 1706H137L268 1954H426L555 1706Z"/><glyph unicode="Ë" horiz-adv-x="633" d="M608 0H80V1634H606V1491H229V897H575V754H229V143H608V0ZM528 1704H399V1903H528V1704ZM287 1704H160V1903H287V1704Z"/><glyph unicode="Ì" horiz-adv-x="315" d="M236 0H80V1634H236V0ZM238 1704H106L-37 1952H111L238 1704Z"/><glyph unicode="Í" horiz-adv-x="315" d="M236 0H80V1634H236V0ZM80 1704L203 1952H352L205 1704H80Z"/><glyph unicode="Î" horiz-adv-x="315" d="M236 0H80V1634H236V0ZM367 1706H246L156 1864L68 1706H-51L80 1954H238L367 1706Z"/><glyph unicode="Ï" horiz-adv-x="315" d="M236 0H80V1634H236V0ZM342 1704H213V1903H342V1704ZM100 1704H-27V1903H100V1704Z"/><glyph unicode="Ð" horiz-adv-x="731" d="M82 741H18V901H82V1634H379Q490 1634 553 1592T643 1468Q652 1447 659 1407T670 1314T678 1201T683 1078T685 958T686 852Q686 796 686 731T684 597T680 462T673 337T661 235T645 166Q633 132 615 102T569 50T500 14T401 0H82V741ZM231 901H377V741H231V135H393Q441 135 474 157T520 231Q524 248 527 294T533 401T536 531T539 663T540 776T541 852Q541 876 540 919T538 1014T534 1121T530 1225T524 1311T518 1364Q506 1427 471 1457T379 1487H231V901Z"/><glyph unicode="Ñ" horiz-adv-x="752" d="M672 0H504L219 1155V0H80V1634H250L532 440V1634H672V0ZM391 1745Q371 1765 354 1780T319 1796Q298 1796 285 1777T268 1712L168 1720Q171 1763 182 1798T210 1859T252 1899T305 1913Q337 1913 366 1904T422 1862Q437 1843 448 1833T477 1823Q502 1823 513 1842T530 1909L629 1898Q623 1809 587 1758T489 1706Q460 1706 438 1712T391 1745Z"/><glyph unicode="Ò" horiz-adv-x="754" d="M379 1640Q450 1640 500 1622T588 1569Q630 1527 654 1459T689 1297T704 1081T707 811Q707 661 704 540T689 326T653 164T586 53Q551 18 501 0T379 -18Q308 -18 257 0T170 53Q128 95 104 163T68 325T54 540T51 811Q51 961 54 1083T69 1299T106 1461T174 1571Q209 1605 259 1622T379 1640ZM379 125Q417 125 444 136T491 177T521 255T539 381T548 563T551 811Q551 953 549 1058T541 1240T523 1365T492 1443T445 1483T379 1495Q340 1495 313 1484T266 1444T236 1366T218 1240T209 1059T207 811Q207 669 209 563T217 381T234 256T265 177T312 137T379 125ZM455 1704H324L180 1952H328L455 1704Z"/><glyph unicode="Ó" horiz-adv-x="754" d="M379 1640Q450 1640 500 1622T588 1569Q630 1527 654 1459T689 1297T704 1081T707 811Q707 661 704 540T689 326T653 164T586 53Q551 18 501 0T379 -18Q308 -18 257 0T170 53Q128 95 104 163T68 325T54 540T51 811Q51 961 54 1083T69 1299T106 1461T174 1571Q209 1605 259 1622T379 1640ZM379 125Q417 125 444 136T491 177T521 255T539 381T548 563T551 811Q551 953 549 1058T541 1240T523 1365T492 1443T445 1483T379 1495Q340 1495 313 1484T266 1444T236 1366T218 1240T209 1059T207 811Q207 669 209 563T217 381T234 256T265 177T312 137T379 125ZM301 1704L424 1952H573L426 1704H301Z"/><glyph unicode="Ô" horiz-adv-x="754" d="M379 1640Q450 1640 500 1622T588 1569Q630 1527 654 1459T689 1297T704 1081T707 811Q707 661 704 540T689 326T653 164T586 53Q551 18 501 0T379 -18Q308 -18 257 0T170 53Q128 95 104 163T68 325T54 540T51 811Q51 961 54 1083T69 1299T106 1461T174 1571Q209 1605 259 1622T379 1640ZM379 125Q417 125 444 136T491 177T521 255T539 381T548 563T551 811Q551 953 549 1058T541 1240T523 1365T492 1443T445 1483T379 1495Q340 1495 313 1484T266 1444T236 1366T218 1240T209 1059T207 811Q207 669 209 563T217 381T234 256T265 177T312 137T379 125ZM586 1706H465L375 1864L287 1706H168L299 1954H457L586 1706Z"/><glyph unicode="Õ" horiz-adv-x="754" d="M379 1640Q450 1640 500 1622T588 1569Q630 1527 654 1459T689 1297T704 1081T707 811Q707 661 704 540T689 326T653 164T586 53Q551 18 501 0T379 -18Q308 -18 257 0T170 53Q128 95 104 163T68 325T54 540T51 811Q51 961 54 1083T69 1299T106 1461T174 1571Q209 1605 259 1622T379 1640ZM379 125Q417 125 444 136T491 177T521 255T539 381T548 563T551 811Q551 953 549 1058T541 1240T523 1365T492 1443T445 1483T379 1495Q340 1495 313 1484T266 1444T236 1366T218 1240T209 1059T207 811Q207 669 209 563T217 381T234 256T265 177T312 137T379 125ZM371 1745Q351 1765 334 1780T299 1796Q277 1796 264 1777T248 1712L147 1720Q150 1763 161 1798T190 1859T232 1899T285 1913Q317 1913 346 1904T401 1862Q417 1843 428 1833T457 1823Q481 1823 493 1842T510 1909L608 1898Q602 1809 567 1758T469 1706Q440 1706 418 1712T371 1745Z"/><glyph unicode="Ö" horiz-adv-x="754" d="M379 1640Q450 1640 500 1622T588 1569Q630 1527 654 1459T689 1297T704 1081T707 811Q707 661 704 540T689 326T653 164T586 53Q551 18 501 0T379 -18Q308 -18 257 0T170 53Q128 95 104 163T68 325T54 540T51 811Q51 961 54 1083T69 1299T106 1461T174 1571Q209 1605 259 1622T379 1640ZM379 125Q417 125 444 136T491 177T521 255T539 381T548 563T551 811Q551 953 549 1058T541 1240T523 1365T492 1443T445 1483T379 1495Q340 1495 313 1484T266 1444T236 1366T218 1240T209 1059T207 811Q207 669 209 563T217 381T234 256T265 177T312 137T379 125ZM563 1704H434V1903H563V1704ZM322 1704H195V1903H322V1704Z"/><glyph unicode="×" horiz-adv-x="588" d="M514 936L369 795L514 651L436 565L293 711L152 565L74 651L217 795L74 936L152 1024L293 881L436 1024L514 936Z"/><glyph unicode="Ø" horiz-adv-x="754" d="M602 1554Q628 1523 645 1485T672 1397Q682 1341 689 1271T700 1125T705 971T707 823Q707 671 701 517T666 213Q656 164 634 123T577 51T492 3T377 -14Q327 -14 288 -6T217 20Q212 0 208 -16T200 -46Q196 -61 193 -74H113L150 74Q125 100 109 133T84 205Q74 248 68 321T58 481T53 657T51 821Q51 887 52 962T56 1113T66 1262T84 1397Q93 1449 115 1494T174 1573T260 1626T377 1645Q425 1645 465 1636T537 1610L549 1661H629L602 1554ZM223 344L496 1448Q477 1474 448 1488T379 1503Q343 1503 319 1494T278 1466T251 1423T233 1366Q229 1348 225 1310T218 1222T212 1115T207 1003T204 898T203 813Q203 774 204 715T209 591T215 461T223 344ZM383 127Q437 129 471 156T520 246Q540 342 547 486T555 819Q555 913 554 976T551 1091T546 1193T537 1311L260 193Q280 155 310 141T383 127Z"/><glyph unicode="Ù" horiz-adv-x="739" d="M668 291Q668 148 594 67T373 -14Q308 -14 253 3T156 58T92 154T68 295V1634H217V309Q217 213 256 171T369 129Q443 129 479 172T516 309V1634H668V291ZM453 1704H322L178 1952H326L453 1704Z"/><glyph unicode="Ú" horiz-adv-x="739" d="M668 291Q668 148 594 67T373 -14Q308 -14 253 3T156 58T92 154T68 295V1634H217V309Q217 213 256 171T369 129Q443 129 479 172T516 309V1634H668V291ZM283 1704L406 1952H555L408 1704H283Z"/><glyph unicode="Û" horiz-adv-x="739" d="M668 291Q668 148 594 67T373 -14Q308 -14 253 3T156 58T92 154T68 295V1634H217V309Q217 213 256 171T369 129Q443 129 479 172T516 309V1634H668V291ZM571 1706H451L360 1864L272 1706H154L285 1954H442L571 1706Z"/><glyph unicode="Ü" horiz-adv-x="739" d="M668 291Q668 148 594 67T373 -14Q308 -14 253 3T156 58T92 154T68 295V1634H217V309Q217 213 256 171T369 129Q443 129 479 172T516 309V1634H668V291ZM557 1704H428V1903H557V1704ZM315 1704H188V1903H315V1704Z"/><glyph unicode="Ý" horiz-adv-x="729" d="M729 1634L432 596V0H279V592L0 1634H158Q214 1417 258 1239Q277 1163 295 1089T327 953T351 848T360 793Q360 806 369 848T393 952T427 1088T466 1239Q513 1417 573 1634H729ZM266 1704L389 1952H539L391 1704H266Z"/><glyph unicode="Þ" horiz-adv-x="707" d="M236 1634V1329H391Q442 1329 485 1317T560 1277T612 1208T641 1104Q648 1080 653 1047T661 977T666 905T668 842Q668 813 667 777T661 705T652 635T639 578Q622 466 559 412T399 356H233V0H80V1634H236ZM512 838Q512 848 512 865T511 901T510 940T508 971Q505 1032 495 1072T468 1135T425 1167T367 1176H233V500H369Q435 500 468 549T508 682Q509 693 509 713T510 756T511 801T512 838Z"/><glyph unicode="ß" horiz-adv-x="872" d="M362 1513Q300 1513 276 1475T252 1368V0H109V995H10V1126H109V1374Q109 1513 178 1579T371 1645Q423 1645 467 1629T543 1581T594 1503T612 1397Q612 1350 601 1311T574 1237T538 1169T502 1099T474 1021T463 928Q463 878 472 844T496 783T533 737T578 694Q596 676 625 654T682 612Q724 584 754 552T805 479T836 389T846 276Q846 208 832 155T786 65T705 8T588 -12Q469 -12 404 34T332 188Q331 203 331 224T329 267T328 310T326 350H469V201Q474 148 504 124T588 100Q618 100 640 108T676 135T698 185T705 264Q705 309 699 344T680 409T647 461T598 504Q575 521 549 543T498 588Q463 610 433 638T379 705T342 796T328 920Q328 971 338 1013T363 1092T396 1161T429 1226T455 1291T465 1362Q465 1397 461 1425T445 1472T413 1502T362 1513Z"/><glyph unicode="à" horiz-adv-x="596" d="M561 0H432Q430 0 428 2T423 12T419 36T416 82Q390 37 342 15T231 -8Q191 -8 156 4T94 41T51 104T33 193Q31 233 31 282T33 375Q39 483 96 554T268 655Q306 665 343 671T412 680V907Q409 1010 313 1010Q271 1010 242 991T205 924Q199 886 198 845T197 743H66Q64 809 67 862T80 965Q95 1045 153 1092T317 1139Q377 1139 420 1124T491 1081T532 1014T547 928Q548 886 548 828T547 710T546 592T545 496Q544 454 544 405T543 307T543 218T543 150Q543 127 544 104T549 60T555 23T561 0ZM414 561Q394 558 374 557T332 551Q294 543 262 530T215 502Q198 485 186 448T170 360Q169 349 169 328T169 284T170 240T172 207Q177 154 205 135T276 115Q315 115 349 134T401 211Q407 227 409 252T411 308T412 372T412 436Q413 447 413 464T414 500T414 535T414 561ZM408 1198H276L133 1446H281L408 1198Z"/><glyph unicode="á" horiz-adv-x="596" d="M561 0H432Q430 0 428 2T423 12T419 36T416 82Q390 37 342 15T231 -8Q191 -8 156 4T94 41T51 104T33 193Q31 233 31 282T33 375Q39 483 96 554T268 655Q306 665 343 671T412 680V907Q409 1010 313 1010Q271 1010 242 991T205 924Q199 886 198 845T197 743H66Q64 809 67 862T80 965Q95 1045 153 1092T317 1139Q377 1139 420 1124T491 1081T532 1014T547 928Q548 886 548 828T547 710T546 592T545 496Q544 454 544 405T543 307T543 218T543 150Q543 127 544 104T549 60T555 23T561 0ZM414 561Q394 558 374 557T332 551Q294 543 262 530T215 502Q198 485 186 448T170 360Q169 349 169 328T169 284T170 240T172 207Q177 154 205 135T276 115Q315 115 349 134T401 211Q407 227 409 252T411 308T412 372T412 436Q413 447 413 464T414 500T414 535T414 561ZM217 1198L340 1446H489L342 1198H217Z"/><glyph unicode="â" horiz-adv-x="596" d="M561 0H432Q430 0 428 2T423 12T419 36T416 82Q390 37 342 15T231 -8Q191 -8 156 4T94 41T51 104T33 193Q31 233 31 282T33 375Q39 483 96 554T268 655Q306 665 343 671T412 680V907Q409 1010 313 1010Q271 1010 242 991T205 924Q199 886 198 845T197 743H66Q64 809 67 862T80 965Q95 1045 153 1092T317 1139Q377 1139 420 1124T491 1081T532 1014T547 928Q548 886 548 828T547 710T546 592T545 496Q544 454 544 405T543 307T543 218T543 150Q543 127 544 104T549 60T555 23T561 0ZM414 561Q394 558 374 557T332 551Q294 543 262 530T215 502Q198 485 186 448T170 360Q169 349 169 328T169 284T170 240T172 207Q177 154 205 135T276 115Q315 115 349 134T401 211Q407 227 409 252T411 308T412 372T412 436Q413 447 413 464T414 500T414 535T414 561ZM516 1200H395L305 1358L217 1200H98L229 1448H387L516 1200Z"/><glyph unicode="ã" horiz-adv-x="596" d="M561 0H432Q430 0 428 2T423 12T419 36T416 82Q390 37 342 15T231 -8Q191 -8 156 4T94 41T51 104T33 193Q31 233 31 282T33 375Q39 483 96 554T268 655Q306 665 343 671T412 680V907Q409 1010 313 1010Q271 1010 242 991T205 924Q199 886 198 845T197 743H66Q64 809 67 862T80 965Q95 1045 153 1092T317 1139Q377 1139 420 1124T491 1081T532 1014T547 928Q548 886 548 828T547 710T546 592T545 496Q544 454 544 405T543 307T543 218T543 150Q543 127 544 104T549 60T555 23T561 0ZM414 561Q394 558 374 557T332 551Q294 543 262 530T215 502Q198 485 186 448T170 360Q169 349 169 328T169 284T170 240T172 207Q177 154 205 135T276 115Q315 115 349 134T401 211Q407 227 409 252T411 308T412 372T412 436Q413 447 413 464T414 500T414 535T414 561ZM307 1239Q287 1259 270 1274T236 1290Q214 1290 201 1271T184 1206L84 1214Q87 1257 98 1292T126 1353T168 1393T221 1407Q253 1407 282 1398T338 1356Q353 1337 364 1327T393 1317Q418 1317 429 1336T446 1403L545 1393Q539 1303 503 1252T406 1200Q377 1200 355 1206T307 1239Z"/><glyph unicode="ä" horiz-adv-x="596" d="M561 0H432Q430 0 428 2T423 12T419 36T416 82Q390 37 342 15T231 -8Q191 -8 156 4T94 41T51 104T33 193Q31 233 31 282T33 375Q39 483 96 554T268 655Q306 665 343 671T412 680V907Q409 1010 313 1010Q271 1010 242 991T205 924Q199 886 198 845T197 743H66Q64 809 67 862T80 965Q95 1045 153 1092T317 1139Q377 1139 420 1124T491 1081T532 1014T547 928Q548 886 548 828T547 710T546 592T545 496Q544 454 544 405T543 307T543 218T543 150Q543 127 544 104T549 60T555 23T561 0ZM414 561Q394 558 374 557T332 551Q294 543 262 530T215 502Q198 485 186 448T170 360Q169 349 169 328T169 284T170 240T172 207Q177 154 205 135T276 115Q315 115 349 134T401 211Q407 227 409 252T411 308T412 372T412 436Q413 447 413 464T414 500T414 535T414 561ZM496 1198H367V1397H496V1198ZM254 1198H127V1397H254V1198Z"/><glyph unicode="å" horiz-adv-x="596" d="M561 0H432Q430 0 428 2T423 12T419 36T416 82Q390 37 342 15T231 -8Q191 -8 156 4T94 41T51 104T33 193Q31 233 31 282T33 375Q39 483 96 554T268 655Q306 665 343 671T412 680V907Q409 1010 313 1010Q271 1010 242 991T205 924Q199 886 198 845T197 743H66Q64 809 67 862T80 965Q95 1045 153 1092T317 1139Q377 1139 420 1124T491 1081T532 1014T547 928Q548 886 548 828T547 710T546 592T545 496Q544 454 544 405T543 307T543 218T543 150Q543 127 544 104T549 60T555 23T561 0ZM414 561Q394 558 374 557T332 551Q294 543 262 530T215 502Q198 485 186 448T170 360Q169 349 169 328T169 284T170 240T172 207Q177 154 205 135T276 115Q315 115 349 134T401 211Q407 227 409 252T411 308T412 372T412 436Q413 447 413 464T414 500T414 535T414 561ZM317 1495Q347 1495 373 1484T420 1452T451 1405T463 1346Q463 1315 452 1288T420 1241T374 1208T317 1196Q288 1196 263 1208T218 1240T187 1288T176 1346Q176 1377 187 1404T217 1452T262 1483T317 1495ZM317 1415Q291 1415 273 1394T254 1346Q254 1333 259 1321T272 1299T292 1284T317 1278Q345 1278 364 1299T383 1346Q383 1373 364 1394T317 1415Z"/><glyph unicode="æ" horiz-adv-x="954" d="M676 1141Q723 1141 758 1131T820 1104T864 1063T895 1012Q921 956 925 832T928 502H547Q547 479 547 441T550 360T555 273T565 195Q573 156 602 134T676 111Q718 111 746 129T782 186Q786 205 788 230T792 279T794 320T795 340H926Q926 322 925 295T921 237T912 175T895 119Q866 51 813 20T674 -12Q589 -12 537 17T457 102Q439 67 416 46T365 12T307 -4T246 -8Q206 -8 168 4T101 41T53 104T33 193Q31 233 31 282T33 375Q39 483 96 554T268 655Q306 665 343 671T412 680V907Q409 1010 313 1010Q271 1010 242 991T205 924Q199 886 198 838T197 729H66Q64 795 67 855T80 965Q95 1045 153 1092T317 1139Q393 1139 436 1113T496 1053Q510 1095 559 1118T676 1141ZM793 623Q793 634 793 658T791 715T789 782T785 848T781 903T776 936Q767 976 740 994T672 1012Q634 1012 603 991T563 936Q555 905 552 857T547 761T546 674T547 623H793ZM414 561Q394 558 374 557T332 551Q294 543 262 530T215 502Q198 485 186 448T170 360Q169 349 169 328T169 284T170 240T172 207Q177 154 205 135T276 115Q315 115 349 134T401 211Q407 227 409 252T411 308T412 372T412 436Q413 447 413 464T414 500T414 535T414 561Z"/><glyph unicode="ç" horiz-adv-x="586" d="M258 -10Q210 -4 174 17T111 84Q93 115 80 159T59 261T47 394T43 563Q43 727 56 843T109 1030Q140 1086 188 1113T309 1141Q375 1141 420 1120T494 1055T536 947T549 795V723H416Q416 787 415 839T405 929T373 987T309 1008Q266 1008 241 979T202 894T184 755T180 563Q180 464 183 392T192 271T208 191T232 143T263 121T303 115Q346 115 369 137T403 198T416 286T418 393H549Q554 207 507 109T352 -8V-51Q386 -51 413 -62T460 -93T491 -142T502 -205Q502 -243 484 -276T429 -331T335 -362T201 -360V-272Q250 -280 285 -277T342 -263T374 -232T385 -188Q385 -148 351 -134T258 -119V-10Z"/><glyph unicode="è" horiz-adv-x="596" d="M555 340Q555 246 540 180T494 71T417 8T309 -12Q271 -12 239 -7T180 11T132 46T96 102Q67 165 55 274T43 551Q43 732 58 851T113 1038Q144 1092 190 1116T305 1141Q380 1141 429 1116T507 1039T547 910T559 731V502H178Q178 394 182 319T199 198T238 132T305 111Q343 111 366 123T402 163T419 234T424 340H555ZM424 623V766Q424 824 420 870T404 947T367 995T301 1012Q267 1012 244 1000T206 947T185 829T178 623H424ZM393 1198H262L119 1446H266L393 1198Z"/><glyph unicode="é" horiz-adv-x="596" d="M555 340Q555 246 540 180T494 71T417 8T309 -12Q271 -12 239 -7T180 11T132 46T96 102Q67 165 55 274T43 551Q43 732 58 851T113 1038Q144 1092 190 1116T305 1141Q380 1141 429 1116T507 1039T547 910T559 731V502H178Q178 394 182 319T199 198T238 132T305 111Q343 111 366 123T402 163T419 234T424 340H555ZM424 623V766Q424 824 420 870T404 947T367 995T301 1012Q267 1012 244 1000T206 947T185 829T178 623H424ZM219 1198L342 1446H492L344 1198H219Z"/><glyph unicode="ê" horiz-adv-x="596" d="M555 340Q555 246 540 180T494 71T417 8T309 -12Q271 -12 239 -7T180 11T132 46T96 102Q67 165 55 274T43 551Q43 732 58 851T113 1038Q144 1092 190 1116T305 1141Q380 1141 429 1116T507 1039T547 910T559 731V502H178Q178 394 182 319T199 198T238 132T305 111Q343 111 366 123T402 163T419 234T424 340H555ZM424 623V766Q424 824 420 870T404 947T367 995T301 1012Q267 1012 244 1000T206 947T185 829T178 623H424ZM516 1200H395L305 1358L217 1200H98L229 1448H387L516 1200Z"/><glyph unicode="ë" horiz-adv-x="596" d="M555 340Q555 246 540 180T494 71T417 8T309 -12Q271 -12 239 -7T180 11T132 46T96 102Q67 165 55 274T43 551Q43 732 58 851T113 1038Q144 1092 190 1116T305 1141Q380 1141 429 1116T507 1039T547 910T559 731V502H178Q178 394 182 319T199 198T238 132T305 111Q343 111 366 123T402 163T419 234T424 340H555ZM424 623V766Q424 824 420 870T404 947T367 995T301 1012Q267 1012 244 1000T206 947T185 829T178 623H424ZM492 1198H362V1397H492V1198ZM250 1198H123V1397H250V1198Z"/><glyph unicode="ì" horiz-adv-x="272" d="M217 0H76Q74 0 70 25T66 82V1126H207V94Q207 77 208 61T211 31T214 10T217 0ZM215 1198H84L-59 1446H88L215 1198Z"/><glyph unicode="í" horiz-adv-x="272" d="M217 0H76Q74 0 70 25T66 82V1126H207V94Q207 77 208 61T211 31T214 10T217 0ZM57 1198L180 1446H330L182 1198H57Z"/><glyph unicode="î" horiz-adv-x="272" d="M217 0H76Q74 0 70 25T66 82V1126H207V94Q207 77 208 61T211 31T214 10T217 0ZM346 1200H225L135 1358L47 1200H-72L59 1448H217L346 1200Z"/><glyph unicode="ï" horiz-adv-x="272" d="M217 0H76Q74 0 70 25T66 82V1126H207V94Q207 77 208 61T211 31T214 10T217 0ZM322 1198H193V1397H322V1198ZM80 1198H-47V1397H80V1198Z"/><glyph unicode="ð" horiz-adv-x="635" d="M438 1204Q424 1196 411 1193T383 1190Q333 1190 298 1224T248 1321L313 1346Q329 1266 381 1266Q412 1266 434 1288Q432 1316 431 1338T430 1372Q426 1408 419 1436T397 1483T362 1512T311 1522Q256 1522 234 1501T205 1434V1391H66Q66 1399 66 1421T70 1464Q74 1500 91 1533T138 1591T211 1632T311 1647Q369 1647 412 1630T486 1581T533 1507T557 1413Q559 1398 561 1384T565 1352Q582 1363 595 1365T627 1368Q654 1368 675 1358T712 1331T739 1291T758 1239L694 1210Q686 1244 671 1268T625 1292Q606 1292 596 1286T573 1270Q576 1233 579 1189T586 1099T590 1008T592 922Q592 884 592 828T591 708T589 574T585 441T578 324T569 236Q560 176 543 130T495 52T421 4T315 -12Q206 -12 146 34T61 184Q54 216 50 272T43 398T41 544T44 691T50 821T61 918Q70 951 88 980T133 1031T195 1066T276 1079Q341 1079 380 1056T446 985Q446 997 446 1021T444 1075T442 1138T438 1204ZM195 246Q200 208 209 184T233 145T268 125T315 119Q345 119 367 126T404 149T427 193T440 260Q441 274 442 313T444 405T446 518T447 634T448 735T449 805Q445 829 437 855T413 902T374 938T315 952Q288 952 268 944T233 921T211 889T199 852Q195 836 193 790T189 681T187 549T188 417T190 309T195 246Z"/><glyph unicode="ñ" horiz-adv-x="608" d="M555 0H418Q417 0 417 5T416 36T415 117T414 273T414 528T414 905Q414 958 392 983T319 1008Q294 1008 273 999T235 970T210 917T201 840V0H63V1126H195V1016Q203 1050 221 1073T264 1111T316 1132T373 1139Q421 1139 455 1125T510 1083T541 1018T551 934Q551 703 551 544T551 281T551 121T552 37T553 5T555 0ZM299 1239Q279 1259 262 1274T227 1290Q206 1290 193 1271T176 1206L76 1214Q79 1257 90 1292T118 1353T160 1393T213 1407Q245 1407 274 1398T330 1356Q345 1337 356 1327T385 1317Q410 1317 421 1336T438 1403L537 1393Q530 1303 495 1252T397 1200Q368 1200 346 1206T299 1239Z"/><glyph unicode="ò" horiz-adv-x="616" d="M575 563Q575 396 562 282T512 98Q481 41 433 15T309 -12Q235 -12 186 14T106 96Q69 165 56 280T43 563Q43 738 58 856T115 1042Q146 1093 194 1117T311 1141Q384 1141 432 1118T510 1044Q548 976 561 859T575 563ZM438 561Q438 699 435 786T419 923T380 991T309 1010Q271 1010 246 993T207 927T186 790T180 561Q180 436 183 351T199 214T238 138T309 115Q353 115 378 138T417 214T434 352T438 561ZM393 1198H262L119 1446H266L393 1198Z"/><glyph unicode="ó" horiz-adv-x="616" d="M575 563Q575 396 562 282T512 98Q481 41 433 15T309 -12Q235 -12 186 14T106 96Q69 165 56 280T43 563Q43 738 58 856T115 1042Q146 1093 194 1117T311 1141Q384 1141 432 1118T510 1044Q548 976 561 859T575 563ZM438 561Q438 699 435 786T419 923T380 991T309 1010Q271 1010 246 993T207 927T186 790T180 561Q180 436 183 351T199 214T238 138T309 115Q353 115 378 138T417 214T434 352T438 561ZM223 1198L346 1446H496L348 1198H223Z"/><glyph unicode="ô" horiz-adv-x="616" d="M575 563Q575 396 562 282T512 98Q481 41 433 15T309 -12Q235 -12 186 14T106 96Q69 165 56 280T43 563Q43 738 58 856T115 1042Q146 1093 194 1117T311 1141Q384 1141 432 1118T510 1044Q548 976 561 859T575 563ZM438 561Q438 699 435 786T419 923T380 991T309 1010Q271 1010 246 993T207 927T186 790T180 561Q180 436 183 351T199 214T238 138T309 115Q353 115 378 138T417 214T434 352T438 561ZM520 1200H399L309 1358L221 1200H102L233 1448H391L520 1200Z"/><glyph unicode="õ" horiz-adv-x="616" d="M575 563Q575 396 562 282T512 98Q481 41 433 15T309 -12Q235 -12 186 14T106 96Q69 165 56 280T43 563Q43 738 58 856T115 1042Q146 1093 194 1117T311 1141Q384 1141 432 1118T510 1044Q548 976 561 859T575 563ZM438 561Q438 699 435 786T419 923T380 991T309 1010Q271 1010 246 993T207 927T186 790T180 561Q180 436 183 351T199 214T238 138T309 115Q353 115 378 138T417 214T434 352T438 561ZM309 1239Q289 1259 272 1274T238 1290Q216 1290 203 1271T186 1206L86 1214Q89 1257 100 1292T128 1353T170 1393T223 1407Q255 1407 284 1398T340 1356Q355 1337 366 1327T395 1317Q420 1317 432 1336T449 1403L547 1393Q541 1303 505 1252T408 1200Q379 1200 357 1206T309 1239Z"/><glyph unicode="ö" horiz-adv-x="616" d="M575 563Q575 396 562 282T512 98Q481 41 433 15T309 -12Q235 -12 186 14T106 96Q69 165 56 280T43 563Q43 738 58 856T115 1042Q146 1093 194 1117T311 1141Q384 1141 432 1118T510 1044Q548 976 561 859T575 563ZM438 561Q438 699 435 786T419 923T380 991T309 1010Q271 1010 246 993T207 927T186 790T180 561Q180 436 183 351T199 214T238 138T309 115Q353 115 378 138T417 214T434 352T438 561ZM500 1198H371V1397H500V1198ZM258 1198H131V1397H258V1198Z"/><glyph unicode="÷" horiz-adv-x="1536" d="M208 684V896H1328V684H208ZM768 228Q704 228 656 276T608 388Q608 452 650 500T768 548Q840 548 884 500T928 388Q928 324 880 276T768 228ZM768 1028Q704 1028 656 1076T608 1188Q608 1252 650 1300T768 1348Q840 1348 884 1300T928 1188Q928 1124 880 1076T768 1028Z"/><glyph unicode="ø" horiz-adv-x="616" d="M137 51Q98 91 80 154Q71 186 64 234T53 337T46 451T43 563Q43 673 51 774T76 954Q85 995 104 1029T152 1088T220 1127T311 1141Q377 1141 428 1118L442 1174H510L483 1079Q530 1037 545 958Q560 887 567 783T575 563Q575 510 574 454T568 343T556 240T539 154Q514 69 454 29T309 -12Q241 -12 193 12L174 -51H109L137 51ZM190 252L391 983Q361 1014 309 1014Q220 1014 199 913Q193 887 189 844T181 751T177 651T176 561Q176 527 177 487T180 405T184 323T190 252ZM428 874L227 143Q258 111 309 111Q351 111 381 133T420 203Q424 228 428 272T435 366T440 468T442 561Q442 594 441 635T438 719T434 802T428 874Z"/><glyph unicode="ù" horiz-adv-x="612" d="M555 0H420L416 70Q403 47 385 32T346 8T300 -4T250 -8Q208 -8 173 4T112 43T73 110T59 211V1126H199V225Q199 113 297 113Q351 113 381 150T412 260V1126H551V139Q551 82 552 47T555 0ZM408 1198H276L133 1446H281L408 1198Z"/><glyph unicode="ú" horiz-adv-x="612" d="M555 0H420L416 70Q403 47 385 32T346 8T300 -4T250 -8Q208 -8 173 4T112 43T73 110T59 211V1126H199V225Q199 113 297 113Q351 113 381 150T412 260V1126H551V139Q551 82 552 47T555 0ZM217 1198L340 1446H489L342 1198H217Z"/><glyph unicode="û" horiz-adv-x="612" d="M555 0H420L416 70Q403 47 385 32T346 8T300 -4T250 -8Q208 -8 173 4T112 43T73 110T59 211V1126H199V225Q199 113 297 113Q351 113 381 150T412 260V1126H551V139Q551 82 552 47T555 0ZM514 1200H393L303 1358L215 1200H96L227 1448H385L514 1200Z"/><glyph unicode="ü" horiz-adv-x="612" d="M555 0H420L416 70Q403 47 385 32T346 8T300 -4T250 -8Q208 -8 173 4T112 43T73 110T59 211V1126H199V225Q199 113 297 113Q351 113 381 150T412 260V1126H551V139Q551 82 552 47T555 0ZM489 1198H360V1397H489V1198ZM248 1198H121V1397H248V1198Z"/><glyph unicode="ý" horiz-adv-x="588" d="M584 1126L283 -334H141L223 55L4 1126H145Q145 1124 151 1088T168 994T192 864T219 715T246 566T269 436T286 343T293 305Q293 307 300 342T317 435T341 566T369 715T397 863T421 994T439 1088T446 1126H584ZM195 1198L317 1446H467L319 1198H195Z"/><glyph unicode="þ" horiz-adv-x="625" d="M584 584Q584 517 582 451T577 328T567 225T553 154Q536 76 486 36T367 -4Q304 -4 262 14T199 63V-334H63V1636H197V1034Q214 1087 261 1113T371 1139Q443 1139 488 1106T553 993Q568 928 576 820T584 584ZM446 578Q446 624 445 675T442 773T436 862T426 930Q418 965 394 985T324 1006Q277 1006 252 979T219 907Q212 867 208 829T202 751T198 669T197 578Q197 486 198 425T201 322T208 251T217 195Q226 166 251 145T324 123Q367 123 393 143T428 213Q432 238 435 280T441 373T445 476T446 578Z"/><glyph unicode="ÿ" horiz-adv-x="588" d="M584 1126L283 -334H141L223 55L4 1126H145Q145 1124 151 1088T168 994T192 864T219 715T246 566T269 436T286 343T293 305Q293 307 300 342T317 435T341 566T369 715T397 863T421 994T439 1088T446 1126H584ZM481 1198H352V1397H481V1198ZM240 1198H113V1397H240V1198Z"/><glyph unicode="ı" horiz-adv-x="272" d="M217 0H76Q74 0 70 25T66 82V1126H207V94Q207 77 208 61T211 31T214 10T217 0Z"/><glyph unicode="Ł" horiz-adv-x="616" d="M233 616V150H600V0H80V555L23 526V631L80 659V1634H233V723L434 815V709L233 616Z"/><glyph unicode="ł" horiz-adv-x="274" d="M207 602V88Q207 48 208 27T211 0H76Q71 5 70 22T68 66V543L10 514V623L68 649V1540Q68 1553 68 1568T67 1596T65 1620T63 1636H203Q203 1634 205 1613T207 1569V711Q207 712 215 716T234 725L262 737V629L207 602Z"/><glyph unicode="Œ" horiz-adv-x="1063" d="M567 1634H1049V1491H672V897H1014V754H672V143H1049V0H565V68Q554 53 536 39T493 13T439 -6T373 -14Q245 -14 172 53T78 262Q74 277 70 313T63 397T58 502T55 616T52 726T51 821Q51 863 51 915T53 1023T57 1134T62 1235T69 1316T78 1364Q97 1499 168 1572T371 1645Q433 1645 486 1627T567 1575V1634ZM381 131Q415 131 439 140T481 165T507 202T520 248Q521 262 522 299T523 388T524 500T524 620T524 732T524 821Q524 851 524 899T524 1002T524 1115T524 1223T523 1309T522 1360Q511 1426 480 1460T379 1495Q342 1495 316 1485T273 1455T244 1409T227 1348Q223 1330 221 1293T216 1207T212 1104T209 996T208 895T207 813Q207 779 207 731T209 629T211 519T214 414T220 327T227 270Q241 205 276 168T381 131Z"/><glyph unicode="œ" horiz-adv-x="981" d="M700 1141Q747 1141 782 1131T844 1104T889 1063T920 1012Q933 984 939 939T949 831T952 686T952 502H571Q571 479 571 441T574 360T580 273T590 195Q598 156 627 134T700 111Q742 111 770 129T807 186Q811 205 813 230T816 279T818 320T819 340H950Q950 322 949 295T945 237T936 175T920 119Q891 51 838 20T698 -12Q656 -12 624 -4T568 18T529 50T504 90Q491 66 475 48T435 16T382 -5T309 -12Q223 -12 163 30T80 154Q71 186 64 234T53 337T46 451T43 563Q43 673 51 774T76 954Q85 995 104 1029T152 1088T220 1127T311 1141Q359 1141 392 1134T447 1113T484 1084T510 1051Q517 1066 531 1082T569 1111T625 1132T700 1141ZM817 623Q817 634 817 658T815 715T813 782T810 848T806 903T801 936Q791 976 764 994T696 1012Q658 1012 628 991T588 936Q579 905 576 857T571 761T570 674T571 623H817ZM438 561Q438 601 437 652T435 753T430 846T422 913Q401 1010 309 1010Q220 1010 199 909Q193 883 189 840T183 749T181 650T180 561Q180 520 181 469T184 368T189 275T199 207Q208 160 237 138T309 115Q351 115 381 137T420 207Q424 232 427 275T433 369T437 469T438 561Z"/><glyph unicode="Š" horiz-adv-x="680" d="M643 334Q643 157 562 72T332 -14Q264 -14 212 3T122 52T64 126T39 221Q37 252 36 287T34 355T33 410T33 438H178Q178 430 178 411T178 365T180 310T184 252Q191 181 231 151T338 121Q413 121 452 167T492 319Q492 412 473 484T423 614T352 720T270 813Q226 861 183 910T105 1020T50 1155T29 1329Q29 1477 105 1561T334 1645Q407 1645 460 1622T549 1560T604 1469T627 1360Q628 1337 629 1308T631 1252T632 1206T633 1184H483Q483 1185 483 1202T483 1244T481 1295T479 1346Q477 1381 469 1410T443 1459T400 1491T334 1503Q252 1503 217 1459T182 1321Q182 1254 197 1200T239 1100T300 1012T373 930Q421 878 469 822T555 697T618 539T643 334ZM129 1958H252L338 1802L426 1958H549L420 1708H258L129 1958Z"/><glyph unicode="š" horiz-adv-x="559" d="M528 291Q528 137 463 63T281 -12Q159 -12 97 44T29 213Q27 245 27 274T27 338H158Q158 333 158 321T158 291T158 253T160 213Q163 163 192 135T276 106Q336 106 365 147T395 276Q395 325 384 361T353 425T308 474T254 516Q216 544 177 572T105 642T53 741T33 887Q33 941 48 987T93 1067T168 1121T276 1141Q331 1141 370 1128T437 1090T481 1033T504 961Q506 949 507 922T509 867T510 814T510 780H379Q379 784 379 804T379 849T379 894T377 920Q375 937 369 954T351 985T318 1007T270 1016Q213 1016 190 980T166 881Q166 826 180 788T217 720T270 669T332 625Q359 606 393 580T457 515T507 421T528 291ZM68 1452H190L276 1296L365 1452H487L358 1202H197L68 1452Z"/><glyph unicode="Ÿ" horiz-adv-x="729" d="M729 1634L432 596V0H279V592L0 1634H158Q214 1417 258 1239Q277 1163 295 1089T327 953T351 848T360 793Q360 806 369 848T393 952T427 1088T466 1239Q513 1417 573 1634H729ZM553 1704H424V1903H553V1704ZM311 1704H184V1903H311V1704Z"/><glyph unicode="Ž" horiz-adv-x="621" d="M610 0H18V131L436 1491H43V1634H598V1513L174 141H610V0ZM100 1958H223L309 1802L397 1958H520L391 1708H229L100 1958Z"/><glyph unicode="ž" horiz-adv-x="508" d="M489 0H20V131L342 999H27V1126H483V989L158 127H489V0ZM43 1452H166L252 1296L340 1452H463L334 1202H172L43 1452Z"/><glyph unicode="ƒ" horiz-adv-x="543" d="M242 -74Q232 -173 184 -230T45 -287Q24 -287 9 -287T-17 -285T-36 -283T-53 -281V-152Q-36 -152 -17 -153T20 -154Q56 -154 76 -128T100 -68Q100 -68 103 -38T110 42T121 161T135 305T149 461T164 618T177 763T188 883T196 966T199 999H102V1130H211L238 1436Q242 1483 256 1522T295 1588T358 1631T446 1647Q468 1647 483 1646T509 1643T528 1639T547 1636L545 1511Q529 1511 508 1513T469 1516Q426 1514 404 1490T379 1430L352 1128H485V999H340Q340 997 336 951T325 829T309 657T291 461T273 265T257 94T246 -27T242 -74Z"/><glyph unicode="ˆ" horiz-adv-x="586" d="M502 1200H381L291 1358L203 1200H84L215 1448H373L502 1200Z"/><glyph unicode="ˇ" horiz-adv-x="586" d="M82 1452H205L291 1296L379 1452H502L373 1202H211L82 1452Z"/><glyph unicode="˘" horiz-adv-x="586" d="M502 1401Q502 1355 488 1317T448 1252T382 1209T293 1194Q193 1194 138 1250T82 1401H197Q197 1356 220 1327T291 1298Q343 1298 366 1326T389 1401H502Z"/><glyph unicode="˙" horiz-adv-x="586" d="M360 1200H225V1397H360V1200Z"/><glyph unicode="˚" horiz-adv-x="586" d="M291 1495Q321 1495 347 1484T393 1452T424 1405T436 1346Q436 1315 425 1288T394 1241T348 1208T291 1196Q262 1196 236 1208T191 1240T161 1288T150 1346Q150 1377 161 1404T191 1452T236 1483T291 1495ZM291 1415Q265 1415 246 1394T227 1346Q227 1320 246 1299T291 1278Q319 1278 337 1299T356 1346Q356 1373 338 1394T291 1415Z"/><glyph unicode="˛" horiz-adv-x="612" d="M281 -170Q281 -204 305 -235T387 -281V-365Q329 -351 289 -331T222 -285T184 -230T172 -170Q172 -111 215 -66T342 0L381 -43Q328 -66 305 -99T281 -170Z"/><glyph unicode="˜" horiz-adv-x="586" d="M287 1239Q267 1259 250 1274T215 1290Q193 1290 180 1271T164 1206L63 1214Q66 1257 77 1292T106 1353T148 1393T201 1407Q233 1407 262 1398T317 1356Q333 1337 344 1327T373 1317Q398 1317 409 1336T426 1403L524 1393Q518 1303 483 1252T385 1200Q356 1200 334 1206T287 1239Z"/><glyph unicode="˝" horiz-adv-x="586" d="M303 1198L385 1446H516L412 1198H303ZM123 1198L207 1446H338L236 1198H123Z"/><glyph unicode="̄" horiz-adv-x="586" d="M487 1225H96V1333H487V1225Z"/><glyph unicode="Δ" horiz-adv-x="1536" d="M76 0L652 1536H884L1456 0H76ZM352 148H1164L752 1256L352 148Z"/><glyph unicode="Ω" horiz-adv-x="1664" d="M832 1376Q644 1376 510 1234T376 836Q376 592 464 432T724 180V0H88V196H536Q416 240 304 406T192 848Q192 1112 358 1330T832 1548Q1140 1548 1306 1338T1472 848Q1472 572 1360 406T1128 196H1576V0H940V180Q1112 272 1200 432T1288 836Q1288 1044 1162 1210T832 1376Z"/><glyph unicode="μ" horiz-adv-x="1408" d="M252 -424Q196 -424 168 -392T140 -280Q140 -200 144 -106T156 100Q164 200 168 256T172 328Q176 348 176 356V1176H368V320Q368 228 450 176T628 124Q760 124 858 190T1008 380V1176H1200V308L1220 0H1056L1020 176Q952 68 836 14T572 -40Q520 -40 444 -14T324 60Q324 -28 352 -112T380 -264Q380 -424 252 -424Z"/><glyph unicode="π" horiz-adv-x="1408" d="M296 0V1028H12V1176H1316V1028H996V344Q996 228 1042 184T1152 140Q1200 140 1232 142T1296 156V28Q1248 4 1206 -6T1088 -16Q960 -16 886 64T812 336V1028H484V0H296Z"/><glyph unicode="–" horiz-adv-x="561" d="M535 639H27V788H535V639Z"/><glyph unicode="—" horiz-adv-x="948" d="M848 639H100V788H848V639Z"/><glyph unicode="‘" horiz-adv-x="270" d="M227 1456V1208H49V1470L162 1640L242 1604L180 1466L182 1456H227Z"/><glyph unicode="’" horiz-adv-x="270" d="M49 1386V1636H225V1372L113 1202L35 1241L94 1376L92 1386H49Z"/><glyph unicode="‚" horiz-adv-x="270" d="M49 0V248H225V-14L113 -186L35 -147L94 -10L92 0H49Z"/><glyph unicode="“" horiz-adv-x="510" d="M461 1454V1208H289V1468L401 1640L477 1604L416 1462L418 1454H461ZM225 1454V1208H55V1468L168 1640L244 1604L182 1462L184 1454H225Z"/><glyph unicode="”" horiz-adv-x="510" d="M291 1391V1636H463V1374L348 1202L274 1241L334 1378L332 1391H291ZM55 1391V1636H227V1374L115 1202L39 1241L100 1378L98 1391H55Z"/><glyph unicode="„" horiz-adv-x="510" d="M291 0V246H463V-14L348 -188L274 -150L334 -10L332 0H291ZM55 0V246H227V-14L115 -188L39 -150L100 -10L98 0H55Z"/><glyph unicode="†" horiz-adv-x="420" d="M393 958H281V-16L211 -190L141 -16V958H27V1083H141Q139 1102 139 1135T138 1209T137 1298T137 1391Q137 1499 139 1624H283Q284 1499 285 1391Q285 1345 285 1298T285 1210T283 1135T281 1083H393V958Z"/><glyph unicode="‡" horiz-adv-x="420" d="M281 719H383V598H281V-16L211 -190L143 -16V598H37V719H143V995H37V1116H143Q143 1133 143 1163T142 1233T141 1316T141 1404V1624H283V1404Q283 1360 283 1317T283 1234T282 1164T281 1116H383V995H281V719Z"/><glyph unicode="•" horiz-adv-x="643" d="M324 520Q279 520 240 538T171 588T124 660T106 748Q106 794 123 835T170 906T239 953T324 971Q368 971 407 954T476 906T523 835T541 748Q541 702 524 661T477 588T408 539T324 520Z"/><glyph unicode="…" horiz-adv-x="1112" d="M1018 0H834V268H1018V0ZM647 0H463V268H647V0ZM276 0H92V268H276V0Z"/><glyph unicode="‰" horiz-adv-x="1509" d="M479 1090Q479 1026 465 975T423 889T353 834T256 815Q198 815 157 835T90 891T51 977T39 1090V1378Q39 1438 52 1488T91 1574T159 1631T258 1651Q320 1651 362 1629T431 1570T468 1483T479 1378V1090ZM821 1569L268 0H178L731 1569H821ZM1479 260Q1479 129 1424 58T1253 -14Q1196 -14 1155 5T1087 61T1049 147T1036 260V547Q1036 606 1049 656T1089 743T1158 800T1257 821Q1318 821 1360 799T1429 739T1467 651T1479 547V260ZM985 260Q985 129 931 58T760 -14Q702 -14 661 5T594 61T555 147T543 260V547Q543 606 556 656T596 743T665 800T764 821Q825 821 867 799T936 739T973 651T985 547V260ZM367 1090V1397Q367 1459 338 1494T258 1530Q152 1530 152 1397V1094Q152 1012 179 973T258 934Q367 934 367 1090ZM1364 262V565Q1364 627 1336 663T1257 700Q1203 700 1176 665T1149 565V262Q1149 184 1177 144T1257 104Q1314 104 1339 142T1364 262ZM872 262V565Q872 627 844 663T764 700Q710 700 683 665T655 565V262Q655 184 683 144T764 104Q821 104 846 142T872 262Z"/><glyph unicode="‹" horiz-adv-x="332" d="M311 274L23 666V774L311 1165V963L133 719L311 479V274Z"/><glyph unicode="›" horiz-adv-x="332" d="M20 274V479L199 719L20 963V1165L309 774V666L20 274Z"/><glyph unicode="⁄" horiz-adv-x="219" d="M385 1634Q340 1474 297 1321Q279 1256 259 1186T220 1048T182 916T147 801Q132 753 115 693T79 567T43 435T7 304Q-33 156 -74 0H-170Q-124 168 -79 327Q-60 395 -40 468T1 611T41 747T76 866Q90 913 107 971T142 1091T177 1219T212 1344Q251 1486 291 1634H385Z"/><glyph unicode="€" horiz-adv-x="707" d="M662 467Q661 454 660 429T659 374T657 317T653 270Q639 133 574 61T381 -12Q317 -12 270 6T191 58T139 140T113 248Q109 274 107 321T103 426T102 547T100 666H18V770H94V811V852H18V956H98Q99 1013 100 1082T103 1215T108 1332T115 1407Q125 1462 144 1505T195 1579T273 1626T381 1642Q504 1642 567 1574T649 1378Q651 1359 653 1326T656 1256T658 1187T659 1135H520Q521 1159 521 1189T521 1247T520 1299T518 1331Q513 1416 480 1466T381 1516Q347 1516 323 1505T284 1473T260 1423T248 1360Q240 1289 240 1185T240 956H494V852H240V813V770H494V666H240Q240 613 240 554T241 441T243 345T246 281Q254 203 284 158T381 113Q512 113 518 297Q519 319 519 344T520 393T520 436T520 467H662Z"/><glyph unicode="℗" horiz-adv-x="848" d="M809 973Q807 865 781 785T705 652T586 573T426 547Q337 547 265 573T143 651T66 784T37 973Q37 994 37 1024T37 1090T37 1165T39 1243Q40 1350 69 1425T149 1548T270 1618T424 1640Q506 1640 576 1619T697 1550T777 1426T809 1241Q810 1214 810 1182T810 1116T810 1045T809 973ZM745 1004V1251Q743 1334 720 1394T654 1493T554 1550T424 1569Q353 1569 295 1551T194 1495T127 1396T102 1253Q101 1221 101 1185T101 1114T101 1051T102 1004Q103 899 127 825T193 704T294 636T424 614Q502 614 561 635T660 702T722 823T745 1004ZM354 1001V754H250V1386H465Q521 1386 550 1374T598 1341Q610 1329 619 1310T633 1270T640 1230T643 1198Q643 1180 642 1160T636 1120T626 1082T610 1051Q593 1028 561 1015T496 1001H354ZM522 1114Q532 1126 535 1148T539 1190Q539 1207 534 1227T520 1262Q509 1280 495 1287T455 1294H354V1090H465Q490 1090 501 1095T522 1114Z"/><glyph unicode="™" horiz-adv-x="1014" d="M872 1063V1458Q872 1486 860 1509T813 1532Q795 1532 782 1523T759 1498T746 1466T741 1432V1063H633V1462Q633 1494 620 1513T575 1532Q540 1532 520 1498T500 1415V1063H389V1636H498V1548Q507 1596 540 1621T621 1647Q669 1647 694 1619T729 1550Q735 1576 748 1594T778 1624T815 1641T856 1647Q892 1647 916 1634T954 1600T975 1552T981 1497V1063H872ZM344 1528H217Q217 1474 217 1436T216 1366T216 1304T217 1237Q217 1199 235 1182T279 1165Q290 1165 307 1165T330 1167V1065Q321 1063 309 1063T284 1062T259 1061T236 1061Q182 1061 146 1093T109 1198V1528H6V1636H344V1528Z"/><glyph unicode="Ω" horiz-adv-x="1664" d="M832 1376Q644 1376 510 1234T376 836Q376 592 464 432T724 180V0H88V196H536Q416 240 304 406T192 848Q192 1112 358 1330T832 1548Q1140 1548 1306 1338T1472 848Q1472 572 1360 406T1128 196H1576V0H940V180Q1112 272 1200 432T1288 836Q1288 1044 1162 1210T832 1376Z"/><glyph unicode="∂" horiz-adv-x="1280" d="M476 -32Q276 -32 166 80T56 360Q56 580 214 750T604 920Q700 920 802 886T964 816Q976 900 976 984Q976 1172 908 1278T720 1384Q592 1384 518 1356T368 1280L324 1444Q400 1488 492 1518T720 1548Q956 1548 1064 1394T1172 968Q1172 552 968 260T476 -32ZM488 128Q660 128 774 268T944 684Q912 716 824 748T648 780Q456 780 360 654T264 372Q264 264 318 196T488 128Z"/><glyph unicode="∆" horiz-adv-x="1536" d="M76 0L652 1536H884L1456 0H76ZM352 148H1164L752 1256L352 148Z"/><glyph unicode="∏" horiz-adv-x="1536" d="M332 0V1348H80V1524H1456V1348H1212V0H1004V1356H540V0H332Z"/><glyph unicode="∑" horiz-adv-x="1152" d="M1084 1524V1344H332L796 784L304 188H1080V0H40V172L560 788L68 1380V1524H1084Z"/><glyph unicode="−" horiz-adv-x="610" d="M584 739H25V874H584V739Z"/><glyph unicode="∕" horiz-adv-x="219" d="M385 1634Q340 1474 297 1321Q279 1256 259 1186T220 1048T182 916T147 801Q132 753 115 693T79 567T43 435T7 304Q-33 156 -74 0H-170Q-124 168 -79 327Q-60 395 -40 468T1 611T41 747T76 866Q90 913 107 971T142 1091T177 1219T212 1344Q251 1486 291 1634H385Z"/><glyph unicode="∙" horiz-adv-x="369" d="M276 668H90V936H276V668Z"/><glyph unicode="√" horiz-adv-x="815" d="M791 1636L440 -18H231L29 659H166L328 117L641 1636H791Z"/><glyph unicode="∞" horiz-adv-x="1536" d="M1072 396Q924 396 840 480Q800 524 768 588Q732 536 688 496Q580 396 440 396Q284 396 190 508T96 808Q96 984 208 1100T468 1216T704 1132Q748 1096 780 1028Q816 1088 860 1128Q956 1216 1100 1216Q1248 1216 1346 1112T1444 820Q1444 640 1340 518T1072 396ZM612 984Q556 1048 472 1048Q376 1048 316 982T256 792Q256 668 302 610T448 552Q540 552 608 624Q664 684 700 808Q664 932 612 984ZM920 608Q984 556 1072 556Q1156 556 1218 626T1280 816Q1280 916 1234 988T1080 1060Q972 1060 920 968Q880 896 848 804Q860 652 920 608Z"/><glyph unicode="∫" horiz-adv-x="1152" d="M-8 -392L56 -260Q80 -268 104 -274T164 -280Q212 -280 242 -246T288 -112L516 1224Q544 1384 636 1464T880 1544Q972 1544 1042 1522T1152 1476L1088 1304Q1044 1332 988 1356T868 1380Q776 1380 730 1322T672 1188L448 -224Q428 -332 350 -382T176 -432Q116 -432 66 -420T-8 -392Z"/><glyph unicode="≈" horiz-adv-x="1536" d="M236 400Q228 444 228 480Q228 580 288 652T476 724Q576 724 650 696T788 642T912 598T1020 580Q1096 580 1128 610T1160 684Q1160 700 1156 716H1300Q1308 672 1308 636Q1308 536 1248 464T1060 392Q960 392 886 418T748 470T624 512T516 528Q440 528 408 500T376 432Q376 416 380 400H236ZM236 860Q228 904 228 940Q228 1040 288 1112T476 1184Q576 1184 650 1156T788 1102T912 1058T1020 1040Q1096 1040 1128 1070T1160 1144Q1160 1160 1156 1176H1300Q1308 1132 1308 1096Q1308 996 1248 924T1060 852Q960 852 886 878T748 930T624 972T516 988Q440 988 408 960T376 892Q376 876 380 860H236Z"/><glyph unicode="≠" horiz-adv-x="1536" d="M212 976V1176H900L996 1356H1168L1072 1176H1328V976H964L768 604H1328V404H660L548 188H372L488 404H212V604H592L792 976H212Z"/><glyph unicode="≤" horiz-adv-x="1536" d="M1348 236L208 708V872L1348 1344V1128L448 792L1348 452V236ZM212 24V216H1348V24H212Z"/><glyph unicode="≥" horiz-adv-x="1536" d="M212 236V452L1112 792L212 1128V1344L1352 872V708L212 236ZM212 24V216H1348V24H212Z"/><glyph unicode="◊" horiz-adv-x="1152" d="M472 -48L68 756L472 1560H656L1084 756L656 -48H472ZM556 152L876 768L572 1356L252 740L556 152Z"/><glyph unicode="" horiz-adv-x="711" d="M322 1051V1499H10V1628H700V1499H383V1051Q425 1044 461 1024T524 973T566 905T582 823Q582 780 567 742T524 673T460 623T381 598V152H700V10H10V152H319V598Q278 604 242 624T180 674T138 742T123 823Q123 866 138 904T181 973T244 1023T322 1051ZM199 737Q217 742 242 749T287 762Q274 746 259 728T233 694Q250 679 272 668T319 651V748L350 815L381 748V651Q430 660 469 694Q458 710 442 728T414 764Q435 758 460 751T506 739Q528 778 528 823Q528 872 504 911Q485 906 459 900T412 887Q424 904 439 922T467 956Q450 972 428 982T383 997V901L350 831L322 901V997Q297 992 276 981T236 954Q247 939 262 920T291 883Q268 891 243 896T197 905Q187 887 182 866T176 823Q176 778 199 737Z"/><glyph unicode="ﬀ" horiz-adv-x="737" d="M246 999V0H106V999H10V1126H106V1430Q106 1477 116 1516T148 1584T206 1629T291 1645Q329 1645 351 1642T391 1636V1509Q379 1509 357 1511T319 1513Q277 1513 261 1488T244 1427V1126H459V1425Q459 1472 469 1512T501 1581T557 1628T641 1645Q679 1645 701 1642T741 1636V1509Q727 1509 708 1511T670 1513Q631 1513 614 1490T596 1432V1126H729V999H596V0H459V999H246Z"/><glyph unicode="ﬁ" horiz-adv-x="700" d="M473 1001H250V0H109V999H10V1126H109V1432Q109 1478 119 1517T153 1585T213 1629T301 1645Q341 1645 362 1642T401 1636V1509Q387 1509 368 1511T330 1513Q286 1513 267 1488T248 1421V1126H614V94Q614 78 615 62T619 32T622 10T625 0H485Q483 1 481 8T478 27T475 53T473 82V1001Z"/><glyph unicode="ﬂ" horiz-adv-x="705" d="M10 999V1126H106V1430Q106 1477 116 1516T149 1584T207 1629T293 1645Q331 1645 352 1642T391 1636V1509Q379 1511 359 1512T319 1513Q279 1513 263 1490T246 1432V1126H399V999H248V0H106V999H10ZM621 0H485Q480 5 478 24T475 66V1540Q475 1553 475 1568T474 1597T473 1621T471 1636H610Q612 1634 613 1613T614 1569V88Q614 11 621 0Z"/><glyph unicode="ﬃ" horiz-adv-x="1047" d="M821 1001H596V0H459V1001H246V0H106V999H10V1126H106V1430Q106 1477 116 1516T148 1584T206 1629T291 1645Q329 1645 351 1642T391 1636V1509Q379 1509 357 1511T319 1513Q277 1513 261 1488T244 1427V1126H459V1425Q459 1472 469 1512T501 1581T557 1628T641 1645Q679 1645 701 1642T741 1636V1509Q727 1509 708 1511T670 1513Q631 1513 614 1490T596 1432V1126H961V94Q961 78 962 62T966 32T970 10T973 0H834Q831 0 829 7T825 26T822 52T821 82V1001Z"/><glyph unicode="ﬄ" horiz-adv-x="1053" d="M246 999V0H106V999H10V1126H106V1430Q106 1477 116 1516T148 1584T206 1629T291 1645Q329 1645 351 1642T391 1636V1509Q379 1509 357 1511T319 1513Q277 1513 261 1488T244 1427V1126H459V1425Q459 1472 469 1512T501 1581T557 1628T641 1645Q679 1645 701 1642T741 1636V1509Q729 1511 709 1512T670 1513Q631 1513 614 1490T596 1432V1126H758V999H596V0H459V999H246ZM971 0H834Q830 5 827 24T823 66V1540Q823 1553 823 1568T822 1597T821 1621T819 1636H961Q961 1634 962 1613T963 1569V88Q963 11 971 0Z"/></font>
</defs>
</svg>
